<svg width="21" height="22" viewBox="0 0 21 22" fill="none" xmlns="http://www.w3.org/2000/svg">
<path opacity="0.2" fill-rule="evenodd" clip-rule="evenodd" d="M8.96671 0.744787C9.93178 1.22824 11.0683 1.22824 12.0333 0.744619C12.478 0.511785 12.9061 0.436132 13.301 0.541811C13.6959 0.647657 14.0287 0.927295 14.2972 1.35121C14.8912 2.2525 15.8756 2.82085 16.9532 2.88458C17.4546 2.90521 17.8632 3.05367 18.1522 3.3427C18.4413 3.63173 18.5897 4.04036 18.6104 4.54176C18.6741 5.61938 19.2424 6.60373 20.1437 7.19772C20.568 7.46628 20.8474 7.7991 20.9531 8.19396C21.059 8.58883 20.9832 9.01692 20.7502 9.46164C20.2667 10.4267 20.2667 11.5632 20.7503 12.5282C20.9832 12.9729 21.0588 13.401 20.9531 13.7959C20.8473 14.1908 20.5676 14.5236 20.1437 14.7922C19.2424 15.3861 18.6741 16.3705 18.6104 17.4481C18.5897 17.9495 18.4413 18.3581 18.1522 18.6472C17.8632 18.9362 17.4546 19.0847 16.9532 19.1053C15.8756 19.169 14.8912 19.7374 14.2972 20.6387C14.0287 21.0629 13.6958 21.3424 13.301 21.4481C12.9061 21.5539 12.478 21.4781 12.0333 21.2451C11.0682 20.7616 9.93173 20.7616 8.96671 21.2453C8.52203 21.4781 8.09393 21.5537 7.69903 21.4481C7.30415 21.3422 6.97135 21.0626 6.70278 20.6387C6.10879 19.7374 5.12445 19.169 4.04683 19.1053C3.54542 19.0847 3.13682 18.9362 2.84777 18.6472C2.55874 18.3581 2.41026 17.9495 2.38965 17.4481C2.3259 16.3705 1.75757 15.3861 0.856272 14.7922C0.432039 14.5236 0.15256 14.1908 0.0468769 13.7959C-0.0589696 13.401 0.0168502 12.9729 0.249853 12.5282C0.733308 11.5632 0.733308 10.4267 0.249685 9.46164C0.0168508 9.01697 -0.0588022 8.58887 0.0468769 8.19396C0.152724 7.79908 0.432362 7.46629 0.856272 7.19772C1.75757 6.60373 2.32592 5.61938 2.38965 4.54176C2.41028 4.04036 2.55874 3.63175 2.84777 3.3427C3.1368 3.05367 3.54542 2.90519 4.04683 2.88458C5.12445 2.82084 6.10879 2.2525 6.70278 1.35121C6.97135 0.926974 7.30416 0.647494 7.69902 0.541811C8.0939 0.435964 8.52199 0.511784 8.96671 0.744787ZM9.41946 11.5841C9.38356 11.62 9.32569 11.62 9.28979 11.5841C8.95799 11.2523 7.45178 9.74608 7.12 9.41448C7.0841 9.37858 7.02623 9.37858 6.99033 9.41448L5.47912 10.9257C5.44322 10.9616 5.44322 11.0195 5.47912 11.0554C5.94831 11.5246 8.82062 14.3969 9.28982 14.8661C9.32571 14.902 9.38359 14.902 9.41948 14.8661C10.0388 14.2467 14.9016 9.38435 15.5209 8.76468C15.5568 8.72878 15.5568 8.67091 15.5209 8.63501L14.0096 7.1238C13.9738 7.0879 13.9159 7.0879 13.88 7.1238C13.3643 7.63911 9.93508 11.0687 9.41946 11.5839V11.5841Z" fill="black"/>
</svg>
