<svg width="16" height="17" viewBox="0 0 16 17" fill="none" xmlns="http://www.w3.org/2000/svg">
<path d="M4.66536 0.5C2.0927 0.5 0 2.59464 0 5.16797V11.8346C0 14.4073 2.09464 16.5 4.66797 16.5H11.3346C13.9073 16.5 16 14.4054 16 11.832V5.16536C16 2.5927 13.9054 0.5 11.332 0.5H4.66536ZM12.6667 3.16667C13.0347 3.16667 13.3333 3.46533 13.3333 3.83333C13.3333 4.20133 13.0347 4.5 12.6667 4.5C12.2987 4.5 12 4.20133 12 3.83333C12 3.46533 12.2987 3.16667 12.6667 3.16667ZM8 4.5C10.206 4.5 12 6.294 12 8.5C12 10.706 10.206 12.5 8 12.5C5.794 12.5 4 10.706 4 8.5C4 6.294 5.794 4.5 8 4.5ZM8 5.83333C7.29276 5.83333 6.61448 6.11428 6.11438 6.61438C5.61428 7.11448 5.33333 7.79276 5.33333 8.5C5.33333 9.20724 5.61428 9.88552 6.11438 10.3856C6.61448 10.8857 7.29276 11.1667 8 11.1667C8.70724 11.1667 9.38552 10.8857 9.88562 10.3856C10.3857 9.88552 10.6667 9.20724 10.6667 8.5C10.6667 7.79276 10.3857 7.11448 9.88562 6.61438C9.38552 6.11428 8.70724 5.83333 8 5.83333Z" fill="black"/>
</svg>
