<svg width="16" height="15" viewBox="0 0 16 15" fill="none" xmlns="http://www.w3.org/2000/svg">
<path fill-rule="evenodd" clip-rule="evenodd" d="M8.00001 0C8.02619 0 8.05163 -1.45866e-08 8.10326 0.000684859C8.47645 0.00753359 8.84804 0.0334441 9.21671 0.0866345C9.96439 0.193702 10.6946 0.401662 11.3797 0.701641C12.1076 1.02 12.7834 1.44276 13.3783 1.94933C14.0663 2.53567 14.6451 3.23457 15.0793 4.00574C15.4459 4.6568 15.7091 5.35845 15.8568 6.08177C16.0226 6.89253 16.0444 7.72976 15.9223 8.54727C15.8081 9.31089 15.5674 10.0568 15.2103 10.7509C14.792 11.5643 14.216 12.3047 13.5186 12.928C12.7964 13.5736 11.9469 14.0911 11.0233 14.4449C10.0713 14.8097 9.04661 14.998 8.01887 15H8H7.98113C6.9534 14.9979 5.92872 14.8097 4.97672 14.4449C4.05309 14.0911 3.20361 13.5736 2.48137 12.928C1.78396 12.3047 1.20796 11.5643 0.789734 10.7509C0.432631 10.0568 0.191914 9.31089 0.0777107 8.54727C-0.0444092 7.72976 -0.0226161 6.89253 0.143215 6.08177C0.290903 5.35845 0.554147 4.6568 0.920725 4.00574C1.35491 3.23457 1.93372 2.53567 2.62174 1.94933C3.21663 1.44276 3.89237 1.01997 4.62032 0.701641C5.30542 0.401662 6.03558 0.193699 6.78329 0.0866345C7.15196 0.0334441 7.52356 0.00753418 7.89674 0.000684859C7.94836 -1.45866e-08 7.97454 0 7.99999 0H8.00001ZM9.92797 10.2272H6.07206C6.13172 10.532 6.20367 10.8341 6.29024 11.1327C6.34917 11.3366 6.41455 11.5384 6.48797 11.7374C6.60802 12.0627 6.74913 12.3818 6.9258 12.6838C7.04585 12.889 7.18258 13.0881 7.34842 13.2641C7.37898 13.2967 7.411 13.3288 7.44436 13.3595C7.47419 13.3868 7.50548 13.4141 7.5375 13.4393C7.66254 13.5388 7.81607 13.6308 7.98556 13.6363C8.16514 13.6411 8.33025 13.5443 8.4626 13.4393C8.49462 13.4141 8.52591 13.3868 8.55574 13.3595C8.70842 13.2176 8.83711 13.0534 8.95059 12.8822C9.1113 12.6409 9.24365 12.3824 9.35859 12.1192C9.43067 11.9557 9.49459 11.7899 9.55425 11.6223C9.62547 11.4184 9.68951 11.2125 9.74625 11.0045C9.81602 10.7475 9.87641 10.4884 9.92803 10.2272L9.92797 10.2272ZM4.59496 10.2272H2.13601C2.47497 10.8661 2.93387 11.4484 3.48516 11.9413C4.0764 12.4691 4.77159 12.8931 5.52735 13.183C5.54184 13.1884 5.55645 13.1938 5.57094 13.1993C5.53453 13.1332 5.49971 13.0663 5.4655 12.9995C5.37455 12.8182 5.2909 12.6334 5.21529 12.4459C5.12507 12.225 5.04508 12.0007 4.97239 11.7736C4.81095 11.2671 4.68798 10.7495 4.59497 10.2272L4.59496 10.2272ZM13.864 10.2272H11.405C11.312 10.7495 11.189 11.2671 11.0276 11.7736C10.9549 12.0007 10.8749 12.225 10.7847 12.4459C10.7091 12.6334 10.6255 12.8182 10.5345 12.9995C10.5003 13.0663 10.4655 13.1332 10.4291 13.1993C10.4436 13.1938 10.4582 13.1884 10.4727 13.183C11.2284 12.8931 11.9236 12.4691 12.5148 11.9413C13.0662 11.4485 13.525 10.8661 13.864 10.2272L13.864 10.2272ZM4.41948 6.13633H1.61658C1.60063 6.20322 1.58529 6.27068 1.57153 6.33814C1.43553 7.00291 1.418 7.68822 1.51771 8.35837C1.54316 8.52753 1.57664 8.69589 1.61658 8.86301C2.55043 8.86027 3.48354 8.85068 4.41727 8.83915C4.36053 8.15246 4.34969 7.46315 4.37879 6.77591C4.38817 6.56258 4.40132 6.34914 4.41946 6.13636L4.41948 6.13633ZM14.3833 6.13633H11.5804C11.5985 6.3491 11.6116 6.56255 11.621 6.77589C11.6494 7.44545 11.64 8.11705 11.5868 8.78594C12.5207 8.79405 13.4545 8.81186 14.3876 8.84313C14.4261 8.68299 14.4574 8.52135 14.4821 8.35836C14.5818 7.68821 14.5643 7.0029 14.4283 6.33813C14.4145 6.27067 14.3992 6.20321 14.3832 6.13633L14.3833 6.13633ZM10.1215 6.13633H5.87881C5.84825 6.47795 5.82938 6.82027 5.82207 7.16318C5.81038 7.71551 5.82719 8.26912 5.87516 8.81996C7.29334 8.8009 8.71081 8.78252 10.1282 8.78115C10.1791 8.18794 10.1929 7.59131 10.1739 6.99688C10.1646 6.70981 10.147 6.42275 10.1216 6.13636L10.1215 6.13633ZM5.57086 1.80058C5.45812 1.84281 5.3461 1.88847 5.23554 1.93698C3.9228 2.51169 2.83189 3.49891 2.17089 4.7078C2.1592 4.72823 2.14836 4.74877 2.13741 4.76921C2.95852 4.7651 3.77964 4.75619 4.6 4.74535C4.62034 4.63554 4.6414 4.52574 4.66392 4.41603C4.7847 3.82832 4.94542 3.24595 5.16359 2.68345C5.23774 2.49261 5.31847 2.3037 5.40722 2.11891C5.45885 2.01127 5.51339 1.90558 5.57086 1.80055V1.80058ZM10.4292 1.80058C10.4866 1.90559 10.5412 2.01128 10.5928 2.11893C10.6816 2.30373 10.7623 2.49264 10.8364 2.68348C11.0546 3.24597 11.2153 3.82834 11.3361 4.41606C11.355 4.50806 11.3731 4.60074 11.3906 4.69354C12.2088 4.6997 13.0263 4.71192 13.8445 4.73509C13.8394 4.72618 13.8343 4.7174 13.8291 4.70781C13.1681 3.49892 12.0772 2.5117 10.7645 1.93699C10.6539 1.88848 10.5419 1.84282 10.4292 1.80059L10.4292 1.80058ZM9.91136 4.69079C9.82917 4.28719 9.72592 3.88757 9.5943 3.49628C9.54329 3.34219 9.48728 3.19013 9.42628 3.03936C9.31354 2.76256 9.18339 2.49056 9.02474 2.23418C8.91065 2.0487 8.78184 1.86869 8.6277 1.71049C8.53968 1.62054 8.443 1.53596 8.33318 1.46987C8.24516 1.41668 8.14848 1.37639 8.04365 1.36555C8.02405 1.36418 8.00518 1.36349 7.98558 1.36349C7.78407 1.37308 7.60874 1.49373 7.46836 1.61917C7.435 1.64851 7.40297 1.67921 7.37242 1.71049C7.21828 1.86869 7.08946 2.04869 6.97539 2.23418C6.81674 2.49054 6.68659 2.76255 6.57384 3.03936C6.51284 3.19014 6.45683 3.34217 6.40582 3.49628C6.27055 3.8992 6.16438 4.31104 6.08147 4.72617C7.35794 4.70917 8.63502 4.69353 9.91151 4.69079L9.91136 4.69079Z" fill="black"/>
</svg>
