<svg xmlns="http://www.w3.org/2000/svg" xmlns:svgjs="http://svgjs.com/svgjs" xmlns:xlink="http://www.w3.org/1999/xlink"
     width="500" height="500">
    <svg xmlns="http://www.w3.org/2000/svg" width="500" height="500" viewBox="0 0 48 48">
        <path fill="#7a52f4"
              d="M38.89 34.22a1.22 1.22 0 0 0-2 1.38H11.66v-5.42c2.19-5.31 5.66-11.13 7.23-11.13.19 0 .54.31.91 1.18 2.22 5.34 4.73 6.51 6.44 6.55 1.42 0 3.37-.65 5-4.05s2.73-4.11 3.12-4.07c.07 0 1.72.32 3.23 8.43a1.24 1.24 0 0 0 2.41-.45c-1.29-6.91-2.94-10.12-5.36-10.43-2-.25-3.83 1.54-5.67 5.47-.78 1.67-1.74 2.62-2.64 2.62-1 0-2.69-1.35-4.22-5-.93-2.24-2.24-2.72-3.19-2.72-2.59 0-5.29 4-7.22 7.73v-12a1.2 1.2 0 0 0 .32.06 1.24 1.24 0 0 0 .87-2.11l-1.7-1.72a1.25 1.25 0 0 0-1.69-.06l-1.88 1.63A1.23 1.23 0 0 0 9.18 12v24.84a1.24 1.24 0 0 0 1.24 1.23h26.37a1.23 1.23 0 0 0 1.12 1.75 1.26 1.26 0 0 0 .88-.36l1.66-1.67a1.23 1.23 0 0 0 .06-1.68Z"
              class="color000 svgShape"/>
    </svg>
</svg>
