<svg width="279" height="304" viewBox="0 0 279 304" fill="none" xmlns="http://www.w3.org/2000/svg">
<g clip-path="url(#clip0_11_1790)">
<path d="M0 155.12L1.66 153.12V153.78C2.5 154.64 0.17 155.64 0 155.12Z" fill="#712E19"/>
<path d="M0.830078 146.39H0.330078V144.41L0.830078 146.39Z" fill="#712E19"/>
<path d="M0.840088 161.75C0.340088 161.59 0.340088 161.09 0.340088 160.6H1.17009C1.17009 161.12 1.34009 161.59 0.840088 161.75Z" fill="#712E19"/>
<path d="M4.3401 127.38V128.04H4.01012C3.17012 128.87 1.8301 129.87 0.840102 128.87C0.670102 127.06 0.840102 125.41 2.8401 124.87V128L4.3401 127.38Z" fill="#712E19"/>
<path d="M2.00009 134.82C1.83009 135.31 2.3301 136.14 1.6601 136.47C1.3401 136.63 1.00009 136.31 0.840088 135.98L2.00009 134.82Z" fill="#712E19"/>
<path d="M1.66004 170.17C1.17004 169.51 0.66004 167.7 2.00004 167.7C3.01004 168.52 1.83004 169.68 1.66004 170.17Z" fill="#712E19"/>
<path d="M2.00004 130.52V132.52H1.66005C1.83005 131.85 1.34004 130.85 2.00004 130.52Z" fill="#712E19"/>
<path d="M2.8399 178.76C1.8399 178.27 3.16991 176.46 1.65991 176.46C2.83991 175.13 1.65991 173.82 1.99991 172.46C4.50991 174.12 1.9999 177.28 2.8399 178.76Z" fill="#712E19"/>
<path d="M5.66006 118.96C5.41385 118.914 5.15966 118.936 4.92517 119.024C4.69068 119.112 4.48485 119.263 4.33006 119.46C5.00006 121.27 6.00006 118.8 6.83006 120.12C6.99006 120.94 6.50006 121.27 6.00006 121.77L4.83006 120.61C4.50006 120.94 3.83006 121.11 4.00006 121.77C3.66006 122.43 3.66007 123.25 2.32007 122.92C3.32007 121.27 2.49006 117.47 5.66006 118.13V118.96Z" fill="#712E19"/>
<path d="M272.11 174.12C272.166 174.804 272.053 175.491 271.78 176.12L270.94 175.3C271.78 175.47 271.45 174.31 272.11 174.12Z" fill="#712E19"/>
<path d="M230.48 44.1201L230.06 43.54C230.25 43.692 230.395 43.8924 230.48 44.1201Z" fill="#712E19"/>
<path d="M182.91 276.74C185.24 274.6 189.91 274.74 190.41 271.96C195.75 270.47 199.25 267.17 204.41 265.68C204.121 265.055 204.004 264.365 204.07 263.68C209.24 264.5 208.41 257.4 213.75 259.38C216.999 255.672 220.76 252.446 224.92 249.8C235.09 239.55 244.76 228.98 253.26 216.92C251.93 214.44 255.76 213.78 256.93 212.12C258.76 209.12 259.59 205.35 262.43 203.04C262.93 201.39 261.93 201.04 262.43 199.9C262.76 200.4 263.26 200.23 263.77 200.23C265.27 196.1 267.1 194.62 268.43 190.32L267.26 189.16C266.94 189.65 266.61 190.64 265.77 190.64C263.94 188.5 267.44 187.51 267.26 185.52L268.43 186.02L270.1 181.23L268.1 184.7C266.26 182.7 268.76 180.4 268.42 178.09C269.76 177.59 269.26 175.61 270.92 175.28C270.77 172.28 270.92 169.34 272.92 166.86C273.112 166.864 273.3 166.912 273.47 167C274.61 165 278.41 163.86 276.42 160.58L277.25 159.75C278.92 145.75 277.58 131 276.92 118.11L276.42 118.61C276.75 114.97 274.24 112.5 275.25 108.7C273.41 107.04 275.75 102.7 272.42 101.92C274.24 99.7701 271.08 97.1301 272.08 94.3201C270.994 91.8849 269.769 89.5142 268.41 87.2201C268.58 85.0701 266.92 81.7601 265.25 79.2801C264.42 78.1301 263.41 80.2801 262.91 78.4601L264.91 77.3001L263.27 76.1201L263.78 75.7901C262.718 71.8789 260.438 68.4078 257.27 65.8801C255.44 68.0301 260.77 70.3401 260.11 72.9801C260.61 73.1601 261.61 72.9801 261.77 74.1401L260.94 74.9701L262.44 76.9701C258.77 77.4601 264.11 81.7501 259.77 79.2701C254.77 75.6401 255.11 68.8601 249.27 67.0501C248.1 65.0501 247.1 63.4101 244.93 62.5801C245.93 62.0901 246.77 58.9501 244.1 58.2901L242.94 58.6201C240.43 57.6201 241.77 53.1701 238.43 53.1701C239.27 53.5001 238.77 54.1701 238.93 54.6501L238.43 55.1501C234.43 52.0101 237.61 47.5501 232.1 46.0701L231.76 46.4001L230.93 45.5701L231.27 45.2301L230.48 44.1301C230.553 44.327 230.553 44.5433 230.48 44.7401L226.98 44.4101C228.48 42.4101 226.31 40.9401 224.14 40.4101C223.64 39.2501 226.81 39.4101 224.47 38.7601C223.81 38.7601 222.97 40.0701 222.14 40.7601C219.81 46.5401 228.48 46.5401 229.31 50.6701C231.15 51.1601 231.81 52.9801 230.48 54.3001C232.15 54.3001 230.14 55.3001 231.32 55.4601C232.15 55.1301 233.48 55.9601 234.48 56.2901C237.31 57.4401 233.64 59.9201 236.48 60.5801C240.97 59.9201 234.98 57.4401 237.3 55.4601C240.97 57.4601 241.48 62.9001 245.3 63.0601C245.13 67.6901 249.3 65.3701 248.97 69.8301C252.97 73.8301 254.8 80.2501 258.14 84.0501L258.97 84.8701C257.47 87.1901 260.14 89.9901 260.97 92.3001C264.97 105.52 269.31 119.56 269.81 133.3C268.64 133.46 268.64 134.61 268.98 135.6C271.31 136.93 269.48 140.07 268.98 141.88C268.47 143.53 266.98 141.88 266.47 143.88C266.31 146.36 269.81 145.03 268.47 147.88C268.184 148.104 267.847 148.254 267.489 148.316C267.131 148.378 266.763 148.351 266.418 148.238C266.073 148.124 265.761 147.927 265.51 147.664C265.259 147.401 265.077 147.08 264.98 146.73C265.31 148.38 265.64 149.73 267.3 149.2C267.14 152.2 264.48 153.83 264.98 156.64H264.14C262.97 158.64 267.48 160.11 264.14 161.1C266.47 162.92 261.64 163.58 261.31 164.9C263.14 164.9 262.97 166.9 262.97 168.2C262.97 171.01 259.47 173 261.31 176.13C259.97 176.96 258.47 177.29 258.47 179.27C259.14 181.42 259.47 183.08 256.97 184.07C258.3 186.07 254.64 186.07 255.8 188.36C253.63 187.87 252.47 191.17 251.3 192.36C251.424 193.143 251.352 193.945 251.09 194.694C250.828 195.443 250.385 196.115 249.8 196.65C249.23 196.519 248.735 196.168 248.422 195.674C248.109 195.179 248.004 194.581 248.13 194.01L248.46 193.51C248.13 193.18 247.63 192.51 246.97 192.69C245.63 194.18 246.13 196.99 243.8 197.15C241.47 195.33 246.47 194.15 244.13 192.03C243.29 193.68 241.96 192.03 240.96 192.03C242.96 190.7 240.96 189.22 242.14 187.57C243.29 180.46 249.63 174.84 248.97 167.41C250.97 166.58 250.14 164.93 249.8 163.41C249.725 163.202 249.697 162.98 249.717 162.76C249.738 162.54 249.806 162.327 249.918 162.137C250.029 161.946 250.181 161.782 250.363 161.656C250.545 161.531 250.752 161.447 250.97 161.41H250.14L249.8 157.78C249.46 157.94 249.13 157.61 248.97 157.45C248.46 156.12 249.8 156.62 250.14 156.29C251.14 155.13 251.14 152.29 253.3 152.65C252.13 151 250.46 154.47 249.3 152.33C249.8 150.84 249.97 148.85 250.46 147.86C250.659 148.011 250.812 148.215 250.902 148.448C250.992 148.681 251.015 148.934 250.97 149.18H251.3C251.3 148.69 251.46 146.71 250.14 146.71C249.46 139.71 251.63 134.15 249.8 128.03L251.3 127.71L250.46 125.4L249.8 126.55C247.97 123.41 250.14 120.11 247.8 117.46C247.3 111.18 244.8 104.74 241.8 99.1201C241.47 98.1201 239.63 98.3001 239.3 97.1201L240.46 96.7901C236.63 90.7901 236.96 79.1101 227.29 80.9201L226.12 82.9201C224.45 80.6101 222.12 79.4501 220.12 77.8001L220.45 77.3001C220.12 75.3001 216.62 75.8101 217.28 73.0001C215.79 73.6701 213.95 72.0001 214.12 70.2001C209.45 66.3901 206.62 61.6001 200.94 59.4501C198.61 56.3201 194.11 54.1701 191.28 51.1901C183.28 47.1901 176.6 42.2801 167.28 41.2801C162.95 42.1101 157.95 37.6501 154.45 39.2801C150.95 38.6201 147.28 39.1201 143.78 37.2801C142.44 36.6201 141.27 38.7701 140.44 36.7801C140.78 36.6201 140.94 36.2801 141.27 36.4501V35.6201C139.94 38.1101 134.44 37.4401 132.11 38.7701C124.43 35.6201 118.77 43.0601 111.26 41.5701C107.359 43.3128 103.189 44.3748 98.93 44.7101C100.93 42.0701 107.93 43.8901 105.26 39.2601C104.43 38.1101 102.92 38.9301 102.09 38.4301C105.76 35.1301 111.6 33.9701 116.09 32.8101C115.572 32.2992 114.936 31.9255 114.237 31.723C113.539 31.5204 112.801 31.4954 112.09 31.6501V32.1501C107.92 33.3101 102.91 36.1501 98.41 36.7801L96.41 38.7801L97.75 40.0901C92.24 43.2401 87.58 46.8701 81.75 47.5301C78.75 48.0301 76.58 41.5301 72.92 45.5301C72.92 46.0301 74.41 44.3701 74.92 46.0301C74.3176 46.5736 73.567 46.9256 72.7639 47.0413C71.9608 47.1571 71.1415 47.0313 70.41 46.6801C72.08 48.8301 67.75 47.3501 68.08 49.4901C65.41 50.3201 62.24 51.3101 59.24 50.3201C59.91 49.0001 61.91 49.6601 61.74 48.0101C59.58 47.5101 58.58 50.4901 57.24 52.3001C56.41 53.4601 55.91 53.4601 54.9 52.6401C55.25 55.4401 52.08 54.7801 50.41 55.4401C45.5557 61.4579 40.0748 66.9421 34.06 71.8001C33.4 71.4601 34.9 69.6501 33.23 70.1501C33.9 71.6401 32.23 73.1501 31.73 74.4401C29.89 73.2901 31.73 71.4401 32.06 70.1501C34.4 68.1501 33.56 62.8801 37.73 62.2101C39.23 61.0601 40.4 56.4301 43.24 57.4201C41.74 53.3001 47.4 51.4801 48.4 48.6701C44.4 47.6701 45.91 54.4501 41.23 53.4601C41.9 52.1401 39.9 49.6601 42.91 49.4601C43.74 48.4601 44.57 46.8201 43.74 45.4601L40.85 48.1201L41.69 48.7801L37.69 51.5901L39.19 52.4101C39.03 53.7401 36.36 54.5601 37.19 56.0501L36.86 56.3801C38.36 54.7201 39.19 55.5501 41.19 55.2201C40.36 56.3801 37.53 62.3201 34.86 58.3601C35.7 61.5001 32.69 61.1701 32.36 63.9701C32.69 63.6401 32.86 63.3201 33.19 63.4801L34.02 64.3101C32.36 65.1401 29.85 67.9501 30.02 69.4301L29.19 70.2601L30.02 71.0801L30.35 70.5901L31.19 71.4101C28.36 72.7401 28.68 76.4101 27.19 78.1901C27.85 78.3601 28.36 78.3601 28.85 79.0201C29.69 81.0201 27.52 80.0201 26.85 80.5001C22.52 88.2701 18.68 96.3601 14.02 103.63C12.69 110.91 7.02004 115.2 8.02004 122.14C5.35004 123.95 5.84004 128.42 5.18004 131.72C4.68004 138.49 2.18004 143.95 4.85004 151.22C1.18004 154.36 4.85004 158.49 3.68004 162.62C4.05826 162.723 4.45982 162.697 4.82177 162.547C5.18371 162.396 5.48558 162.13 5.68003 161.79C6.52003 162.62 7.18004 164.44 6.02004 164.93H5.18004C6.02004 166.26 8.02003 165.76 7.18003 167.74C4.85003 168.07 8.35004 169.23 6.85004 170.21C9.85004 172.36 9.18003 176 11.18 179.3C11.52 181.3 10.35 181.62 12.35 182.44L13.18 183.27L11.68 184.43C12.86 186.25 17.01 185.26 18.02 189.22L17.68 193.51C16.35 193.68 15.35 189.71 14.35 188.06C13.02 187.73 17.19 191.37 14.35 191.53C15.69 194.34 15.86 197.98 18.02 199.96C19.85 203.42 22.85 207.23 24.02 211.36C29.35 215.82 26.18 222.92 31.68 227.72C34.01 233.83 40.01 238.29 42.35 244.24C43.35 245.72 45.52 246.39 45.19 248.24C47.35 248.24 47.03 250.72 48.03 251.88L48.35 251.55C51.7745 255.68 55.8234 259.25 60.35 262.13C62.52 265.76 69.69 268.9 74.02 272.87C80.52 275.34 86.86 279.47 93.19 281.29V281.96C96.19 281.46 98.36 284.43 101.19 282.78C103.36 285.09 106.86 283.6 109.19 285.26C113.85 284.93 118.02 285.75 122.35 285.92C125.19 288.92 127.86 285.09 130.86 287.57C132.69 286.57 134.19 287.24 136.02 287.57V287.12L148.36 285.47C151.36 286.47 153.87 285.3 157.21 285.14C162.87 284.47 166.53 281.5 172.04 281.5C171.88 279.85 173.71 281.34 174.04 280.67C175.9 277.58 180.41 278.24 182.91 276.74ZM80.37 56.0101C84.71 53.2001 89.37 51.8701 93.7 49.2401C96.7 49.0701 99.54 46.2401 103.21 46.4301C104.38 44.6101 105.71 45.1001 106.88 45.6001C104.38 45.1001 103.71 48.2401 101.21 47.6001C94.71 50.0601 87.2 53.8601 80.37 56.0101ZM229.26 86.1201C226.76 85.9501 228.92 83.3101 226.43 82.9801H227.26C228.1 83.9301 230.09 84.9201 229.26 86.1201Z" fill="#712E19"/>
<path d="M273.78 168.52L273.29 168.85C273.189 168.548 273.155 168.228 273.191 167.912C273.228 167.595 273.333 167.291 273.5 167.02C273.98 167.33 272.82 167.98 273.78 168.52Z" fill="#712E19"/>
<path d="M229.26 42.46L230.06 43.58C229.66 43.27 229.26 42.96 229.26 42.46Z" fill="#712E19"/>
<path d="M4.0101 184.39C2.8401 183.89 3.17009 182.08 2.84009 180.75L4.34009 181.25C4.34009 182.24 4.8401 183.57 4.0101 184.39Z" fill="#712E19"/>
<path d="M6.01007 170.17C6.51007 171.34 5.34006 171.66 4.34006 171.66C4.67006 170.17 3.34006 167.87 4.34006 167.37C4.51006 168.36 4.51007 169.85 6.01007 170.17Z" fill="#712E19"/>
<path d="M4.59009 186.21C4.59009 186.32 4.5901 186.45 4.6601 186.57C4.5601 186.51 4.46009 186.43 4.34009 186.37L4.59009 186.21Z" fill="#712E19"/>
<path d="M4.65991 186.57C5.11307 186.896 5.42038 187.386 5.51575 187.936C5.61112 188.486 5.48694 189.051 5.16991 189.51C4.48991 188.61 4.78991 187.57 4.65991 186.57Z" fill="#712E19"/>
<path d="M4.84 186.04L4.59 186.21C4.48881 185.831 4.28864 185.486 4.01001 185.21L4.84 186.04Z" fill="#712E19"/>
<path d="M4.83992 116.98C4.33992 115.98 6.83992 114.98 4.83992 114.17C4.82549 113.904 4.86734 113.637 4.96274 113.388C5.05815 113.139 5.20497 112.912 5.39365 112.724C5.58233 112.535 5.80862 112.388 6.05781 112.293C6.307 112.197 6.57349 112.156 6.83993 112.17C6.4376 113.871 5.76217 115.495 4.83992 116.98Z" fill="#712E19"/>
<path d="M5.65997 173.32C7.49997 173.82 6.98997 175.96 7.65997 177.32L5.98997 177.65C5.82997 176.79 4.50997 173.82 5.65997 173.32Z" fill="#712E19"/>
<path d="M6.84001 178.76C7.34001 181.08 9.67001 183.07 8.34001 184.76C5.67001 183.93 7.34001 180.63 6.01001 178.76H6.84001Z" fill="#712E19"/>
<path d="M6.84009 195.95C6.67009 195.62 6.34009 195.46 6.34009 195.13L7.68008 195.95H6.84009Z" fill="#712E19"/>
<path d="M6.34009 197.94L8.34009 198.26L7.68008 199.09L8.84009 200.25L8.01009 201.08C6.66009 200.25 7.34009 198.43 6.34009 197.94Z" fill="#712E19"/>
<path d="M8.00993 187.53C9.50993 186.53 11.6699 189.35 12.0099 189.53C10.8399 188.52 7.82993 190.17 8.00993 187.53Z" fill="#712E19"/>
<path d="M9.17001 212.97C8.84001 211.97 8.34001 210.83 8.01001 209.83C8.66001 210.33 10.51 211.98 9.17001 212.97Z" fill="#712E19"/>
<path d="M8.84009 191.12V190.62H10.0001C9.84008 191.12 9.34009 191.12 8.84009 191.12Z" fill="#712E19"/>
<path d="M10.0001 207.02L8.84009 203.38C9.17009 203.88 11.3401 205.87 10.0001 207.02Z" fill="#712E19"/>
<path d="M10.0001 193.97L12.0001 194.3C11.5001 194.8 11.1601 195.3 10.3301 195.13C9.84007 194.8 10.0001 194.3 10.0001 193.97Z" fill="#712E19"/>
<path d="M12.3401 197.45C12.1192 197.422 11.8949 197.453 11.6895 197.539C11.4842 197.625 11.3051 197.763 11.1701 197.94L10.8401 196.29C11.1701 197.12 13.0101 195.95 12.3401 197.45Z" fill="#712E19"/>
<path d="M10.8401 210.12C14.3401 208.8 12.1701 214.26 15.1801 212.44L17.6701 216.9C17.3401 217.06 17.1801 217.39 16.8501 217.23C16.3401 215.74 15.0101 214.42 14.3401 212.93L12.3401 214.09L10.8401 210.12Z" fill="#712E19"/>
<path d="M13.17 201.41H12.85C12.34 200.91 12.68 199.92 12.01 199.41C12.223 199.455 12.4241 199.545 12.6003 199.673C12.7766 199.801 12.9241 199.964 13.0334 200.153C13.1426 200.341 13.2112 200.55 13.2348 200.767C13.2583 200.983 13.2363 201.202 13.17 201.41Z" fill="#712E19"/>
<path d="M13.66 216.44C13.32 216.28 12.99 216.12 13.15 215.78L14.82 216.12C14.51 216.61 14.01 216.44 13.66 216.44Z" fill="#712E19"/>
<path d="M17.1799 218.42C20.8399 218.42 19.8399 223.22 21.6699 224.04C25.5099 228.84 23.3499 235.94 29.6699 237.59H28.3399C27.4999 238.91 28.3399 239.9 27.9999 241.06C30.9999 241.56 29.3399 243.2 31.9999 244.2C31.8399 246.35 32.8399 248.33 30.3299 248.66L25.6599 241.89L26.3299 242.71L27.6699 241.56C25.9999 240.73 22.9999 239.9 23.6699 237.92C19.9999 237.76 22.4999 233.92 21.1699 232.3C20.1101 231.088 19.4164 229.601 19.1699 228.01C17.8299 224.54 13.4999 221.4 15.1699 217.76C16.9899 219.76 18.1699 222.88 18.8299 224.38C20.1799 222.72 18.3399 220.25 17.1799 218.42Z" fill="#712E19"/>
<path d="M26.8399 247.84L21.6699 240.73L27.1799 247.5L26.8399 247.84Z" fill="#712E19"/>
<path d="M26.3399 290.3L25.6699 289.48L26.8399 289.81L26.3399 290.3Z" fill="#712E19"/>
<path d="M110.88 293.76C111.107 293.46 111.42 293.237 111.778 293.121C112.136 293.005 112.52 293.001 112.88 293.11C112.909 293.329 112.877 293.552 112.789 293.754C112.701 293.957 112.56 294.132 112.38 294.26L114.05 295.75C112.38 296.09 111.38 295.75 109.22 295.75V295.12C109.88 294.26 112.05 295.59 110.88 293.76Z" fill="#712E19"/>
<path d="M52.03 267.34C57.86 266.51 57.86 273.28 63.19 273.28C63.53 276.28 68.03 274.44 68.36 277.58L69.7 277.24C73.36 281.54 79.04 283.24 83.7 286.33L82.87 287.82C83.7 288.31 84.87 289.31 85.7 288.31C85.87 287.66 85.04 287.49 84.87 287.16C86.38 284.68 87.37 289.16 89.21 287.16C89.37 287.66 88.87 288.31 89.7 288.65C94.37 286.83 98.54 291.12 103.21 291.78C105.05 292.12 108.54 292.61 109.21 295.09C108.04 295.75 106.04 293.44 104.86 295.42C102.86 292.42 99.36 294.42 97.2 293.42C89.86 291.1 81.36 288.79 74.86 284.33C69.52 283.84 65.52 278.72 60.35 277.22C59.69 275.57 58.85 273.59 56.35 274.42C54.68 269.79 47.85 269.96 47.18 265.33C44.67 265.33 41.84 261.69 40.34 259.33C36.8422 256.704 33.9897 253.315 32 249.42H33.17V248.92H35.17C39.85 255.93 46.86 261.06 52.03 267.34Z" fill="#712E19"/>
<path d="M68.0301 25.7701L67.1901 26.6001C62.6901 29.0801 59.5301 32.0501 55.1901 34.5301C52.5101 36.3401 52.5101 38.5301 50.3501 40.8101C48.8501 40.8101 48.3501 42.6301 46.8501 43.6101C46.1801 41.4701 45.0101 44.6101 44.8501 43.6101L46.3401 42.4601L46.8501 42.7901C47.3401 42.9501 47.6801 42.3001 48.0201 42.1301C47.8501 41.1301 45.8501 40.6401 45.6801 40.8101C48.6801 38.1701 53.5201 36.0101 55.6801 31.7101C61.3501 32.3801 60.6801 25.9301 64.8501 24.2801C66.6601 22.6301 66.8601 25.4401 68.0301 25.7701Z" fill="#712E19"/>
<path d="M52.3599 54.02C52.1999 53.7 51.8499 53.53 52.0299 53.2L53.1899 53.5299C53.1041 53.6749 52.983 53.7959 52.8378 53.8815C52.6927 53.9672 52.5283 54.0148 52.3599 54.02Z" fill="#712E19"/>
<path d="M54.3601 49.5599C54.8501 48.8999 56.3601 48.4099 55.2001 47.5599C58.8601 46.4099 60.0201 41.4499 62.8601 41.5599V42.3899C58.5301 42.7899 59.8601 50.0599 54.3601 49.5599Z" fill="#712E19"/>
<path d="M61.1899 38.4901L62.3599 37.3401L62.8999 38.3401C62.3099 37.7001 61.3399 38.9101 61.1899 38.4901Z" fill="#712E19"/>
<path d="M63.1899 38.8301L62.8999 38.3C63.0489 38.4426 63.1502 38.6277 63.1899 38.8301Z" fill="#712E19"/>
<path d="M67.1901 42.12C66.8601 44.12 63.3601 44.7599 62.8601 45.5899C64.0301 43.7799 65.1901 41.8 67.1901 42.12Z" fill="#712E19"/>
<path d="M64.0301 37.6699L65.7001 38.4899L64.8601 39.3199C64.5201 39.1199 63.6601 38.4899 64.0301 37.6699Z" fill="#712E19"/>
<path d="M66.3601 37.6699C66.3601 37.5899 66.6101 37.42 67.0001 37.21C66.8236 37.4089 66.605 37.566 66.3601 37.6699Z" fill="#712E19"/>
<path d="M67 37.2101C67.57 36.5401 67.17 35.6501 67.7 34.8601C70.89 35.2401 68.31 36.4901 67 37.2101Z" fill="#712E19"/>
<path d="M68.03 23.4599L68.86 22.6299V24.6099L68.03 23.4599Z" fill="#712E19"/>
<path d="M74.36 32.54L73.2 33.7C71.87 32.21 71.36 35.03 70.03 34.53L71.19 33.37C70.7 31.88 68.19 32.71 68.03 32.54L68.36 31.71C70.53 30.39 74.7 30.56 74.87 27.71C77.7 28.03 80.87 25.89 82.04 24.9C82.54 24.9 85.54 23.58 85.2 25.73C84.71 26.88 82.37 25.89 82.87 27.73C85.2 28.39 87.54 26.9 89.7 25.73C86.87 28.2 84.21 30.73 80.87 31.35L81.2 32.5C78.2 30.73 76.53 37 74.36 32.54Z" fill="#712E19"/>
<path d="M78.3699 18.6699C74.8699 19.4899 72.7 23.9499 69.7 21.4699C71.7 20.3199 72.03 20.9799 74.36 20.3199L74.0299 19.8199C75.0299 18.8199 75.36 16.6799 77.2 16.6799L76.8699 17.0099L78.3699 18.6699Z" fill="#712E19"/>
<path d="M75.2 34.86C72.7 35.86 74.36 39.3201 71.69 39.6501L72.87 38.49C73.03 37.83 72.36 37.67 72.03 37.34C71.87 37.67 71.03 37.83 71.19 38.49H70.03V37.67C72.36 37.34 73.03 33.54 75.2 34.86Z" fill="#712E19"/>
<path d="M77.2 43.29C79.7 39.82 81.8699 40.64 84.3699 37.67L82.8699 37.34C84.3699 34.86 87.8699 35.6801 90.0299 33.7001L89.7 33.3701C90.88 31.5501 93.5399 33.54 94.3699 32.54C94.3699 34.54 93.87 32.87 92.88 34.54C93.38 34.7 93.2 35.2001 93.2 35.6901C93.0576 35.8255 92.8858 35.926 92.698 35.9838C92.5103 36.0416 92.3116 36.055 92.1178 36.023C91.9239 35.991 91.7402 35.9145 91.5809 35.7995C91.4216 35.6845 91.2912 35.534 91.2 35.36C91.38 37.68 87.54 38.01 85.7 39.36C85.04 38.04 84.37 39.0301 83.7 38.8701L84.04 40.1801C81.87 41.3001 79.2 43.61 77.2 43.29Z" fill="#712E19"/>
<path d="M79.2 290.63L78.03 291.13L77.2 289.81L79.2 290.63Z" fill="#712E19"/>
<path d="M78.8701 15.03L79.1501 16.11L78.3701 16.35L78.8701 15.03Z" fill="#712E19"/>
<path d="M79.1499 16.12L79.5899 15.98C79.4699 16.11 79.3199 16.23 79.1999 16.36L79.1499 16.12Z" fill="#712E19"/>
<path d="M180.91 9.57996C174.57 7.91996 168.57 6.10995 161.73 5.94995C158.036 4.9601 154.208 4.56844 150.39 4.78992V3.95996C138.06 2.95996 125.05 3.95993 113.71 5.11993C112.38 6.93993 109.38 5.27995 108.38 5.94995C105.88 6.10995 103.38 7.75991 101.21 7.59991C96.2101 9.73991 89.0401 10.8999 86.0301 14.3699C83.8352 14.686 81.6777 15.222 79.5901 15.9699C82.2501 13.2899 86.0401 12.1699 89.7001 11.0699C90.3701 10.3999 91.2001 9.24996 92.0401 10.4C92.8801 8.39996 96.0401 8.91996 97.2101 8.39996C99.5401 7.07996 100.71 5.92991 102.87 5.09991C108.22 5.09991 111.38 2.09991 116.87 3.09991C117.87 0.939914 119.21 2.76991 120.38 1.09991C126.04 1.91991 133.88 0.759941 140.05 -0.0600586C143.39 3.23994 148.55 0.439905 152.39 1.5899L149.72 -0.0600586L157.72 1.5899C159.05 3.5899 161.06 1.09992 162.39 1.91992C167.56 1.25992 170.73 5.71995 175.23 3.56995C176.4 4.72995 178.23 4.56994 179.74 5.05994C179.91 6.76994 182.41 8.25996 180.91 9.57996Z" fill="#712E19"/>
<path d="M79.6599 45.2601L79.1599 44.1101C81.6599 41.6301 84.9999 42.46 87.6599 42.79C85.8699 44.77 82.5399 43.7801 79.6599 45.2601Z" fill="#712E19"/>
<path d="M188.91 22.96C188.25 23.79 187.08 23.13 186.41 23.79L187.24 22.96C186.24 19.16 181.24 24.11 182.07 20.32L177.75 20.98L178.07 20.64C177.75 19.82 176.9 18.5 175.74 18.99C173.57 21.31 171.07 17.84 168.07 18.99C167.9 17.99 167.74 15.36 166.07 14.99C165.4 15.49 165.91 16.31 165.74 16.99C163.57 16.49 161.4 12.99 159.74 15.84C156.56 13.03 152.74 16.49 150.39 14.69C142.39 16.33 137.39 8.39999 129.72 11.87C126.369 11.3297 122.936 11.6146 119.72 12.7C115.22 12.04 112.55 15.34 108.38 15.51C106.21 17.51 101.88 16.33 99.21 18.65C94.87 21.29 89.54 21.12 86.38 24.92C83.03 20.8 88.87 21.29 91.2 19.8C94.6585 17.6904 98.2839 15.8676 102.04 14.35C101.972 14.7278 102.014 15.1174 102.161 15.472C102.308 15.8267 102.554 16.1315 102.87 16.35C103.71 16.19 104.71 16.68 105.21 15.86L102.87 14.37C106.21 12.37 112.71 15.86 116.05 11.56C122.05 11.89 126.22 7.55997 132.05 9.90997C134.21 6.90997 139.88 9.58 142.88 8.75C144.05 9.25 144.55 6.93998 145.72 8.41998C151.56 8.25998 159.39 9.90999 164.39 10.74C164.06 10.74 163.56 10.57 163.23 11.07C167.89 13.21 173.39 13.38 177.74 15.53C180.4 16.02 177.56 18.33 178.4 19.53C181.4 19.53 184.4 20.86 187.73 21.02C187.24 22.31 188.58 22.63 188.91 22.96Z" fill="#712E19"/>
<path d="M92.3701 37.6699H93.2001C94.0401 38.4899 95.0401 39.3199 95.2001 40.4799C93.2001 41.2999 92.2001 39.8199 90.0201 40.8099C89.8701 38.8299 93.2001 38.8299 92.3701 37.6699Z" fill="#712E19"/>
<path d="M90.0299 297.73L92.8799 299.06H91.7099C90.8799 299.06 89.5399 298.89 90.0299 297.73Z" fill="#712E19"/>
<path d="M98.3699 21.8C96.0399 23.29 92.8799 25.4401 90.8799 24.9401L98.3699 21.8Z" fill="#712E19"/>
<path d="M97.2101 35.6799V36.5099C96.3701 36.6799 95.0401 37.9999 94.3701 36.8399L97.2101 35.6799Z" fill="#712E19"/>
<path d="M95.7 299.72V299.39L96.87 299.72H95.7Z" fill="#712E19"/>
<path d="M101.21 300.54C102.55 303.18 105.05 300.22 106.88 301.7C104.71 303.7 100.88 301.54 98.8799 300.54C99.7099 300.22 100.04 301.21 101.21 300.54Z" fill="#712E19"/>
<path d="M99.7101 21.4701C99.5401 20.9801 100.37 20.6401 100.88 20.6401V21.4701H99.7101Z" fill="#712E19"/>
<path d="M100.88 31.7101C103.05 31.7101 104.88 29.9001 106.88 30.5601C105.013 31.4546 102.946 31.8508 100.88 31.7101Z" fill="#712E19"/>
<path d="M103.71 28.2399L102.87 26.9199C104.05 26.5999 105.21 27.5799 105.71 28.2399C104.21 28.5799 102.37 30.5599 101.21 29.7299L103.71 28.2399Z" fill="#712E19"/>
<path d="M107.21 26.9199C110.38 25.1099 113.38 25.5999 116.38 24.9199C113.71 26.4299 109.55 26.4299 107.21 26.9199Z" fill="#712E19"/>
<path d="M111.21 303.36C110.71 303.52 110.38 302.86 110.04 302.52L111.71 303.02L111.21 303.36Z" fill="#712E19"/>
<path d="M118.05 38.49H114.38C115.88 38.66 117.04 36.49 118.38 37.67C118.22 38 117.88 38.17 118.05 38.49Z" fill="#712E19"/>
<path d="M118.88 30.23L116.87 31.39L114.88 30.56L118.88 30.23Z" fill="#712E19"/>
<path d="M116.05 294.59H117.72C117.38 295.42 116.55 294.93 116.05 295.09V294.59Z" fill="#712E19"/>
<path d="M118.05 24.6099C118.55 24.1099 118.39 22.47 119.72 22.96C120.72 24.96 122.05 22.63 123.72 23.46C121.55 23.29 119.88 25.4399 118.05 24.6099Z" fill="#712E19"/>
<path d="M121.72 31.71V32.21C121.036 32.1464 120.347 32.26 119.72 32.5399L121.72 31.71Z" fill="#712E19"/>
<path d="M203.86 278.3C204.442 277.911 205.057 277.576 205.7 277.3C205.155 277.746 204.531 278.086 203.86 278.3Z" fill="#712E19"/>
<path d="M209.76 275.59L208.42 276.74C207.485 276.727 206.559 276.911 205.7 277.28C207.02 276.3 208.23 275.12 209.76 275.59Z" fill="#712E19"/>
<path d="M138.38 292.27C139.89 292.12 141.89 290.79 142.89 291.78L143.22 289.78C144.89 292.92 147.06 288.95 149.73 290.28C152.9 288.79 155.9 289.95 159.73 287.8C165.06 290.8 169.06 284.33 174.4 288.29C176.06 288.13 178.9 285.65 180.4 286.64C187.23 284.17 195.74 280.86 202.9 278.38C203.237 278.403 203.575 278.369 203.9 278.28C200.99 280.2 198.41 283.14 194.45 282.35C184.772 286.747 174.578 289.909 164.11 291.76C161.89 293.02 159.11 291.17 157.95 293.35C156.47 292.54 154.58 293.74 153.77 293.74C146.1 293.91 137.09 296.89 128.43 295.74C125.43 296.57 122.43 296.9 120.09 296.24C124.05 290.12 132.39 294.76 138.38 292.27Z" fill="#712E19"/>
<path d="M157.73 293.76C157.782 293.627 157.842 293.496 157.91 293.37C157.96 293.37 158.01 293.37 158.07 293.44L157.73 293.76Z" fill="#712E19"/>
<path d="M126.39 33.7C126.322 34.0778 126.364 34.4673 126.511 34.822C126.658 35.1766 126.904 35.4814 127.22 35.7L122.38 36.5299L123.72 34.2199L124.05 34.5499C124.89 34.5299 125.89 34.69 126.39 33.7Z" fill="#712E19"/>
<path d="M126.88 30.89C126.88 31.71 123.88 31.22 123.72 31.39C124.72 31.22 125.89 29.9 126.88 30.89Z" fill="#712E19"/>
<path d="M124.38 22.96H126.38L126.04 23.46C125.55 23.29 124.38 23.79 124.38 22.96Z" fill="#712E19"/>
<path d="M129.22 303.36H128.05V303.02L129.22 303.36Z" fill="#712E19"/>
<path d="M130.05 30.8901L129.22 30.5601L131.22 30.8901H130.05Z" fill="#712E19"/>
<path d="M134.06 22.3101H130.89V22.6301H134.06V22.3101Z" fill="#712E19"/>
<path d="M133.72 34.2001L132.06 32.8701C132.89 32.7101 134.06 33.0401 133.72 34.2001Z" fill="#712E19"/>
<path d="M136.39 33.3699H134.88V32.8799L136.39 33.3699Z" fill="#712E19"/>
<path d="M160.4 23.46V24.6099C153.4 23.7899 145.89 22.9599 139.23 22.3099C141.06 20.6399 142.73 20.1499 144.89 21.7999C144.56 19.1599 146.89 20.32 148.06 20.32L146.06 21.4699C149.06 22.7999 150.9 19.33 153.23 22.63C155.56 22.12 158.07 23.29 160.4 23.46Z" fill="#712E19"/>
<path d="M141.24 25.8201C140.557 25.8038 139.881 25.6754 139.24 25.4401C139.579 25.3376 139.938 25.3187 140.287 25.3849C140.635 25.451 140.962 25.6003 141.24 25.8201Z" fill="#712E19"/>
<path d="M150.9 25.7701C153.07 27.2501 157.4 25.7701 158.07 28.5801C155.23 29.4001 153.23 26.9201 150.07 27.7501C149.24 27.5801 150.58 26.1001 148.9 26.6001C148.07 28.6001 145.9 25.9301 144.4 27.4201C142.77 27.7501 142.2 26.5201 141.25 25.8201C144.37 26.0001 148.18 24.6901 150.9 25.7701Z" fill="#712E19"/>
<path d="M141.72 29.4099L142.88 29.7299H141.72V29.4099Z" fill="#712E19"/>
<path d="M152.9 30.23C152.4 30.39 151.73 31.39 151.23 30.56V30.23H152.9Z" fill="#712E19"/>
<path d="M154.06 299.39L153.23 300.22L151.73 299.39H154.06Z" fill="#712E19"/>
<path d="M161.24 31.7102C160.4 31.5502 159.24 32.0501 158.4 31.3901C159.23 30.8901 160.9 30.5602 161.24 31.7102Z" fill="#712E19"/>
<path d="M172.07 31.7101C168.24 30.2301 163.9 29.9001 159.74 28.9101C163.57 27.9201 168.74 29.7301 172.07 31.7101Z" fill="#712E19"/>
<path d="M180.07 37.3399L173.24 36.1799C170.07 33.1799 165.91 34.18 162.4 31.71C168.9 32.05 175.07 35.5199 180.07 37.3399Z" fill="#712E19"/>
<path d="M199.75 34.5299C198.91 36.3399 200.42 38.6599 202.08 39.3199C198.382 37.7007 194.804 35.8227 191.37 33.6999C194.94 33.4399 196.12 35.9899 199.75 34.5299Z" fill="#712E19"/>
<path d="M176.07 28.5801C175.07 25.2801 170.74 26.9201 168.9 25.7701C167.23 24.2801 164.9 27.4201 164.07 24.6101C165.23 24.4501 166.4 23.9501 166.4 22.6101C167.9 23.7701 171.4 21.6101 171.24 24.6101C173.57 23.6101 175.9 28.4101 178.07 24.9401C179.41 25.7701 177.07 26.6001 178.41 27.4201C179.41 26.6001 180.91 27.0901 181.74 27.7501C182.39 30.7501 188.81 31.2101 191.04 33.4801C190.72 33.2701 190.39 33.0901 190.04 32.8701C184.57 32.8701 181.91 28.2401 176.07 28.5801Z" fill="#712E19"/>
<path d="M191.04 33.48L191.37 33.7H191.25L191.04 33.48Z" fill="#712E19"/>
<path d="M166.07 36.51L168.07 36.84C167.4 38 166.74 36.68 166.07 36.51Z" fill="#712E19"/>
<path d="M169.73 10.74V11.9L168.07 11.07L169.73 10.74Z" fill="#712E19"/>
<path d="M172.41 295.42C172.07 296.58 170.57 296.25 170.07 296.25C170.24 295.26 172.41 295.42 172.41 295.42Z" fill="#712E19"/>
<path d="M171.24 37.6699L173.73 38.4899H172.9L171.24 37.6699Z" fill="#712E19"/>
<path d="M184.91 36.8401C182.74 35.8401 180.91 35.5201 179.24 34.2001C177.75 32.5401 173.4 35.0301 173.74 31.3901C178.91 32.0501 182.57 36.1801 187.74 36.8401C190.74 38.6601 194.08 40.8401 196.92 42.4601C195.08 42.3001 193.25 39.4601 190.92 40.8101C191.59 41.9701 192.76 42.8101 193.26 44.1101C191.26 44.1101 189.59 42.4601 188.42 41.3001L189.26 40.1401C188.08 38.4901 185.75 38.4901 184.91 36.8401Z" fill="#712E19"/>
<path d="M174.9 39.3201L176.07 40.8101H175.24C174.57 40.6401 175.07 39.8201 174.9 39.3201Z" fill="#712E19"/>
<path d="M179.75 40.8101C182.57 42.1301 186.41 43.95 187.75 46.1C183.266 45.0672 179.198 42.704 176.08 39.3201C177.24 39.8201 179.07 39.6501 179.75 40.8101Z" fill="#712E19"/>
<path d="M176.41 284.68H178.91L177.24 285.84C177.07 285.51 176.41 285.34 176.41 284.68Z" fill="#712E19"/>
<path d="M178.07 13.54C179.41 12.39 180.57 14.37 182.07 14.37L181.24 15.53C179.57 15.86 178.91 14.37 178.07 13.54Z" fill="#712E19"/>
<path d="M182.41 18.3301C181.07 18.0101 181.58 17.1801 180.91 16.3301C184.24 17.8201 188.75 18.3301 191.25 20.3301C189.945 20.4956 188.619 20.3579 187.375 19.9278C186.132 19.4977 185.004 18.7867 184.08 17.85C183.58 18.01 182.74 17.5101 182.41 18.3301Z" fill="#712E19"/>
<path d="M186.91 40.1499H184.91L181.74 37.6699L186.91 40.1499Z" fill="#712E19"/>
<path d="M190.08 10.7401L189.74 11.8902L188.91 11.0702L187.24 12.3902L186.07 9.58016C185.24 10.5802 184.41 9.25016 183.75 9.08016C186.74 5.95016 187.08 11.5601 190.08 10.7401Z" fill="#712E19"/>
<path d="M194.41 14.71L190.91 13.05C190.91 11.73 192.09 10.9 193.74 10.74C193.58 12.88 197.25 11.23 196.92 13.87L198.92 12.72C197.92 13.54 199.09 14.37 199.26 15.03C200.43 15.36 201.26 14.71 202.09 14.37C203.59 14.71 203.43 15.86 203.26 16.68C205.956 16.8725 208.576 17.6615 210.93 18.99L210.43 19.49L214.93 24.28C210.6 21.97 203.59 19.33 200.1 15.86C197.92 16.35 196.59 13.54 194.41 14.71Z" fill="#712E19"/>
<path d="M215.45 38.4001L214.92 38.8301C215.05 38.4601 215.24 38.3601 215.45 38.4001Z" fill="#712E19"/>
<path d="M221.76 38.4899C221.87 38.5414 221.964 38.6233 222.029 38.7261C222.095 38.8288 222.13 38.9481 222.13 39.0699C222.13 39.1918 222.095 39.311 222.029 39.4138C221.964 39.5165 221.87 39.5985 221.76 39.65C221.76 37 218.42 38.4899 217.76 36.8399L218.11 36.5099C216.93 36.5099 215.93 34.8599 214.93 35.6799L218.11 38.83C217.22 39.94 216.11 38.53 215.46 38.4L215.77 38.1699C212.6 37.4999 214.93 34.5299 213.77 33.3699C212.26 34.1999 210.77 32.05 209.26 33.7C207.6 33.37 207.93 31.6999 207.26 30.5599L206.44 31.39L205.26 30.2299C204.26 30.7299 201.26 27.58 201.26 30.89C200.43 31.05 200.1 29.3999 199.26 30.5599C199.376 30.0742 199.624 29.6302 199.977 29.2771C200.33 28.924 200.774 28.6758 201.26 28.5599C199.93 28.5599 199.6 26.9 198.43 27.4C196.09 26.58 197.1 24.76 196.43 23.4C196.09 23.4 195.6 23.2299 195.26 23.7299L195.76 24.2199C193.09 26.3699 193.92 21.7399 192.1 20.9199C197.59 22.0699 200.6 25.0499 206.1 27.3599C206.26 29.0199 208.6 28.8499 209.77 29.6699C210.43 29.3399 209.93 28.3499 210.09 27.6699H210.93C211.23 27.903 211.465 28.2094 211.612 28.5598C211.76 28.9101 211.814 29.2925 211.77 29.6699C211.522 29.624 211.267 29.6463 211.031 29.7344C210.795 29.8224 210.587 29.973 210.43 30.1699C212.09 32.8099 217.6 33.1699 216.93 34.7999L217.26 34.4699C217.43 34.1399 217.09 33.97 216.93 33.64C218.77 34.3 218.93 35.46 220.43 36.45L221.26 35.6199L223.26 37.6199C222.26 37.7799 221.59 36.4599 220.42 37.2899L221.76 38.4899Z" fill="#712E19"/>
<path d="M197.25 28.2401C195.92 29.4001 194.58 27.0901 193.74 26.9201C195.08 25.7701 196.08 27.7501 197.25 28.2401Z" fill="#712E19"/>
<path d="M194.91 48.74L196.91 50.06H195.75C195.42 49.56 194.75 49.4 194.91 48.74Z" fill="#712E19"/>
<path d="M196.92 52.04L197.74 50.72C198.74 50.72 199.42 53.2 200.42 52.04L202.08 54.04L201.25 54.7C199.92 53.7 197.92 53.86 196.92 52.04Z" fill="#712E19"/>
<path d="M198.91 20.98H197.74V21.47H198.91V20.98Z" fill="#712E19"/>
<path d="M200.42 47.58C199.59 46.75 200.42 45.58 200.91 44.77L202.42 46.12C200.59 46.12 201.42 48.76 200.09 48.76C199.08 48.12 200.09 48.12 200.42 47.58Z" fill="#712E19"/>
<path d="M200.91 237.12C200.91 237.62 200.25 237.95 199.75 237.95V237.12H200.91Z" fill="#712E19"/>
<path d="M204.08 233.62C203.08 233.95 203.58 234.95 202.91 235.62C202.08 234.95 202.91 233.3 204.08 233.62Z" fill="#712E19"/>
<path d="M204.42 23.79V24.61L202.91 23.79H204.42Z" fill="#712E19"/>
<path d="M203.76 46.75L207.76 49.24H206.43C206.43 47.25 203.76 48.12 203.76 46.75Z" fill="#712E19"/>
<path d="M205.75 52.04H204.42C204.25 51.55 203.58 51.38 203.76 50.72L205.75 52.04Z" fill="#712E19"/>
<path d="M209.76 45.26L206.43 42.4601C208.09 42.1201 209.42 43.95 209.76 45.26Z" fill="#712E19"/>
<path d="M207.25 51.55C208.76 52.55 209.25 53.8601 211.25 54.0201C209.08 53.7001 211.08 55.6701 209.25 55.5101C207.59 54.6801 207.92 52.86 207.25 51.55Z" fill="#712E19"/>
<path d="M208.09 58.6501L209.4 59.9501C208.75 59.6201 207.97 59.5701 208.09 58.6501Z" fill="#712E19"/>
<path d="M210.08 60.6299L209.4 59.95C209.706 60.0805 209.949 60.3241 210.08 60.6299Z" fill="#712E19"/>
<path d="M211.25 37.6701C210.59 36.5101 209.42 36.6701 208.42 36.1801C209.92 33.5401 210.76 37.67 212.08 36.84L211.25 37.6701Z" fill="#712E19"/>
<path d="M210.92 57.1201C211.76 56.1201 212.92 57.6201 213.25 58.2801C212.25 58.6501 211.59 57.8201 210.92 57.1201Z" fill="#712E19"/>
<path d="M214.09 63.9299C214.92 66.2499 217.25 66.5799 218.42 69.0599C215.59 69.3899 214.42 65.5899 214.09 63.9299Z" fill="#712E19"/>
<path d="M217.75 49.5599C220.25 49.5599 218.92 52.04 219.25 52.71C216.59 52.04 215.92 50.5599 214.09 48.4099C215.25 48.7399 216.26 50.7199 217.75 49.5599Z" fill="#712E19"/>
<path d="M218.92 58.32C217.59 59.64 215.76 57.49 214.09 57.49C215.92 56.17 217.08 58.48 218.92 58.32Z" fill="#712E19"/>
<path d="M216.08 272.46H214.41V272.79H216.08V272.46Z" fill="#712E19"/>
<path d="M237.26 40.1199L234.43 37.65L234.09 38.15C234.43 35.15 230.27 37.4799 230.43 34.5099C229.43 33.3499 225.59 33.8499 226.93 31.3699L225.26 29.71C225.76 26.71 220.42 27.71 218.92 25.71C218.59 25.87 217.75 26.5399 218.1 27.3599C219.92 29.0199 222.59 28.85 223.26 31.65C226.43 31.82 226.09 35.46 229.26 35.65C230.09 38.14 232.93 38.96 233.26 40.45C235.77 39.32 235.77 42.6299 237.26 40.1199ZM222.92 29.7299V28.9099L224.09 29.7299H222.92Z" fill="#712E19"/>
<path d="M224.09 63.1199C224.26 63.4499 223.93 63.6099 223.76 63.9399C222.92 64.1099 222.59 63.4499 222.09 63.1199C221.09 63.4499 219.09 63.9399 219.76 65.1199C218.76 64.4499 218.59 63.4599 218.1 62.6299C220.59 59.9699 221.09 62.9499 224.09 63.1199Z" fill="#712E19"/>
<path d="M221.25 54.3501C222.76 56.8401 225.09 54.5201 226.43 56.3501C226.09 56.3501 225.59 56.1801 225.26 56.6801C226.93 58.4901 227.93 63.1201 231.76 61.4701V64.2801C227.43 65.9301 228.92 60.2801 224.93 59.1601C224.93 56.5001 221.59 56.5001 221.25 54.3501Z" fill="#712E19"/>
<path d="M222.09 73.8499C223.26 73.0199 223.09 75.1699 223.76 75.8499C222.59 75.9999 222.59 74.3499 222.09 73.8499Z" fill="#712E19"/>
<path d="M223.76 68.5601V69.3901H222.92C222.76 69.2201 222.43 68.8901 222.43 68.5601H223.76Z" fill="#712E19"/>
<path d="M225.26 67.9101L226.93 67.4001V68.2301C226.43 68.1201 225.26 68.5601 225.26 67.9101Z" fill="#712E19"/>
<path d="M227.76 72.2C229.93 74.35 228.26 77.1999 229.26 79.2999C225.93 79.1399 229.1 75.6699 226.43 74.1799L228.1 73.3599L227.76 72.2Z" fill="#712E19"/>
<path d="M231.76 66.25H232.43V67.4C232.26 67.12 231.6 66.91 231.76 66.25Z" fill="#712E19"/>
<path d="M234.94 69.88H234.43C234.09 69.22 233.26 68.88 233.26 68.23C233.492 68.1343 233.747 68.1089 233.993 68.157C234.239 68.205 234.466 68.3243 234.645 68.5001C234.824 68.6759 234.947 68.9004 235 69.1457C235.052 69.3911 235.031 69.6464 234.94 69.88Z" fill="#712E19"/>
<path d="M233.77 74.1799V75.83C233.619 75.7514 233.493 75.633 233.404 75.4875C233.316 75.342 233.269 75.1751 233.269 75.0049C233.269 74.8348 233.316 74.6679 233.404 74.5224C233.493 74.3769 233.619 74.2585 233.77 74.1799Z" fill="#712E19"/>
<path d="M238.43 74.51C236.27 74.35 236.43 71.87 235.26 70.51L238.43 74.51Z" fill="#712E19"/>
<path d="M242.94 49.2401C243.26 46.1001 239.44 49.0701 238.94 46.4301L239.78 45.6001C239.11 44.4401 239.28 42.9501 237.78 42.1301L238.95 41.6301C239.95 42.4601 242.45 43.6301 240.95 45.2601C242.29 45.6001 242.13 47.7401 243.79 46.4301C243.62 48.5801 246.96 48.2401 245.79 50.7201C244.93 49.5601 243.94 49.7301 242.94 49.2401Z" fill="#712E19"/>
<path d="M238.43 60.3101L240.09 61.4601C240.09 63.4601 244.77 65.2601 241.26 66.5801L240.43 65.92C242.94 62.61 237.93 63.2801 238.43 60.3101Z" fill="#712E19"/>
<path d="M240.09 78.1201C239.44 77.4601 238.43 76.8 238.93 75.8L241.26 76.1301L240.09 78.1201Z" fill="#712E19"/>
<path d="M240.93 87.73H239.26V88.06H240.93V87.73Z" fill="#712E19"/>
<path d="M241.26 80.13L240.93 78.98L241.76 80.13H241.26Z" fill="#712E19"/>
<path d="M242.43 92.85L241.76 92.03L242.93 92.36L242.43 92.85Z" fill="#712E19"/>
<path d="M242.94 250.97L246.44 249.82L243.26 251.47L244.1 252.13H243.26C243.26 251.8 243.43 251.31 242.94 250.97Z" fill="#712E19"/>
<path d="M249.77 89.21L247.77 91.7C246.1 89.7 245.94 87.4 244.93 85.25L249.77 89.21Z" fill="#712E19"/>
<path d="M249.27 56.0099C249.52 56.7399 248.77 58.0999 249.03 59.0899C247.659 57.3489 246.662 55.3438 246.1 53.2H246.44C247.27 52.71 246.44 52.0399 246.1 51.5499L247.27 51.21C250.16 54.2453 252.73 57.5694 254.94 61.1299C251.43 61.6199 252.93 56.4999 249.27 56.0099Z" fill="#712E19"/>
<path d="M249.03 59.1201C249.28 59.4201 249.49 59.7201 249.77 60.0001C249.586 59.922 249.423 59.8016 249.294 59.6487C249.166 59.4958 249.075 59.3147 249.03 59.1201Z" fill="#712E19"/>
<path d="M249.27 74.5101H248.43C246.94 73.2001 248.1 72.2 246.1 71.04C247.44 71.37 248.27 73.3601 249.27 74.5101Z" fill="#712E19"/>
<path d="M248.1 102.27L246.1 102.76V102.27C246.77 102.43 247.94 102.12 248.1 102.27Z" fill="#712E19"/>
<path d="M248.43 107.06C246.59 107.39 247.94 105.9 248.1 105.06C248.94 105.57 248.43 106.4 248.43 107.06Z" fill="#712E19"/>
<path d="M247.77 183.23C248.43 182.23 249.6 183.23 249.77 184.06L247.77 183.23Z" fill="#712E19"/>
<path d="M249.77 190.01H248.43V190.34H249.77V190.01Z" fill="#712E19"/>
<path d="M252.44 80.1199L249.27 79.2899C251.11 79.4699 251.6 77.8199 252.44 80.1199Z" fill="#712E19"/>
<path d="M249.27 108.72C249.68 108.96 249.68 109.42 249.68 109.87L249.27 108.72Z" fill="#712E19"/>
<path d="M249.66 109.87L250.09 111.03C249.66 110.78 249.66 110.32 249.66 109.87Z" fill="#712E19"/>
<path d="M250.11 188.69L249.77 187.2H250.43C250.43 187.69 250.94 188.86 250.11 188.69Z" fill="#712E19"/>
<path d="M252.93 97.1199L253.27 99.5999L252.1 98.7699L251.27 100.25C251.27 99.2499 250.43 98.4399 250.11 97.6099C251.11 98.1199 251.94 96.9799 252.93 97.1199Z" fill="#712E19"/>
<path d="M251.77 120.94V119.87C251.857 120.035 251.902 120.219 251.902 120.405C251.902 120.591 251.857 120.775 251.77 120.94Z" fill="#712E19"/>
<path d="M251.77 118.12V119.86C251.6 119.574 251.356 119.338 251.064 119.178C250.772 119.018 250.443 118.939 250.11 118.95L251.77 118.12Z" fill="#712E19"/>
<path d="M250.94 175.63C251.3 173.862 252.101 172.214 253.27 170.84C251.94 172.99 254.77 175.63 250.94 175.63Z" fill="#712E19"/>
<path d="M252.44 103.12C252.1 106.12 256.77 107.26 256.44 109.57C254.44 109.24 255.44 111.72 254.44 112.71L254.1 112.21C255.44 109.04 251.94 106.12 252.44 103.12Z" fill="#712E19"/>
<path d="M253.77 164.56C257.94 163.07 253.77 157.62 257.27 155.48L258.11 157.48L260.11 156.65C262.77 158.65 258.44 159.29 258.94 161.11C257.94 159.96 260.44 158.96 259.27 157.81C258.77 157.97 257.94 157.48 257.77 158.31C256.94 160.12 255.6 162.6 256.94 164.25L254.44 166.56C254.27 165.88 253.43 165.38 253.77 164.56Z" fill="#712E19"/>
<path d="M255.77 167.37L254.1 170.17L253.77 169.68C255.6 168.85 252.93 166.71 255.77 167.37Z" fill="#712E19"/>
<path d="M256.94 174.47L254.1 176.79C254.27 175.63 255.11 173.65 256.94 174.47Z" fill="#712E19"/>
<path d="M254.44 105.57V104.25L254.93 105.57H254.44Z" fill="#712E19"/>
<path d="M254.44 113.84C256.11 112.52 255.77 115.98 257.77 114.99C258.27 116.81 260.61 119.78 258.11 120.99C253.27 121.43 256.45 116.81 254.44 113.84Z" fill="#712E19"/>
<path d="M254.94 238.25V237.92H257.27C256.45 238.12 255.77 239.41 254.94 238.25Z" fill="#712E19"/>
<path d="M255.27 63.1201H257.27V64.6101H256.45C256.11 64.1201 254.77 64.1201 255.27 63.1201Z" fill="#712E19"/>
<path d="M260.94 170.84L260.44 171.34C259.94 171.51 259.77 170.84 259.27 170.51L258.11 171.66C258.94 174.47 256.45 171.83 255.27 172.83L256.45 170.17C257.44 171 260.27 168.36 260.94 170.84Z" fill="#712E19"/>
<path d="M256.94 88.3902V90.0401H256.45C255.93 89.7201 255.93 88.2302 256.94 88.3902Z" fill="#712E19"/>
<path d="M257.77 124.58C257.6 125.24 258.11 126.06 257.27 126.58C255.77 126.06 256.77 123.74 257.77 124.58Z" fill="#712E19"/>
<path d="M257.27 147.54C256.77 145.06 257.27 143.54 257.77 140.77C259.11 144.23 257.27 144.12 257.27 147.54Z" fill="#712E19"/>
<path d="M256.94 150.35C256.94 148.7 258.77 148.35 260.11 148.35C261.44 148.18 260.44 150.49 260.11 151.49C259.27 151.65 259.6 150.67 258.94 150.33L256.94 151.49V150.35Z" fill="#712E19"/>
<path d="M257.77 139.28L257.27 135.28C259.94 135.81 257.44 137.46 257.77 139.28Z" fill="#712E19"/>
<path d="M259.27 163.12V164.94H258.11C256.94 164.23 258.27 162.74 259.27 163.12Z" fill="#712E19"/>
<path d="M258.94 94.01V96.32C258.27 95.82 258.6 94.99 258.11 94.32L258.94 94.01Z" fill="#712E19"/>
<path d="M264.11 111.85C260.25 110.85 262.05 107.68 262.11 104.85L262.44 105.85C262.77 107.56 265.45 110.53 264.11 111.85Z" fill="#712E19"/>
<path d="M262.11 104.89L261.28 102.27C261.584 102.631 261.814 103.048 261.956 103.497C262.099 103.947 262.151 104.42 262.11 104.89Z" fill="#712E19"/>
<path d="M263.77 228.34H262.44L261.77 228.01L263.77 228.34Z" fill="#712E19"/>
<path d="M262.94 157.79C262.61 157.95 262.44 157.62 262.11 157.46L262.94 156.63V157.79Z" fill="#712E19"/>
<path d="M264.95 117.8C266.1 117.63 265.95 119.29 265.28 119.8C264.66 119.46 265.11 118.46 264.95 117.8Z" fill="#712E19"/>
<path d="M264.95 123.42L266.1 122.92C265.95 123.59 266.62 123.92 266.44 124.58C265.45 125.12 265.45 123.74 264.95 123.42Z" fill="#712E19"/>
<path d="M266.95 126.06L266.44 127.38C265.78 126.38 265.28 126.38 264.95 125.38L266.95 126.06Z" fill="#712E19"/>
<path d="M267.27 136.8C266.817 136.821 266.365 136.725 265.959 136.522C265.553 136.319 265.206 136.015 264.95 135.64L266.44 135.98L267.27 132.84V136.8Z" fill="#712E19"/>
<path d="M270.11 187.2H268.95V187.53H270.11V187.2Z" fill="#712E19"/>
</g>
<defs>
<clipPath id="clip0_11_1790">
<rect width="278.08" height="303.38" fill="white"/>
</clipPath>
</defs>
</svg>
