<svg width="203" height="187" viewBox="0 0 203 187" fill="none" xmlns="http://www.w3.org/2000/svg">
<path d="M199.66 62.02C198.35 58.5 196.6 55.15 195.07 51.72C193.272 47.8438 190.812 44.3108 187.8 41.28C184.978 38.4368 181.936 35.822 178.7 33.46C175.581 31.1919 172.336 29.1019 168.98 27.2C167.249 26.2849 165.474 25.4572 163.66 24.72C162.062 24.083 160.505 23.3448 159 22.51C157.363 21.5477 155.532 20.9635 153.64 20.8C153.398 20.7786 153.156 20.8461 152.96 20.99C152.577 21.3295 152.213 21.6901 151.87 22.07C151.87 22.44 151.97 22.93 152.04 23.5C151.518 23.6228 151.007 23.7866 150.51 23.99C150.31 24.08 150.07 24.57 150.15 24.69C150.572 25.3001 151.029 25.8845 151.52 26.44C151.08 26.44 150.76 26.51 150.52 26.44C150.15 26.22 149.88 25.82 149.52 25.6C148.89 25.24 148.19 25.01 147.52 24.66C146.18 23.93 144.87 23.14 143.52 22.4C143.33 22.3 142.96 22.2 142.91 22.28C142.17 23.28 141.04 23.28 139.97 23.6C139.626 23.7307 139.258 23.7832 138.891 23.7538C138.524 23.7244 138.169 23.6138 137.85 23.43C137.03 22.93 136.23 22.43 135.43 21.88H135.27C134.56 21.45 133.85 20.66 133.14 20.68C131.7 20.68 130.6 19.93 129.33 19.59C128.306 19.4208 127.265 19.3771 126.23 19.46C126.08 19.46 125.91 19.7 125.79 19.86C125.67 20.02 125.9 20.18 125.98 20.19C126.98 20.31 127.98 20.39 128.98 20.5C129.291 20.5191 129.599 20.5693 129.9 20.65C130.75 20.92 131.6 21.22 132.43 21.54C132.759 21.6312 133.057 21.8111 133.29 22.06C133.85 22.84 134.29 23.67 134.84 24.46L133.56 24.89C133.42 24.38 132.97 24.58 132.66 24.52C132.35 24.46 131.85 24.58 131.52 24.43C130.569 23.7821 129.565 23.2135 128.52 22.73C128.087 22.552 127.696 22.2864 127.37 21.95C127.098 21.6735 126.792 21.4317 126.46 21.23C124.83 20.33 123.15 19.54 121.46 18.72C121.273 18.62 121.058 18.5881 120.85 18.63C119.22 19.55 117.95 18.26 116.52 17.93H118.15C118.15 17.82 118.15 17.72 118.15 17.62C117.15 17.62 116.15 17.55 115.2 17.62C114.66 17.62 114.01 18.05 113.62 17.85C113.23 17.65 113.01 16.92 112.75 16.49L114.57 14.49C114.186 13.8607 113.707 13.2941 113.15 12.81C111.78 11.89 110.29 11.14 108.87 10.31C108.73 10.23 108.66 10.03 108.53 9.96003C108.107 9.69097 107.645 9.4886 107.16 9.36003C106.188 9.23969 105.21 9.17959 104.23 9.18004C103.459 9.12983 102.686 9.20754 101.94 9.41003C101.447 9.52446 100.934 9.52446 100.44 9.41003C99.6201 9.41003 98.6302 9.13004 98.0002 9.50004C96.6596 10.2015 95.0963 10.3452 93.6502 9.90004C92.5002 9.60004 91.3402 9.01003 90.0902 8.77003C89.6059 8.60819 89.1452 8.3829 88.7202 8.10003C88.5102 8.02003 88.2801 8.02003 88.0701 7.96003C87.6801 7.84003 87.2801 7.55003 86.9401 7.61003C85.0431 8.04302 83.0606 7.90737 81.2402 7.22003C81.1602 7.22003 81.0201 7.32003 80.8001 7.44003L81.6202 7.82004L80.9602 8.43004V8.14004C80.0941 8.09511 79.2263 8.09511 78.3602 8.14004C77.4102 8.21004 76.4602 8.41003 75.1602 8.61003C75.5902 7.86003 75.8502 7.43003 76.0902 6.99003C76.1327 6.93026 76.1695 6.86665 76.2001 6.80003L73.7702 6.03004C75.3602 5.41004 76.6402 4.51004 78.2802 5.03004C78.4702 5.09004 78.8002 5.15003 78.8302 5.10003C79.2002 4.32003 79.5702 4.93003 80.0102 4.99003C80.6702 5.07003 81.2802 6.09003 82.0102 5.21003C81.8502 4.90003 81.6902 4.62003 81.5302 4.33003L81.6801 3.99003L87.7502 4.99003C86.6302 3.55003 84.7502 4.08003 83.6002 3.24003C83.6002 3.13003 83.6002 3.01003 83.6502 2.91003L90.1602 3.70004C86.8902 1.93004 83.5701 2.14003 80.3101 3.27003L79.2001 2.92004H79.0802L78.6202 3.02003L78.5402 3.18004C78.4302 3.27004 78.2602 3.45004 78.2202 3.43004C77.3902 2.89004 76.2202 4.08003 75.5102 2.85003L75.2802 3.05003L75.5302 4.10003L72.8602 4.03004C72.8602 4.03004 72.6902 4.33004 72.5302 4.67004L71.0002 3.79004L74.1602 3.24003L70.9301 2.80003L71.8201 2.40004C70.3869 1.72622 68.9063 1.15804 67.3902 0.70004C61.7602 -0.53996 56.5201 0.830039 51.5701 3.48004C48.8001 4.96004 46.1302 6.63004 43.4202 8.23004C43.4202 8.23004 43.3502 8.32004 43.2902 8.39004L43.6402 8.68004C42.9302 8.74004 42.1702 8.83003 41.4202 8.91003L41.6302 8.21003C40.9991 8.82032 40.3311 9.39139 39.6302 9.92004C38.6302 10.54 37.6302 11.01 36.6302 11.61C34.9802 12.61 33.3302 13.66 31.7102 14.71C30.7102 15.38 29.6402 16.07 28.7102 16.83C27.5302 17.75 26.4202 18.76 25.2502 19.7C24.8134 20.0121 24.3594 20.2992 23.8902 20.56C23.7302 20.72 23.5502 20.89 23.3802 21.04C23.6902 22.2 22.8602 22.68 22.0802 23.17C21.8202 23.33 21.5302 23.44 21.2402 23.58L21.0002 23.65L20.0002 24.1C20.5502 24.92 19.7001 25.2 19.3201 25.56C18.6233 26.1682 17.8921 26.7358 17.1302 27.26L16.4301 28.09C15.7101 29.29 15.0102 30.51 14.2402 31.68C13.3984 33.0752 12.4629 34.4116 11.4401 35.68C10.2201 37.07 10.2401 38.88 9.44014 40.41L8.70015 42.98C8.57015 43.33 8.42013 43.68 8.31013 44.04C8.13013 44.63 8.00023 45.26 7.79023 45.83C7.79023 45.97 7.42017 46 7.22017 46.08C7.37602 46.5405 7.45374 47.0239 7.45015 47.51C7.13939 49.3992 6.69498 51.2638 6.12019 53.09C5.73019 54.18 5.39019 55.46 4.12019 56.09C4.07534 56.1502 4.03522 56.2137 4.00019 56.28L4.37019 57.21L3.89021 57.09C3.97021 58.04 4.04019 58.93 4.12019 59.81C4.25019 59.94 4.51018 60.11 4.48018 60.18C4.2303 61.0254 3.85984 61.8304 3.3802 62.57C3.4579 62.2208 3.5114 61.8666 3.54023 61.51C3.51932 61.242 3.46899 60.9771 3.39021 60.72C3.14749 61.757 2.97707 62.8095 2.8802 63.87C2.8802 64.87 2.61013 65.15 1.68013 64.87C1.54462 64.8448 1.40572 64.8448 1.27021 64.87C1.24944 65.2631 1.24944 65.657 1.27021 66.05C1.35021 67.05 1.45012 68.05 1.55012 68.98C1.67579 69.7813 1.7527 70.5895 1.78022 71.4C1.71836 72.1707 1.60129 72.936 1.43013 73.69C1.37013 73.69 1.18022 73.69 1.15022 73.82C0.860219 74.73 1.15021 75.7 0.770214 76.66C0.550214 77.23 1.02014 78.04 1.07014 78.75C1.26014 81.11 1.23018 83.49 1.61018 85.82C1.87018 87.34 1.90021 88.94 2.77021 90.38C3.13305 91.3077 3.38807 92.2741 3.53022 93.26C3.76022 94.04 4.09024 94.8 4.42024 95.68C4.62024 95.16 4.76018 94.82 4.98018 94.24L5.28022 95.49L4.42024 95.88H5.42024C5.81024 97.18 6.18023 98.37 6.54023 99.56C6.90023 100.75 7.31018 102.22 7.73018 103.56C8.17635 105.425 8.78197 107.249 9.54023 109.01C10.4502 110.76 10.8502 112.74 11.9902 114.41C13.1302 116.08 13.9902 117.98 14.9902 119.74C15.7488 121.056 16.5766 122.331 17.4702 123.56C18.3902 124.8 19.5702 125.85 20.4202 127.12C22.1608 129.623 23.7664 132.216 25.2302 134.89C26.8894 137.811 28.9048 140.515 31.2302 142.94C33.8502 145.81 36.6502 148.52 39.4202 151.25C41.2402 153.06 43.0702 154.87 45.0402 156.5C45.7602 157.1 46.3402 158.26 47.6302 157.89L46.3201 156.4L46.5302 156.18L49.5302 158.57C49.4702 158.64 49.3702 158.78 49.2702 158.92L49.8602 159.47L50.0902 159.62C50.2402 159.81 50.3402 160.06 50.5202 160.17C52.0902 161.11 53.6502 162.06 55.2602 162.94C56.8702 163.82 58.3702 164.53 59.9202 165.33C60.1602 165.45 60.5502 165.63 60.5402 165.76C60.5402 167.34 61.2702 166.15 61.4702 166.13C62.2931 167.038 63.1822 167.884 64.1302 168.66C65.3502 169.51 66.7402 170.09 68.0202 170.86C69.8802 171.97 71.7101 173.15 73.5601 174.28C74.7201 174.98 75.9002 175.67 77.1102 176.28C78.7502 177.12 80.8202 177.51 82.0202 178.77C83.7102 180.51 85.7201 179.95 87.5701 180.32C88.225 180.397 88.8691 180.548 89.4902 180.77C90.3019 181.234 91.1886 181.552 92.1102 181.71C92.8883 181.84 93.6388 182.1 94.3302 182.48C95.9702 183.08 97.6602 183.61 99.3302 184.19C99.4702 184.19 99.5701 184.44 99.6901 184.56L98.9902 185.14C101.61 185.55 103.99 186.02 106.4 186.24C107.11 186.31 107.87 186.29 108.61 186.34C112.494 186.569 116.391 186.401 120.24 185.84C122.98 185.48 125.73 185.09 128.42 184.52C131.89 183.78 135.42 182.98 138.74 181.91C140.88 181.092 142.952 180.109 144.94 178.97C146.06 178.42 147.15 177.79 148.23 177.17C148.72 176.9 149.16 176.33 149.64 176.31C150.47 176.231 151.26 175.919 151.92 175.41C153.16 174.57 154.36 173.64 155.65 172.87C156.65 172.28 157.75 171.94 158.72 171.36C159.782 170.766 160.769 170.048 161.66 169.22C162.49 168.4 164 168.13 163.98 166.52C163.98 166.32 164.71 165.89 164.84 165.97C165.62 166.44 165.84 165.68 166.16 165.4C166.793 164.88 167.394 164.322 167.96 163.73C168.31 163.37 168.56 162.89 168.96 162.58C170.02 161.74 171.17 161 172.19 160.12C172.7 159.69 172.97 158.98 173.45 158.49C174.57 157.31 175.79 156.23 176.89 155.03C177.8 154.03 178.99 153.08 179.34 151.89C179.8 150.3 180.97 149.34 181.81 148.1C182.3 147.37 183.05 146.82 183.57 146.1C184.31 145.1 184.98 144.03 185.64 142.96C188.07 139.01 190.8 135.2 192.14 130.67C192.47 129.58 193.08 128.58 193.51 127.53C194.67 124.72 195.98 121.95 196.89 119.06C198.17 115.06 199.2 110.92 200.23 106.82C200.74 104.82 201.06 102.68 201.37 100.6C201.68 98.5201 201.96 96.18 202.15 93.97C202.37 91.39 202.33 88.77 202.67 86.22C202.999 82.5483 202.838 78.8492 202.19 75.22C201.97 73.52 201.72 71.82 201.37 70.15C200.994 67.4029 200.423 64.686 199.66 62.02ZM56.6602 10.02L59.4401 9.11003C59.7401 9.97003 59.3302 10.46 58.3602 10.41C58.1102 10.41 57.8502 10.26 57.6002 10.26C57.3488 10.2939 57.1011 10.3508 56.8602 10.43C56.8017 10.2895 56.7349 10.1526 56.6602 10.02ZM155.36 99.3801V99.47L155.09 99.3C155.163 99.2903 155.237 99.2903 155.31 99.3C155.31 99.3 155.36 99.34 155.36 99.3801ZM125.36 145.57L125.63 145.07C125.72 145.3 125.77 145.47 125.83 145.63L125.36 145.57ZM130.72 141.42C130.72 141.42 130.72 141.42 130.72 141.36H130.79C130.795 141.383 130.795 141.407 130.79 141.43C130.79 141.43 130.75 141.44 130.75 141.42H130.72ZM140.12 124.42L139.94 124.72C139.94 124.65 139.94 124.57 139.94 124.49L140.12 124.42ZM115.52 22L116.15 21.95H116.24C117.529 21.9987 118.751 22.5348 119.66 23.45C118.71 23.8 118.12 23.45 117.56 22.6C117.33 22.25 116.71 22.15 116.24 21.95H116.15C115.94 21.95 115.65 22.06 115.52 21.95C114.35 22.03 113.2 22.12 112.05 22.18C111.97 22.18 111.88 21.8 111.79 21.57C113.07 21.71 114.36 21.19 115.55 22.01L115.52 22ZM74.0002 7.25004C73.1202 7.54004 72.4902 7.79003 71.8502 7.97003C71.2102 8.15003 70.6302 8.26003 69.9902 8.41003C70.2602 7.29003 72.7702 6.45004 74.0302 7.26004L74.0002 7.25004ZM67.7602 5.88003C67.8302 6.00003 68.2202 5.88003 68.4702 5.88003C68.5108 5.77731 68.5575 5.67713 68.6102 5.58003L67.8802 5.38003C68.444 4.94489 69.1216 4.6822 69.8314 4.62364C70.5411 4.56508 71.2527 4.71316 71.8802 5.05003C71.9827 5.13015 72.0643 5.23379 72.1182 5.35216C72.1722 5.47052 72.1969 5.60013 72.1901 5.73004C72.1301 5.94004 71.8101 6.08004 71.4401 6.07004L71.8101 5.71003C71.7813 5.68093 71.7577 5.6471 71.7402 5.61003C71.5584 5.67565 71.3867 5.76655 71.2302 5.88003C71.0202 6.10003 71.0602 6.72004 70.4702 6.25004C70.3502 6.14004 69.9602 6.25003 69.7502 6.41003C68.9202 6.89003 68.1601 7.49004 67.3101 7.90004C66.6426 8.17078 65.949 8.37185 65.2402 8.50004L62.7502 9.09004L62.9702 10.02L62.7502 10.08L62.2702 8.96003L61.7102 9.79004L59.9501 9.71003C59.9501 9.71003 59.8102 9.42003 59.7102 9.21003C61.0602 8.40003 62.3302 7.63004 63.6202 6.90004C64.3995 6.43544 65.2079 6.02125 66.0402 5.66003C66.6402 5.47003 67.2902 5.12004 67.7902 5.93004L67.7602 5.88003ZM61.7602 5.18004C62.1223 4.93235 62.4574 4.64746 62.7602 4.33003L63.4501 4.91003C62.7201 5.28003 62.0302 5.60003 61.3302 5.91003L63.2502 5.80003C63.2502 5.80003 63.3401 5.62003 63.4401 5.46003C63.4926 5.48956 63.5427 5.52299 63.5902 5.56004C63.4602 5.87004 63.3902 6.38004 63.1702 6.45004C62.1702 6.77004 61.0602 6.99003 60.0002 7.24003C60.0002 7.19003 60.0001 7.03004 60.0701 6.81004L56.7602 8.16003L53.9301 9.62004C53.9301 8.95004 54.9301 8.09004 56.1901 7.73004C58.1501 6.93004 60.0002 6.08003 61.8402 5.19003L61.7602 5.18004ZM23.9202 28.02C25.2202 25.51 27.6602 24.15 29.6402 22.32C31.6202 20.49 33.4802 19.11 35.4202 17.55C35.7602 17.27 36.2101 17.12 36.5701 16.83C34.7001 16.88 33.7602 18.77 31.9802 19.06C32.4142 18.6787 32.8868 18.3436 33.3902 18.06C34.0402 17.73 34.3901 17.35 33.9501 16.51C38.3201 14.58 41.9502 11.4 46.7602 9.67004L45.3602 10.9C47.7202 9.98004 49.2902 8.11004 51.7402 8.00004L51.0102 8.62004L51.1801 8.84004C51.8001 8.07004 53.0702 8.36003 53.7502 7.19003L56.6402 6.68004C56.6353 6.7633 56.6353 6.84678 56.6402 6.93004L51.2302 9.74003C51.2902 9.87003 51.3502 9.99004 51.4202 10.12L52.9501 9.42004C52.9501 10.78 53.7001 10.54 54.5802 10.07C54.9648 9.91635 55.3685 9.81543 55.7802 9.77003L55.9301 10.17C55.2501 10.49 54.5802 10.85 53.8802 11.17C52.3102 11.81 50.7202 12.43 49.1202 13.05C48.7302 13.2 48.3002 13.31 47.8902 13.44C48.7102 14.1 49.2802 13.2 49.9702 13.1C50.4678 12.9755 50.9506 12.7978 51.4102 12.57C51.4542 12.686 51.5041 12.7994 51.5601 12.91C51.1701 13.11 50.7602 13.31 50.3702 13.53C49.4202 14.06 48.6002 14.96 47.3702 14.83C46.9666 14.7236 46.5796 14.5621 46.2202 14.35L45.2802 14.58L46.1702 14.83L43.8402 16.31C43.8402 15.71 43.9002 15.79 44.2602 15.59C44.6202 15.39 45.3702 14.97 44.6602 14.14L42.3502 16.32C42.1802 16.09 42.0102 15.86 41.7102 15.43C41.6202 15.95 41.5901 16.24 41.5501 16.43C41.0922 16.4756 40.6438 16.5902 40.2202 16.77C37.6202 18.39 35.0201 20.03 32.4501 21.77C32.0623 22.087 31.725 22.4613 31.4501 22.88C30.9609 23.3451 30.3387 23.6458 29.6702 23.74C29.4302 23.81 29.2402 24.1 29.0802 24.33C28.7502 24.8 28.5202 25.33 28.1502 25.78C27.5255 26.5063 26.8577 27.1942 26.1502 27.84C25.7598 28.1386 25.3488 28.4093 24.9202 28.65L22.6901 30.1C22.5938 30.1591 22.486 30.1968 22.3739 30.2106C22.2617 30.2244 22.148 30.214 22.0402 30.18C22.2502 29.69 22.4802 29.18 22.7102 28.7L22.9902 29.04C23.374 28.7541 23.7142 28.4139 24.0002 28.03L23.9202 28.02ZM14.5802 36.11C14.4406 35.9271 14.3491 35.7122 14.3138 35.4848C14.2785 35.2574 14.3006 35.0248 14.3781 34.8082C14.4556 34.5915 14.586 34.3977 14.7575 34.2443C14.929 34.091 15.1362 33.9829 15.3602 33.93C15.4702 33.93 15.6602 33.93 15.6602 33.85C15.7302 32.6 17.1102 32.29 17.4902 31.24C18.1502 29.44 19.5802 28.24 20.9602 27.03C21.2202 26.8 21.3102 26.41 21.5402 26.15C21.7533 25.9706 21.9885 25.8193 22.2402 25.7C22.261 25.7529 22.2878 25.8033 22.3201 25.85C19.7501 29.29 17.2102 32.68 14.6602 36.12L14.5802 36.11Z" fill="#F7DBC0"/>
</svg>
