<svg width="180" height="184" viewBox="0 0 180 184" fill="none" xmlns="http://www.w3.org/2000/svg">
<path d="M168.26 120.37C167.675 120.841 167.124 121.352 166.61 121.9C166.235 122.438 165.901 123.003 165.61 123.59C165.212 124.376 164.725 125.114 164.16 125.79C163.172 126.908 162.563 128.31 162.419 129.795C162.276 131.281 162.605 132.773 163.36 134.06C160.36 133.87 160.36 133.97 161.12 137.25C161.175 137.67 161.087 138.096 160.87 138.46C159.64 140.68 158.66 143.05 156.65 144.79C156.1 145.27 156.04 146.3 155.54 147.65L159.75 145.34C158.37 147.24 157.6 148.78 156.4 149.85C154.72 151.35 152.62 152.38 150.9 153.85C149.83 154.75 147.53 155.12 148.68 157.5C148.8 157.74 148.31 158.27 147.83 158.5C147.65 157.05 144.56 156.5 146.34 155.42C148.12 154.34 148.27 151.42 151.04 151.67C151.45 151.67 151.95 150.67 152.72 149.83L149.18 147.76L147.69 150.87C144.87 150.15 145.52 153.27 144.31 154.1C141.64 155.9 143.39 157.35 144.16 158.94L145.73 157.59C146.05 158.9 146.3 159.95 146.73 161.59L143.33 162.29C143.45 162.68 143.48 164.02 144.06 164.29C144.517 164.403 144.992 164.421 145.457 164.343C145.921 164.266 146.364 164.095 146.76 163.84C148.129 162.954 149.436 161.975 150.67 160.91C150.31 162.23 150.33 162.99 149.98 163.27C148.518 164.609 146.871 165.73 145.09 166.6C143.09 167.39 140.8 167.48 139.43 169.6C139.25 169.87 137.96 169.41 137.15 169.29C136.42 170.62 136.83 173.21 133.37 172.76L135.02 170.49L134.64 169.79C132.3 170.85 129.87 171.79 127.64 173.01C125.41 174.23 123.28 176.01 121.7 177.01L115.94 175.16L119 174.16L119.36 174.93L120.89 171.8L115.2 172.21C115.36 173.36 115.58 174.83 115.84 176.63C113.63 177.63 111.26 178.94 108.78 179.92C106.3 180.9 103.78 181.56 101.25 182.39L102.04 181.46C101.4 180.59 100.89 179.18 100.04 178.89C98.9802 178.54 97.6001 179.13 96.2401 179.33V176.38L94.6101 177.11L94.3501 176.73L96.5101 175.26H75.1201C79.3201 177.79 83.5602 179.47 88.7902 177.86C87.8602 180.49 87.3401 181.78 84.9601 180.31C83.8801 179.63 82.1802 179.94 80.4302 179.77L79.7701 183.89H78.6802C77.6802 182.62 77.8002 180.35 75.4302 180.34H72.7501L70.8601 178.13H75.3501L75.2601 177.58C73.6201 176.48 72.0101 175.33 70.3201 174.32C69.8283 174.172 69.2984 174.218 68.8401 174.45C65.3901 175.9 62.1201 175.07 59.0201 173.53C57.221 172.479 55.4938 171.31 53.8501 170.03C52.7301 172.47 55.5201 172.39 56.0801 174.14L52.8901 172.49L51.0801 171.58L50.6101 173.84C45.0901 172.45 44.9901 172.38 43.0701 167.66L47.2001 170.36C47.2197 169.53 47.1357 168.7 46.9501 167.89C46.4715 166.952 45.9057 166.062 45.2601 165.23C44.1501 165.41 42.5701 165.65 41.0101 165.93C39.4501 166.21 35.5001 164.06 34.2401 162.71C33.1962 161.614 31.8714 160.825 30.4102 160.43C28.6202 159.99 28.1201 158.74 27.6401 157.43C26.9601 155.5 26.4201 153.53 23.6401 153.91C23.4901 153.91 23.2401 153.43 23.0701 153.15C22.2732 151.633 21.3987 150.157 20.4501 148.73C19.4924 147.527 18.4391 146.403 17.3002 145.37C16.3884 144.631 15.517 143.843 14.6901 143.01C13.9295 142.042 13.3038 140.976 12.8301 139.84C12.5384 139.111 12.4253 138.322 12.5001 137.54C14.8901 136.75 13.5001 134.89 13.7701 134.17C12.0372 133.614 10.3627 132.891 8.77014 132.01C8.31014 131.7 8.65014 130.17 8.64014 129.2C8.64014 128.41 8.64014 127.63 8.64014 126.84L7.69006 126.89V129.44L5.69006 126.75C6.22006 126.42 7.0201 126.06 6.9801 125.93C6.6601 124.77 6.50009 123.35 5.72009 122.57C3.63009 120.47 2.07013 114.99 2.51013 112.27C2.70013 111.07 1.51016 109.61 0.910156 108.33C0.702037 107.995 0.417547 107.714 0.0800781 107.51L2.00012 106.28L1.80017 106.05L5.19006 104.69C3.49006 103.33 3.27006 99.3801 4.69006 98.6401L2.89014 96.7601C5.54014 96.5401 6.42015 94.9001 5.40015 92.7601C5.26015 92.4601 5.53012 91.9801 5.62012 91.5801C6.26012 91.8301 7.34008 91.9601 7.46008 92.3701C7.82172 93.8595 8.07241 95.3736 8.21008 96.9001L11.3102 96.2401C10.3661 95.5859 9.53508 94.782 8.8501 93.8601C8.5901 93.3701 9.3701 92.3401 9.8501 90.9701L3.76013 89.8801C3.58013 87.1201 3.27017 84.6201 3.30017 82.1301C3.46533 80.7278 3.80115 79.3509 4.30017 78.0301C4.39017 77.7201 4.85017 77.4201 4.80017 77.2001C4.30017 75.2001 3.67009 73.2001 3.22009 71.2001C3.21989 70.5876 3.35657 69.9829 3.62012 69.4301C3.86012 68.6001 4.12017 67.7701 4.42017 66.8101L8.04016 65.2901L9.04016 68.8801C10.9702 69.4801 10.9601 72.0201 11.8201 74.2401L13.4701 71.7301L14.2501 75.5501L14.9401 75.6901C15.3201 73.6901 15.7601 71.6901 16.0701 69.6901C16.3801 67.6901 16.5002 65.9601 16.6802 64.1001C16.8602 62.2401 16.9701 60.1001 17.2001 58.1001C17.3895 57.4997 17.6658 56.9304 18.0201 56.4101L19.7501 59.3101C21.3101 57.5501 20.3201 56.1001 17.6301 55.5101C17.6301 53.1901 17.6902 50.9601 17.5602 48.7401C17.5602 48.4701 16.5602 48.2601 16.0402 48.0101C15.9246 48.6199 15.8676 49.2394 15.8701 49.8601C15.8701 50.3201 16.5001 50.8601 16.3901 51.1801C15.6983 53.6974 14.8772 56.1773 13.9302 58.6101C13.3277 59.8753 12.4247 60.9739 11.3002 61.8101L10.6802 65.6501L8.68018 62.8401C11.4702 61.3401 12.2002 58.0201 10.1802 56.2301L10.8701 52.4401C8.33012 52.1401 7.27012 53.0401 6.87012 55.2001C6.48108 56.2785 5.92788 57.2904 5.2301 58.2001C5.0701 57.0701 4.56007 55.8501 4.82007 54.8301C5.64007 51.6101 6.36008 48.2901 9.33008 46.1101C9.76008 45.7901 9.74011 44.8601 10.1101 43.6101L12.3401 47.0201L13.7701 40.2801C16.5901 41.7801 17.2101 41.1501 17.4001 38.2001C17.713 35.5451 18.1636 32.9082 18.7501 30.3001C18.8301 29.8201 18.4101 29.1701 18.6001 28.8101C18.9501 28.1501 19.5301 27.2301 20.1101 27.1501C21.8801 26.9001 23.0201 26.9301 24.1101 24.6601C25.1101 22.6601 28.5201 21.7501 30.8601 20.3701C30.0701 19.1201 30.5401 17.5901 32.3701 16.3701C33.9601 15.3701 35.3702 14.0101 37.0402 12.6701C39.2802 14.3601 41.6901 13.2101 44.2101 11.5001C45.7601 10.5001 47.3902 9.17006 49.5502 9.81006C49.908 9.88472 50.2798 9.85345 50.6201 9.72006C53.2101 8.83006 54.4201 9.35007 55.6201 11.9801L57.7101 11.2901L56.3401 9.09006L56.7401 8.82007L59.2001 10.4601C59.0801 7.07008 61.7801 8.13009 63.1101 7.12009L63.5302 7.71008L60.6201 9.71008L63.8301 9.92007L62.8301 12.4701L57.6702 14.3701L58.3401 16.2301L53.5801 17.4601L47.0502 22.9201L47.6101 23.7601C52.9101 20.6301 57.8901 16.9601 63.4801 13.3901C63.2701 14.5901 63.1401 15.3201 63.0201 16.0501C64.8101 16.0501 65.0201 15.9301 67.5701 11.4001L63.5701 12.3101L66.3601 7.87009L63.5602 7.34006C64.3002 6.80006 64.6701 6.34008 65.0901 6.27008C67.7142 5.8469 70.3633 5.59636 73.0201 5.52008C74.1601 5.52008 75.2802 6.52008 76.4102 7.08008C75.7258 8.20682 74.9847 9.2982 74.1901 10.3501C73.8401 10.7701 73.1101 10.8801 72.0001 11.3501C75.5101 10.9201 78.4101 12.5501 81.4001 10.5401L81.6301 11.3701L82.1602 8.31006C82.8402 8.86006 83.6301 9.18009 83.7401 9.65009C83.9129 10.4252 83.8177 11.236 83.4701 11.9501C82.5901 13.6201 81.4701 15.2001 80.4701 16.9501H83.4701L83.6602 17.6401L78.4001 21.2101L81.7501 22.4801C83.3001 22.2001 85.6502 21.0501 86.5502 21.7501C88.8202 23.5401 88.2401 26.2801 86.9701 28.7001C84.3601 27.5901 81.6901 26.4001 78.9701 25.3601C78.6301 25.2301 77.9701 25.9401 77.4801 26.2501C75.0101 27.7801 72.3802 26.7801 69.8002 26.7601C69.2702 26.7601 68.3202 26.8801 68.2802 27.1001C67.7701 29.5301 65.7101 29.0301 64.1401 29.6301C63.4101 29.9101 61.0001 29.0801 61.8401 31.5201L61.9001 31.4501C60.5701 32.0701 59.2401 32.7001 57.9001 33.3101C57.0901 33.6801 56.2601 34.0101 55.4501 34.3901C54.6401 34.7701 53.8502 35.2301 53.0502 35.6501C53.7802 36.1301 54.5001 36.6501 55.2601 37.0901C55.599 37.2668 55.9538 37.4108 56.3201 37.5201C53.1401 40.6101 49.9002 43.6401 46.8102 46.8201C46.0502 47.6101 45.8102 48.8801 45.0302 50.4401C44.7102 50.6601 43.3902 51.1301 42.9202 52.0301C42.1702 53.8425 41.5323 55.6993 41.0101 57.5901C40.7748 58.1518 40.4355 58.6641 40.0101 59.1001C38.7701 60.4801 37.1701 61.6501 36.3301 63.2401C35.7801 64.2401 36.3301 65.8701 36.3301 67.2401C36.3301 68.0201 36.2202 68.8001 36.1602 69.6401L37.5602 69.2401C38.1202 70.1001 37.2701 72.6501 40.0901 71.3101C39.8401 73.0001 39.6401 74.3801 39.4401 75.7601C38.9001 79.5501 38.3802 83.3301 37.7902 87.1101C37.6902 87.7901 37.5301 88.7901 37.0701 89.0401C34.3601 90.5201 34.5502 93.0401 34.5302 95.7801L32.8401 95.4701L32.0502 99.3601L34.5302 100.22L33.6401 104.38L36.9601 105.38L38.6901 111.84C41.7901 112.99 42.1602 113.84 40.9202 117.49C40.8302 117.73 40.5401 118.06 40.6101 118.19C41.8301 120.19 43.5201 122 42.9901 124.65C45.3501 124.99 45.7802 127.45 47.3102 128.74C49.4902 130.58 50.9801 133.22 53.1401 135.09C55.3001 136.96 57.8001 138.09 60.1401 139.65C61.2476 140.388 62.2558 141.265 63.1401 142.26C64.9101 142.78 66.4901 142.03 68.2601 141.34C69.3701 140.91 71.3301 142.7 73.1901 143.64C74.4501 142.85 82.8401 145.88 83.3901 147.83L79.6501 148.14V148.48C81.5304 149.009 83.4361 149.443 85.3601 149.78C87.8601 150.09 90.4901 149.73 92.8901 150.35C96.1101 151.17 98.2701 148.85 100.98 148.4C102.98 148.07 105.1 148.21 107.15 147.97C108.27 147.84 109.77 147.68 110.36 146.97C111.99 144.91 114.47 146.81 116.11 145.38C116.17 145.33 116.26 145.31 116.33 144.88H113.51C116.11 143.05 118.21 141.62 121.03 144.05L120.03 141.43L120.69 140.97L122.08 143.05H122.69L122.57 140.56L126.57 137.82L126.1 140.62L128.53 140.23C126.85 137.74 127.06 137.14 130.7 135.49L128.18 138.37L128.55 138.8L133.74 134.58L134.29 137.63L137.67 133.76L138.4 134.44L138.77 134.11C138.16 133.35 137.53 132.6 136.83 131.75L139.65 130.32L138.17 130.16L138.56 129.16L145.96 124.78L142.47 123.12C143.63 121.03 144.91 118.71 146.17 116.45L148.94 117.05L146.42 115.05C151.48 113.67 150.92 109.56 151.13 105.77L149.6 105.13C149.68 103.53 149.7 102.05 149.84 100.58C149.84 100.26 150.35 99.9801 150.71 99.5801V94.9101C152.61 95.9601 150.93 99.1701 153.79 99.1501C154.63 97.1501 155.11 95.4101 152.32 94.3501L155.15 94.1601C155.47 92.9701 155.89 91.3901 156.3 89.8401L153.69 89.2101V88.4401L157.06 87.4401L153.84 85.9201C153.65 79.9901 148.53 74.4901 150.03 67.9201L147.37 67.1701L147.44 66.6801L149.2 66.3101L147.35 60.1401C150.05 59.1401 149.44 57.0601 148.96 54.6901C148.32 51.5001 147.07 49.3701 143.96 47.8101C142.17 46.9201 141.39 44.1201 139.96 42.3001C139.045 41.0735 137.961 39.9827 136.74 39.0601C135.68 38.2801 135.45 35.9601 136.55 34.6301L130.32 34.2901C130.46 33.5601 130.96 32.2901 130.68 32.0901C129.617 31.4096 128.484 30.8464 127.3 30.4101L126.73 31.0801V29.3201L126.15 29.9001C124.75 29.0601 122.88 28.5501 122.02 27.3301C119.35 23.5601 115.46 21.6801 111.61 19.5801C110.74 19.1001 109.61 17.4601 109.85 16.8501C110.61 14.9101 108.69 14.7301 108.16 14.4401C107.03 13.8101 105.48 14.0001 104.16 13.6801C103.71 13.5701 103.39 12.9201 102.82 12.3101C102.006 12.8774 101.042 13.1899 100.05 13.2077C99.0584 13.2255 98.0837 12.9478 97.2501 12.4101C96.5219 11.7264 95.8955 10.9417 95.3901 10.0801C95.2301 10.2901 95.0102 10.8801 94.6602 10.9701C93.3402 11.3201 92.0202 13.5901 90.6602 10.6501C90.0902 9.42009 88.0802 8.85008 86.5302 7.86008L93.1501 7.09006L93.6001 3.64008L86.8601 7.40009L86.4501 4.40009C88.8801 3.49009 91.2501 2.40008 93.7301 1.74008C96.2115 1.05153 98.7663 0.662101 101.34 0.580078C101.89 0.580078 102.76 2.25007 104.07 2.26007C105.523 2.33822 106.978 2.17948 108.38 1.79007L105.09 0.550079L105.22 0.0600586L116.4 2.65009C116.844 2.34998 117.357 2.16761 117.89 2.12009C121.072 2.13365 124.134 3.33147 126.48 5.48007C128.97 7.48007 131.92 9.01009 134.85 10.8701L135.52 9.63007C136.844 9.84918 138.104 10.3569 139.21 11.1173C140.316 11.8777 141.241 12.8721 141.92 14.0301C143.1 15.8401 145.2 17.0301 146.64 18.7001C148.08 20.3701 149.1 22.2701 150.39 24.0201C151.07 24.9601 151.9 25.7801 153.04 27.0801L154.47 26.8001L153.26 29.0401L156.84 28.4001C157.61 29.9101 158.74 31.9301 159.6 34.0401C159.78 34.4701 158.6 35.3501 158.66 35.9401C158.713 37.1937 159.134 38.404 159.87 39.4201C162.61 42.2901 162.87 45.9301 163.67 49.4901C163.93 50.6701 165.2 51.6301 166.06 52.7501C167.57 50.7501 167.18 48.7501 165.75 46.9401C164.06 44.8301 163.65 41.6601 165.48 40.1901C165.96 41.4801 166.34 42.6801 166.85 43.8301C167.96 46.3101 169.2 48.7301 170.26 51.2301C170.74 52.3701 170.87 53.6401 171.26 54.8301C171.36 55.1401 171.75 55.3601 172.02 55.6101C173.772 57.0693 175.441 58.6251 177.02 60.2701C177.41 60.7001 176.96 62.0101 176.7 62.8601C176.14 64.6601 175.45 66.4201 174.7 68.4601L176.88 66.9101C177.79 68.8301 178.57 70.4501 179.51 72.4301L176.35 73.9301L177.17 77.9301L176.89 78.1901L172.04 68.8001L170.84 69.4001L172.73 72.7201C172.484 73.6267 172.32 74.5539 172.24 75.4901C172.15 77.9601 171.61 80.6401 172.35 82.8701C173.7 86.8701 173.45 90.9501 173.19 94.9301C172.72 100.058 171.985 105.158 170.99 110.21C170.57 112.69 169.86 115.12 169.4 117.05C168.71 117.44 167.96 117.65 167.95 117.91C167.967 118.774 168.067 119.635 168.25 120.48L168.26 120.37ZM26.4102 116.37L26.6901 113.82L23.8102 112.36L24.4901 117.25L25.7902 117V120.71C25.6802 120.63 26.1101 120.82 26.3201 121.16C27.6701 123.27 28.9301 125.44 30.3201 127.53C30.5601 127.9 31.3202 127.94 31.7802 128.14C31.7802 127.68 31.9302 126.86 31.7802 126.83C29.5202 126.12 30.0001 123.91 29.4001 122.38C28.6801 120.52 26.7402 119.08 27.2902 116.73C27.0072 116.594 26.7127 116.484 26.4102 116.4V116.37ZM66.9501 23.6801L67.6602 24.3401L71.8301 22.4801C72.6701 23.1101 73.5101 23.9701 73.7001 23.8501C74.8245 22.996 75.8903 22.0672 76.8901 21.0701L73.0302 20.4201L70.4801 22.3701L69.1401 20.7301C68.7301 21.2001 68.2902 21.6501 67.9102 22.1501C67.5302 22.6501 67.2602 23.2001 66.9102 23.7201C66.4898 22.4425 65.9438 21.2099 65.2802 20.0401C63.7102 17.7601 63.2801 21.2101 62.0701 20.8401C61.6001 20.8338 61.1309 20.8774 60.6702 20.9701L63.6702 22.5201L58.6702 24.4001L58.4302 23.9701L61.1001 22.0701L60.6501 21.3101C59.0501 22.1301 56.7701 22.5501 55.9901 23.8601C54.5701 26.2201 52.0501 27.1001 50.4801 29.0801C50.4001 29.1901 50.4801 29.4101 50.4801 29.5601L52.0502 29.7401L48.0502 33.0501L48.7601 33.9101C50.0201 32.7601 51.5501 31.7901 52.4501 30.4101C53.3501 29.0301 54.0602 27.3101 56.3102 27.7201C56.7454 27.7248 57.1726 27.6033 57.5402 27.3701C59.1702 26.5601 60.7901 25.7201 62.2501 24.9701L62.5302 28.7201L66.4302 26.0501L63.8501 25.4201L66.9501 23.6801ZM20.5801 127.96L17.9901 129.24C17.7101 128.36 17.4301 127.48 17.1401 126.61C16.9701 126.11 16.9101 125.47 16.5701 125.16C16.0391 124.827 15.4585 124.581 14.8501 124.43L14.5201 125.11L14.2501 119.91L10.7601 123.52C10.9386 124.096 11.2426 124.626 11.6501 125.07C13.9701 127.13 14.6501 129.9 15.6501 132.7C16.2214 134.154 17.2226 135.4 18.5201 136.27C19.3501 136.84 20.8001 136.53 22.1301 136.63C20.4101 140.15 24.1301 139.56 25.1301 141.02C23.5901 143.17 25.9501 143.35 26.8301 144.35C26.7001 142.27 26.9001 140.16 26.3501 138.26C25.9601 136.92 24.5602 135.86 23.5302 134.57C22.3302 136.8 26.9801 136.76 24.6301 139.14C22.9001 136.91 21.2201 134.73 19.8301 132.92L22.1901 129.92L21.6702 129.43L20.0901 130.3L19.7601 129.66L21.5901 128.66L20.5801 127.96ZM88.1101 160.83C88.2201 160.28 88.3001 159.17 88.4601 159.16C91.6501 158.92 88.7001 156.16 90.1101 155.25C88.5601 154.84 87.0101 154.08 85.4701 154.11C83.4701 154.11 81.4702 154.97 79.5302 155.11C77.1802 155.31 74.8102 155.16 72.5302 155.16C73.3001 157.87 75.4301 158.24 77.8401 158.96C81.2701 160.02 84.4501 161.48 88.1101 160.86V160.83ZM14.2001 106.68L17.4801 99.9301C14.8001 99.5801 14.4201 100 14.4801 103.26C13.6101 101.79 12.9001 100.75 12.3701 99.6201C12.1701 99.1901 12.3701 98.5601 12.4501 98.0201L11.3601 99.5901C10.8301 97.7801 9.30017 97.5401 7.30017 98.6701C7.39287 99.6011 7.39287 100.539 7.30017 101.47C7.04017 102.64 6.50006 103.75 6.19006 104.92C6.14016 105.314 6.24408 105.711 6.4801 106.03C7.4801 106.03 8.40009 105.95 9.72009 105.87L12.6001 117.47C15.1201 116.4 10.0002 113.56 13.5402 112.54L10.9001 106.68H14.2001ZM34.7501 81.4801L34.5302 86.5401H34.0801L33.4801 83.0201L32.3601 83.1301L32.6901 88.1301L33.7802 88.5301C34.9402 86.8401 36.4301 85.2701 37.1501 83.4101C37.7101 81.9801 37.0901 80.1401 37.3701 78.5501C37.8801 75.6501 39.2001 72.7401 36.1501 70.4101C33.7901 71.6301 32.1501 76.8701 33.7501 79.4801L36.8501 73.6801C36.5501 76.6801 36.3002 79.2501 36.0302 81.9601L34.7501 81.4801ZM116.59 157.38C124.05 155.83 130.21 151.84 136.02 147.13C134.847 147.094 133.694 147.445 132.74 148.13C131.21 149.28 129.94 150.85 127.68 149.75C127.42 149.63 126.53 150.11 126.5 150.38C126.28 152.38 124.79 151.86 123.58 152.01C121.08 152.33 119 153.3 118.14 155.93C118.14 156.04 117.87 156.08 117.71 156.17L116.27 154.48L116.59 157.38ZM127.59 167.25C124.13 168.55 122.48 169.86 122.46 172.13L126.08 168.83L127.52 171.13L130.74 169.13L131.05 169.79L133.63 164.45C131.63 165.28 129.76 166.53 128.45 163.82L127.78 164L127.59 167.25ZM52.0302 148.89V145.28C53.2901 145.99 54.6201 147.28 55.3901 147.06C57.0701 146.47 57.3901 147.36 58.0001 148.35C58.4813 149.138 59.0703 149.855 59.7501 150.48C59.9101 150.61 60.5801 150.2 60.9901 149.98C61.0801 149.93 61.0501 149.66 61.1001 149.41L59.5101 148.77C60.6701 146.98 56.8401 144.26 51.3401 142.77L50.0801 146.31L52.0302 148.89ZM134.96 24.8901L133.84 25.8001C134.29 26.4001 134.62 27.2301 135.22 27.5701C138.63 29.4801 139.22 30.5101 138.64 34.2101C139.8 34.2701 141.1 34.0301 142.1 34.4701C143.1 34.9101 143.61 35.9901 144.34 36.7901L145.42 35.7901L134.96 24.8901ZM90.1501 160.44H104.56L103.46 156.96C102.808 157.408 102.111 157.787 101.38 158.09C100.317 158.356 99.2332 158.527 98.1401 158.6C97.6201 158.65 97.0402 158.35 96.5602 158.49C94.1502 159.09 91.8001 159.85 90.1101 160.37L90.1501 160.44ZM152.69 56.0301C155.13 56.0301 155.13 54.5201 154.69 53.3101C153.855 51.6607 152.881 50.0851 151.78 48.6001C151.49 49.1601 151.05 49.6001 151.13 49.9501C151.52 51.9201 152.11 53.9401 152.65 55.9601L152.69 56.0301ZM42.1501 146.86L40.2701 145.73C42.2701 144.18 39.6901 143.48 39.4401 143.36C37.9804 142.572 36.8182 141.329 36.1301 139.82C35.9601 139.53 35.2101 139.57 34.4601 139.4C36.7501 144.01 40.1601 147.36 42.1101 146.79L42.1501 146.86ZM161.03 86.6201L162.15 86.4501C162.04 83.8401 161.92 81.2301 161.8 78.4501L159.94 78.7201C160.29 81.4801 160.64 83.9901 160.99 86.5501L161.03 86.6201ZM124.61 23.2301C126.14 24.4001 127.28 25.3901 128.54 26.1801C129.02 26.4801 129.78 26.3301 130.41 26.3901C130.489 25.7703 130.441 25.141 130.27 24.5401C129.842 23.9626 129.326 23.4563 128.74 23.0401C127.6 25.8101 126.29 22.6401 124.57 23.1601L124.61 23.2301ZM40.7501 40.9601C36.6701 44.0901 36.6701 44.0901 36.7501 45.9601C37.8064 45.5658 38.736 44.8926 39.4403 44.0122C40.1446 43.1319 40.5973 42.0771 40.7501 40.9601ZM136 160.09L129.17 164C132.5 163.98 136.08 162.18 136 160.09ZM15.4302 97.2001L16.2001 97.6401L17.2001 95.7501C16.7573 94.7301 16.5228 93.632 16.5101 92.5201C16.3801 91.4301 16.1401 90.3501 15.9401 89.2701L15.3801 89.3301L15.4302 97.2001ZM103.55 151.88L102.95 154.76C104.208 154.351 105.432 153.843 106.61 153.24C107.02 153 107.04 152.11 107.23 151.51C106.752 151.664 106.265 151.784 105.77 151.87C105.27 151.93 104.75 151.88 103.55 151.88ZM98.8102 154.97L98.3002 152.97L95.1501 154.2L94.0201 152.36V154.97H98.8102ZM73.4501 17.2701L73.3201 16.5701L69.3201 17.6201C69.6458 18.4387 70.087 19.2064 70.6301 19.9001C70.9401 20.2101 71.8002 19.9501 72.4102 19.9501L71.4701 18.3601L73.4501 17.2701ZM97.2401 7.38007C97.8601 5.87007 101.39 7.58006 100.65 4.09006C99.9601 4.59006 99.2602 5.32007 99.0502 5.20007C94.9402 2.89007 97.7501 6.57007 97.2401 7.38007ZM148.24 137.8L147.95 137.16L144.15 140.75L144.79 141.75C145.425 141.522 146.014 141.184 146.53 140.75C147.171 139.81 147.743 138.824 148.24 137.8ZM103.87 163.48L103.65 162.55L96.4601 164.29L96.6501 165.05L103.87 163.48ZM23.7501 57.7601L23.3901 63.9501C25.5901 61.2301 25.7501 59.8701 23.7501 57.7601Z" fill="#E1A16A"/>
</svg>
