<?xml version="1.0" ?><svg fill="none" height="24" viewBox="0 0 24 24" width="24" xmlns="http://www.w3.org/2000/svg"><path clip-rule="evenodd" d="M8.05001 4C8.28164 2.85888 9.29052 2 10.5 2H13.5C14.7095 2 15.7184 2.85888 15.95 4H17C18.6569 4 20 5.34315 20 7V19C20 20.6569 18.6569 22 17 22H7C5.34315 22 4 20.6569 4 19V7C4 5.34315 5.34315 4 7 4H8.05001ZM8 6H7C6.44772 6 6 6.44772 6 7V19C6 19.5523 6.44772 20 7 20H17C17.5523 20 18 19.5523 18 19V7C18 6.44772 17.5523 6 17 6H16V8C16 8.55228 15.5523 9 15 9H9C8.73478 9 8.48043 8.89464 8.29289 8.70711C8.10536 8.51957 8 8.26522 8 8L8 6ZM10.5 4C10.2239 4 10 4.22386 10 4.5L10 7H14V4.5C14 4.22386 13.7761 4 13.5 4H10.5Z" fill="black" fill-rule="evenodd"/></svg>