<svg xmlns="http://www.w3.org/2000/svg" xmlns:svgjs="http://svgjs.com/svgjs" xmlns:xlink="http://www.w3.org/1999/xlink" width="288" height="288"><svg xmlns="http://www.w3.org/2000/svg" width="288" height="288" viewBox="0 0 32 32"><path fill="none" stroke="#000" stroke-linecap="round" stroke-linejoin="round" d="M19.348 7.711c-2.783.215-5.193 2.097-6.085 4.807a5.388 5.388 0 0 0-1.138-.125c-2.804 0-5.146 2.163-5.4 4.987a4.603 4.603 0 0 0-1.575-.285c-2.568 0-4.65 2.106-4.65 4.703 0 2.597 2.082 4.702 4.65 4.702.088 0 .176-.01.263-.016.042 0 .083.016.124.016h20.925c.383 0 .744-.085 1.087-.211 2.336-.667 3.949-2.821 3.951-5.275a5.499 5.499 0 0 0-2.552-4.647" class="colorStroke2b4255 svgStroke"/><path style="line-height:normal;text-indent:0;text-align:start;text-decoration-line:none;text-decoration-style:solid;text-decoration-color:#000;text-transform:none;block-progression:tb;isolation:auto;mix-blend-mode:normal;marker:none" fill="#7a52f4" d="M8 1C4.14 1 1 4.14 1 8s3.14 7 7 7 7-3.14 7-7-3.14-7-7-7zm0 1c3.32 0 6 2.68 6 6s-2.68 6-6 6a5.994 5.994 0 0 1-6.002-6C1.998 4.68 4.68 2 8 2Zm-.492 3-.016 4h.998l.018-4h-1zm.484 5a.5.5 0 0 0-.5.5.5.5 0 0 0 .5.5.5.5 0 0 0 .5-.5.5.5 0 0 0-.5-.5z" class="colorf8b84e svgShape" color="#000" font-family="sans-serif" font-weight="400" overflow="visible" transform="translate(17 3)"/></svg></svg>