<svg width="16" height="18" viewBox="0 0 16 18" fill="none" xmlns="http://www.w3.org/2000/svg">
<path d="M6.91184 0.600098H8.15384V2.5081C9.16184 2.6401 9.97784 3.0361 10.6018 3.6961C11.2378 4.3441 11.5558 5.1781 11.5558 6.1981H9.25184C9.25184 5.7061 9.08384 5.3161 8.74784 5.0281C8.42384 4.7281 7.97384 4.5781 7.39784 4.5781C6.86984 4.5781 6.42584 4.7161 6.06584 4.9921C5.71784 5.2561 5.54384 5.6041 5.54384 6.0361C5.54384 6.7201 6.03584 7.1941 7.01984 7.4581L8.54984 7.9081C9.83384 8.2561 10.7338 8.7661 11.2498 9.4381C11.7658 10.1101 11.9938 10.8601 11.9338 11.6881C11.8858 12.6841 11.5018 13.4881 10.7818 14.1001C10.0738 14.7121 9.19784 15.0661 8.15384 15.1621V17.1961H6.91184V15.1621C5.78384 15.0421 4.87184 14.6281 4.17584 13.9201C3.47984 13.2121 3.13184 12.3661 3.13184 11.3821H5.43584C5.45984 11.8621 5.66384 12.2761 6.04784 12.6241C6.43184 12.9601 6.94184 13.1281 7.57784 13.1281C8.17784 13.1281 8.66384 12.9901 9.03584 12.7141C9.40784 12.4261 9.60584 12.0661 9.62984 11.6341C9.65384 11.2261 9.52184 10.8841 9.23384 10.6081C8.95784 10.3321 8.51984 10.1101 7.91984 9.9421L6.38984 9.5461C4.30184 8.9341 3.25784 7.7821 3.25784 6.0901C3.25784 5.1061 3.60584 4.2841 4.30184 3.6241C4.99784 2.9641 5.86784 2.5861 6.91184 2.4901V0.600098Z" fill="#504A48"/>
</svg>
