<svg width="18" height="18" viewBox="0 0 18 18" fill="none" xmlns="http://www.w3.org/2000/svg">
<path d="M10.7687 3.29289L3.5746 10.487C3.56153 10.5 3.54804 10.5134 3.53423 10.5272C3.38206 10.6784 3.18944 10.8699 3.05256 11.1116C2.91567 11.3534 2.8506 11.6171 2.7992 11.8254C2.79453 11.8443 2.78998 11.8627 2.78549 11.8807L2.12196 14.5348C2.11916 14.546 2.11624 14.5576 2.11322 14.5696C2.0764 14.7161 2.0254 14.919 2.00783 15.0986C1.98761 15.3053 1.98092 15.7573 2.3497 16.1261C2.71848 16.4949 3.17046 16.4882 3.37714 16.468C3.55674 16.4504 3.75965 16.3994 3.90614 16.3626C3.91814 16.3595 3.92977 16.3566 3.94098 16.3538L6.5951 15.6903C6.61304 15.6858 6.63149 15.6812 6.6504 15.6766C6.85871 15.6252 7.12238 15.5601 7.36414 15.4232C7.60591 15.2863 7.79736 15.0937 7.94861 14.9415C7.96234 14.9277 7.97574 14.9143 7.98881 14.9012L15.1829 7.70711C15.1957 7.69426 15.2086 7.68144 15.2214 7.66863C15.5213 7.36883 15.8128 7.07747 16.0208 6.80481C16.2553 6.49741 16.4758 6.09945 16.4758 5.58579C16.4758 5.07212 16.2553 4.67416 16.0208 4.36677C15.8128 4.09409 15.5213 3.80273 15.2214 3.50292C15.2085 3.49012 15.1957 3.4773 15.1829 3.46447L15.0113 3.29289C14.9985 3.28006 14.9857 3.26724 14.9729 3.25443C14.673 2.9545 14.3817 2.66302 14.109 2.45498C13.8016 2.22044 13.4037 2 12.89 2C12.3763 2 11.9784 2.22044 11.671 2.45498C11.3983 2.66302 11.1069 2.9545 10.8071 3.25442C10.7943 3.26723 10.7815 3.28006 10.7687 3.29289L11.4758 4L10.7687 3.29289Z" stroke="#F7DBC0" stroke-width="2"/>
</svg>
