<svg width="30" height="30" viewBox="0 0 30 30" fill="none" xmlns="http://www.w3.org/2000/svg">
<path d="M15.3798 29.24C23.4542 29.24 29.9998 22.6944 29.9998 14.62C29.9998 6.5456 23.4542 0 15.3798 0C7.30536 0 0.759766 6.5456 0.759766 14.62C0.759766 22.6944 7.30536 29.24 15.3798 29.24Z" fill="#712E19"/>
<path fill-rule="evenodd" clip-rule="evenodd" d="M21.1407 9.56H9.37881C8.2795 9.56 7.38834 10.4136 7.38834 11.4667V17.5333C7.38834 18.5864 8.2795 19.44 9.37881 19.44H21.1407C22.24 19.44 23.1312 18.5864 23.1312 17.5333V11.4667C23.1312 10.4136 22.24 9.56 21.1407 9.56ZM9.37881 8C7.38007 8 5.75977 9.55208 5.75977 11.4667V17.5333C5.75977 19.4479 7.38007 21 9.37881 21H21.1407C23.1395 21 24.7598 19.4479 24.7598 17.5333V11.4667C24.7598 9.55208 23.1395 8 21.1407 8H9.37881Z" fill="#F1ECE8"/>
<path fill-rule="evenodd" clip-rule="evenodd" d="M23.6186 10.1544C23.8755 10.508 23.7846 10.9941 23.4154 11.2402L16.6643 15.7412C15.7529 16.3488 14.5408 16.341 13.6379 15.7218L7.09526 11.2342C6.72962 10.9834 6.64545 10.4961 6.90727 10.1459C7.16909 9.79564 7.67775 9.71502 8.0434 9.96581L14.586 14.4534C14.9285 14.6883 15.3882 14.6912 15.734 14.4607L22.4851 9.95979C22.8542 9.71371 23.3617 9.80084 23.6186 10.1544Z" fill="#F1ECE8"/>
</svg>
