<svg width="30" height="30" viewBox="0 0 30 30" fill="none" xmlns="http://www.w3.org/2000/svg">
<path d="M15.38 29.24C23.4544 29.24 30 22.6944 30 14.62C30 6.5456 23.4544 0 15.38 0C7.3056 0 0.76001 6.5456 0.76001 14.62C0.76001 22.6944 7.3056 29.24 15.38 29.24Z" fill="#0E7DFF"/>
<path fill-rule="evenodd" clip-rule="evenodd" d="M21.141 9.56H9.37906C8.27975 9.56 7.38858 10.4136 7.38858 11.4667V17.5333C7.38858 18.5864 8.27975 19.44 9.37906 19.44H21.141C22.2403 19.44 23.1314 18.5864 23.1314 17.5333V11.4667C23.1314 10.4136 22.2403 9.56 21.141 9.56ZM9.37906 8C7.38031 8 5.76001 9.55208 5.76001 11.4667V17.5333C5.76001 19.4479 7.38031 21 9.37906 21H21.141C23.1397 21 24.76 19.4479 24.76 17.5333V11.4667C24.76 9.55208 23.1397 8 21.141 8H9.37906Z" fill="#F1ECE8"/>
<path fill-rule="evenodd" clip-rule="evenodd" d="M23.6189 10.1544C23.8758 10.508 23.7848 10.9941 23.4157 11.2402L16.6645 15.7412C15.7531 16.3488 14.541 16.341 13.6381 15.7218L7.09551 11.2342C6.72986 10.9834 6.6457 10.4961 6.90752 10.1459C7.16934 9.79564 7.678 9.71502 8.04364 9.96581L14.5863 14.4534C14.9287 14.6883 15.3885 14.6912 15.7342 14.4608L22.4854 9.95979C22.8545 9.71371 23.362 9.80084 23.6189 10.1544Z" fill="#F1ECE8"/>
</svg>
