<svg id="Livello_1" data-name="Livello 1" xmlns="http://www.w3.org/2000/svg" xmlns:xlink="http://www.w3.org/1999/xlink" viewBox="0 0 1000 1000"><defs><style>.cls-1{fill:none;}.cls-12,.cls-2{fill:#7259a4;}.cls-3{opacity:0.6;}.cls-4{clip-path:url(#clip-path);}.cls-5{fill:#060707;}.cls-6{opacity:0.45;}.cls-7{clip-path:url(#clip-path-2);}.cls-8{opacity:0.8;}.cls-9{clip-path:url(#clip-path-3);}.cls-10{clip-path:url(#clip-path-4);}.cls-11{clip-path:url(#clip-path-5);}.cls-12{stroke:#060707;stroke-miterlimit:10;stroke-width:8px;}</style><clipPath id="clip-path"><rect class="cls-1" x="12.84" y="433.95" width="311.26" height="162.76"/></clipPath><clipPath id="clip-path-2"><rect class="cls-1" x="12.84" y="246.47" width="155.66" height="350.24"/></clipPath><clipPath id="clip-path-3"><rect class="cls-1" x="168.5" y="246.47" width="155.66" height="350.24"/></clipPath><clipPath id="clip-path-4"><rect class="cls-1" x="12.84" y="534.23" width="155.66" height="219.3"/></clipPath><clipPath id="clip-path-5"><rect class="cls-1" x="168.5" y="534.23" width="155.72" height="219.3"/></clipPath></defs><title>Tavola disegno 1</title><path class="cls-2" d="M870,417.49c-8.82-5-20.16-5-30.23,0l-70.55,41.57-47.87,26.45-69.28,41.57c-8.82,5-20.16,5-30.23,0l-54.17-32.75a30.71,30.71,0,0,1-15.12-26.45v-63c0-10.08,5-20.15,15.12-26.45L621.85,347c8.81-5,20.15-5,30.23,0l54.17,32.75a30.69,30.69,0,0,1,15.11,26.45v41.57L769.23,420V377.18c0-10.08-5-20.16-15.11-26.46l-100.78-59.2c-8.82-5-20.16-5-30.23,0L519.81,352c-10.08,5-15.12,15.12-15.12,25.2V495.59c0,10.08,5,20.16,15.12,26.45l102,59.21c8.81,5,20.15,5,30.23,0l69.28-40.31,47.87-27.71,69.29-40.31c8.81-5,20.15-5,30.23,0l54.17,31.49A30.7,30.7,0,0,1,938,530.86v63c0,10.08-5,20.15-15.11,26.45L870,651.79c-8.82,5-20.16,5-30.23,0L785.61,620.3a30.7,30.7,0,0,1-15.12-26.45V553.54l-47.87,27.71v41.57c0,10.08,5,20.16,15.12,26.46l102,59.2c8.81,5,20.15,5,30.23,0l102-59.2a30.73,30.73,0,0,0,15.11-26.46V503.15c0-10.08-5-20.16-15.11-26.45Z"/><g class="cls-3"><g class="cls-4"><path class="cls-5" d="M168.5,434,12.84,504.74l155.66,92,155.6-92Z"/></g></g><g class="cls-6"><g class="cls-7"><path class="cls-5" d="M12.84,504.74l155.66,92V246.47Z"/></g></g><g class="cls-8"><g class="cls-9"><path class="cls-5" d="M168.5,246.47V596.71l155.6-92Z"/></g></g><g class="cls-6"><g class="cls-10"><path class="cls-5" d="M12.84,534.23,168.5,753.53V626.2Z"/></g></g><g class="cls-8"><g class="cls-11"><path class="cls-5" d="M168.5,626.2V753.53l155.72-219.3Z"/></g></g><line class="cls-12" x1="342.87" y1="753.53" x2="478.74" y2="246.47"/></svg>