<svg width="25" height="27" viewBox="0 0 25 27" fill="none" xmlns="http://www.w3.org/2000/svg">
<path d="M9.65811 21.7806L9.97433 22.7293H9.97433L9.65811 21.7806ZM14.6581 20.114L14.9743 21.0627L14.9743 21.0626L14.6581 20.114ZM19.7071 9.29289L20.4142 10L19.7071 9.29289ZM15.2929 13.7071L14.5858 13L15.2929 13.7071ZM5 7H19V5H5V7ZM5 8.58579V7H3V8.58579H5ZM9.41421 13L5 8.58579L3.58579 10L7.99999 14.4142L9.41421 13ZM7.99999 14.4142V21.3063H9.99999V14.4142H7.99999ZM7.99999 21.3063C7.99999 22.3301 9.00304 23.0531 9.97433 22.7293L9.34188 20.832C9.66565 20.724 9.99999 20.965 9.99999 21.3063H7.99999ZM9.97433 22.7293L14.9743 21.0627L14.3419 19.1653L9.34188 20.832L9.97433 22.7293ZM14.9743 21.0626C15.5868 20.8585 16 20.2853 16 19.6396H14C14 19.4244 14.1377 19.2333 14.3419 19.1653L14.9743 21.0626ZM16 19.6396V14.4142H14V19.6396H16ZM19 8.58579L14.5858 13L16 14.4142L20.4142 10L19 8.58579ZM19 7V8.58579H21V7H19ZM20.4142 10C20.7893 9.62493 21 9.11622 21 8.58579H19L20.4142 10ZM16 14.4142V14.4142L14.5858 13C14.2107 13.3751 14 13.8838 14 14.4142H16ZM7.99999 14.4142H9.99999C9.99999 13.8838 9.78928 13.3751 9.41421 13L7.99999 14.4142ZM3 8.58579C3 9.11622 3.21071 9.62493 3.58579 10L5 8.58579V8.58579H3ZM19 7H21C21 5.89543 20.1046 5 19 5V7ZM5 5C3.89543 5 3 5.89543 3 7H5V7V5Z" fill="#504A48"/>
<path d="M23.5 2.4998L1 24" stroke="#504A48" stroke-width="2"/>
</svg>
