<svg width="135" height="134" viewBox="0 0 135 134" fill="none" xmlns="http://www.w3.org/2000/svg">
<g clip-path="url(#clip0_136_5465)">
<path d="M37.1659 14.9068C41.0605 10.1285 45.8613 6.60421 51.4727 4.17534C57.0205 1.76234 62.8545 0.69871 68.9269 0.95271C71.9473 1.07971 74.9358 1.47659 77.8448 2.25446C81.9779 3.34984 85.8248 5.12784 89.4015 7.47734C93.4869 10.1602 96.9046 13.5098 99.6229 17.5738C100.02 18.1612 100.418 18.7486 100.736 19.3836C101.26 20.3837 101.864 21.114 102.993 21.6061C107.062 23.4158 109.844 26.5432 111.466 30.6548C112.308 32.798 112.674 35.0681 112.451 37.4017C112.404 37.9573 112.388 38.4971 112.356 39.1162C113.357 39.2432 114.311 39.3543 115.265 39.5131C121.83 40.5767 127.06 43.7676 130.764 49.3238C134.182 54.4673 134.833 60.0553 133.069 65.9132C132.131 69.0089 130.382 71.6758 128.109 73.9777C125.168 76.9622 121.639 78.9783 117.586 79.9626C115.519 80.4547 113.357 80.7563 111.243 80.7563C81.8507 80.804 52.4583 80.804 23.0499 80.7881C17.661 80.7881 12.8126 79.1053 8.61598 75.7398C5.35721 73.1046 3.00455 69.7708 1.55797 65.818C0.238572 62.1032 -0.0793556 58.2773 0.508811 54.4197C1.12877 50.2605 2.90917 46.5933 5.62745 43.3707C8.20267 40.3227 11.3661 38.132 15.0858 36.735C15.1971 36.6873 15.3084 36.6238 15.4514 36.5445C12.9716 29.3531 13.989 22.8761 19.7753 17.7008C24.8462 13.1606 30.7756 12.5415 37.1659 14.9068ZM19.5209 38.3542C19.3461 38.4018 19.2507 38.4336 19.1553 38.4653C15.1176 39.3385 11.5568 41.1006 8.66367 44.1168C5.35721 47.5776 3.37016 51.6733 3.03634 56.4517C2.63893 62.3413 4.37164 67.5642 8.48881 71.8663C11.7158 75.2318 15.6263 77.3909 20.3157 77.7877C23.193 78.0417 26.1179 77.9941 29.0111 77.9941C56.4165 78.01 83.8378 78.0258 111.243 77.9941C116.918 77.9941 121.989 76.232 126.075 72.1362C129.015 69.1993 130.812 65.6592 131.177 61.5159C131.591 56.8327 130.176 52.6735 127.14 49.0698C124.548 45.9901 121.258 43.9581 117.427 42.8151C114.947 42.069 112.388 41.9261 109.812 42.0055C109.51 42.0213 109.208 42.0055 108.811 42.0055C108.89 41.6403 108.922 41.4181 108.986 41.1958C109.987 37.8621 110.083 34.5601 108.684 31.2898C107.126 27.6703 104.567 25.0986 100.847 23.7333C100.132 23.4635 99.5116 23.1618 99.2255 22.384C99.0188 21.8442 98.7168 21.3521 98.4148 20.8441C95.9985 16.8277 92.9146 13.4305 89.0995 10.6682C84.6167 7.42971 79.7047 5.23896 74.2681 4.28646C69.3561 3.41334 64.4442 3.41334 59.5322 4.49284C50.9004 6.38196 43.8424 10.7317 38.4376 17.7326C38.0402 18.2406 37.7541 18.3517 37.15 18.0342C33.6528 16.161 29.9807 15.7958 26.1974 17.0341C22.8274 18.1453 20.3634 20.3837 18.6625 23.4317C16.4529 27.3846 16.3575 31.4645 18.1538 35.6078C18.5512 36.5127 19.044 37.4017 19.5209 38.3542Z" fill="black"/>
<path d="M75.413 106.981C63.2999 106.981 51.1868 106.981 39.0738 106.981C38.6605 106.981 38.2154 106.965 37.818 106.87C37.1503 106.711 36.8006 106.203 36.8165 105.521C36.8324 104.822 37.2616 104.41 37.9134 104.267C38.2154 104.203 38.5492 104.187 38.8512 104.187C63.2204 104.187 87.5737 104.187 111.943 104.187C112.229 104.187 112.531 104.203 112.817 104.235C113.548 104.346 113.946 104.822 114.025 105.505C114.105 106.108 113.517 106.775 112.865 106.886C112.483 106.95 112.07 106.965 111.689 106.965C99.5755 106.981 87.4942 106.981 75.413 106.981Z" fill="black"/>
<path d="M59.5325 92.5193C71.7568 92.5193 83.9812 92.5193 96.1896 92.5193C96.7619 92.5193 97.35 92.4558 97.7792 92.9956C98.3674 93.7258 98.1925 94.7418 97.3182 95.0911C96.9844 95.2339 96.6029 95.2816 96.2373 95.2816C71.7727 95.2974 47.2922 95.2974 22.8277 95.2816C22.5415 95.2816 22.2395 95.2498 21.9693 95.1704C21.2539 94.9641 20.8406 94.3449 20.936 93.6941C21.0314 93.0114 21.5719 92.5511 22.3031 92.5034C22.5892 92.4876 22.8913 92.4875 23.1774 92.4875C35.3064 92.5193 47.4194 92.5193 59.5325 92.5193Z" fill="black"/>
<path d="M57.752 133.143C48.2301 133.143 38.7082 133.143 29.1862 133.143C27.7873 133.143 27.1356 132.683 27.1515 131.715C27.1833 130.778 27.7873 130.365 29.1703 130.365C48.2619 130.365 67.3694 130.365 86.461 130.365C87.7804 130.365 88.3367 130.714 88.4321 131.603C88.5116 132.397 88.0506 133 87.2558 133.112C86.9378 133.159 86.6199 133.143 86.302 133.143C76.7959 133.143 67.274 133.143 57.752 133.143Z" fill="black"/>
<path d="M43.954 119.38C36.7052 119.38 29.4565 119.38 22.2077 119.38C21.5401 119.38 20.8883 119.38 20.4909 118.665C20.0299 117.84 20.3478 116.919 21.2698 116.665C21.6195 116.57 22.0011 116.554 22.3667 116.554C36.8165 116.554 51.2504 116.554 65.7003 116.554C66.0341 116.554 66.3997 116.57 66.7176 116.649C67.3535 116.792 67.9258 117.491 67.8304 118.014C67.6873 118.681 67.3694 119.269 66.5746 119.348C66.2407 119.38 65.891 119.396 65.5413 119.396C58.3402 119.38 51.1392 119.38 43.954 119.38Z" fill="black"/>
</g>
<defs>
<clipPath id="clip0_136_5465">
<rect width="133.816" height="132.223" fill="white" transform="translate(0.222961 0.92041)"/>
</clipPath>
</defs>
</svg>
