<svg width="16" height="11" viewBox="0 0 16 11" fill="none" xmlns="http://www.w3.org/2000/svg">
<path d="M2.69141 1.36328C4.16797 0.613281 5.9375 0.238281 8 0.238281C10.0625 0.238281 11.8203 0.613281 13.2734 1.36328C14.75 2.08984 15.4883 2.96875 15.4883 4C15.4883 4.77344 15.0664 5.47656 14.2227 6.10938C13.4023 6.71875 12.3242 7.16406 10.9883 7.44531V5.89844C11.9023 5.66406 12.6289 5.37109 13.168 5.01953C13.7305 4.64453 14.0117 4.30469 14.0117 4C14.0117 3.71875 13.7773 3.41406 13.3086 3.08594C12.8398 2.73438 12.125 2.42969 11.1641 2.17188C10.2031 1.89062 9.14844 1.75 8 1.75C6.85156 1.75 5.79688 1.89062 4.83594 2.17188C3.875 2.42969 3.16016 2.73438 2.69141 3.08594C2.22266 3.41406 1.98828 3.71875 1.98828 4C1.98828 4.35156 2.33984 4.73828 3.04297 5.16016C3.74609 5.55859 4.64844 5.85156 5.75 6.03906V4L8.73828 6.98828L5.75 10.0117V7.58594C4.20312 7.32812 2.9375 6.88281 1.95312 6.25C0.992188 5.59375 0.511719 4.84375 0.511719 4C0.511719 2.96875 1.23828 2.08984 2.69141 1.36328Z" fill="black"/>
</svg>
