<svg width="134" height="72" viewBox="0 0 134 72" fill="none" xmlns="http://www.w3.org/2000/svg">
<path d="M60.5 36L61.2071 36.7071L61.9142 36L61.2071 35.2929L60.5 36ZM15.5 35C14.9477 35 14.5 35.4477 14.5 36C14.5 36.5523 14.9477 37 15.5 37L15.5 35ZM43.2071 54.7071L61.2071 36.7071L59.7929 35.2929L41.7929 53.2929L43.2071 54.7071ZM61.2071 35.2929L43.2071 17.2929L41.7929 18.7071L59.7929 36.7071L61.2071 35.2929ZM60.5 35L15.5 35L15.5 37L60.5 37L60.5 35Z" fill="black"/>
<path d="M104.25 12H90.75C81.2041 12 76.4311 12 73.4655 15.0126C70.5 18.0252 70.5 22.874 70.5 32.5714V39.4286C70.5 49.126 70.5 53.9748 73.4655 56.9874C76.4311 60 81.2041 60 90.75 60H104.25C113.796 60 118.569 60 121.534 56.9874C124.5 53.9748 124.5 49.126 124.5 39.4286V32.5714C124.5 22.874 124.5 18.0252 121.534 15.0126C118.569 12 113.796 12 104.25 12Z" stroke="black" stroke-width="2"/>
<path d="M82.5 24H91.5" stroke="black" stroke-width="2" stroke-linecap="round"/>
<path d="M106.5 46V38C106.5 37.0572 106.5 36.5858 106.793 36.2929C107.086 36 107.557 36 108.5 36H122.5C123.443 36 123.914 36 124.207 36.2929C124.5 36.5858 124.5 37.0572 124.5 38V46C124.5 46.9428 124.5 47.4142 124.207 47.7071C123.914 48 123.443 48 122.5 48H108.5C107.557 48 107.086 48 106.793 47.7071C106.5 47.4142 106.5 46.9428 106.5 46Z" stroke="black" stroke-width="2"/>
</svg>
