<svg width="25" height="25" viewBox="0 0 25 25" fill="none" xmlns="http://www.w3.org/2000/svg">
<path d="M3.5 9.5V15.5C3.5 18.3284 3.5 19.7426 4.37868 20.6213C5.25736 21.5 6.67157 21.5 9.5 21.5H15.5C18.3284 21.5 19.7426 21.5 20.6213 20.6213C21.5 19.7426 21.5 18.3284 21.5 15.5V9.5C21.5 6.67157 21.5 5.25736 20.6213 4.37868C19.7426 3.5 18.3284 3.5 15.5 3.5H9.5" stroke="#504A48" stroke-width="2" stroke-linecap="round"/>
<path d="M15.5 15.5V16.5H16.5V15.5H15.5ZM8.20711 6.79289C7.81658 6.40237 7.18342 6.40237 6.79289 6.79289C6.40237 7.18342 6.40237 7.81658 6.79289 8.20711L8.20711 6.79289ZM14.5 8.5V15.5H16.5V8.5H14.5ZM15.5 14.5H8.5V16.5H15.5V14.5ZM16.2071 14.7929L8.20711 6.79289L6.79289 8.20711L14.7929 16.2071L16.2071 14.7929Z" fill="#504A48"/>
</svg>
