<svg width="18" height="19" viewBox="0 0 18 19" fill="none" xmlns="http://www.w3.org/2000/svg">
<mask id="path-1-outside-1_1453_4993" maskUnits="userSpaceOnUse" x="2" y="0.5" width="14" height="18" fill="black">
<rect fill="white" x="2" y="0.5" width="14" height="18"/>
<path d="M13.7074 9.29519L5.25877 3.38114C4.72855 3.00998 4 3.38931 4 4.03652V14.9635C4 15.6107 4.72855 15.99 5.25877 15.6189L13.7074 9.70481C13.8496 9.60528 13.8496 9.39472 13.7074 9.29519Z"/>
</mask>
<path d="M5.25877 3.38114L4.11185 5.0196L5.25877 3.38114ZM13.7074 9.29519L12.5605 10.9337H12.5605L13.7074 9.29519ZM13.7074 9.70481L14.8543 11.3433H14.8543L13.7074 9.70481ZM5.25877 15.6189L6.4057 17.2573L6.40569 17.2573L5.25877 15.6189ZM6.40569 1.74268L14.8543 7.65673L12.5605 10.9337L4.11185 5.0196L6.40569 1.74268ZM14.8543 11.3433L6.4057 17.2573L4.11185 13.9804L12.5605 8.06634L14.8543 11.3433ZM6 4.03652V14.9635H2V4.03652H6ZM6.40569 17.2573C4.54992 18.5564 2 17.2287 2 14.9635H6C6 13.9926 4.90717 13.4237 4.11185 13.9804L6.40569 17.2573ZM14.8543 7.65673C16.134 8.55246 16.134 10.4475 14.8543 11.3433L12.5605 8.06634C11.5652 8.76302 11.5652 10.237 12.5605 10.9337L14.8543 7.65673ZM4.11185 5.0196C4.90718 5.57634 6 5.00735 6 4.03652H2C2 1.77126 4.54992 0.443631 6.40569 1.74268L4.11185 5.0196Z" fill="#504A48" mask="url(#path-1-outside-1_1453_4993)"/>
</svg>
