<svg width="74" height="75" viewBox="0 0 74 75" fill="none" xmlns="http://www.w3.org/2000/svg">
<path d="M9.25 17.75C9.25 13.9788 9.25 12.0931 10.4216 10.9216C11.5931 9.75 13.4788 9.75 17.25 9.75H56.75C60.5212 9.75 62.4069 9.75 63.5784 10.9216C64.75 12.0931 64.75 13.9788 64.75 17.75V57.25C64.75 61.0212 64.75 62.9069 63.5784 64.0784C62.4069 65.25 60.5212 65.25 56.75 65.25H17.25C13.4788 65.25 11.5931 65.25 10.4216 64.0784C9.25 62.9069 9.25 61.0212 9.25 57.25V17.75Z" stroke="black" stroke-width="2"/>
<path fill-rule="evenodd" clip-rule="evenodd" d="M11.25 45.4568L23.9259 32.781C24.8839 31.8229 25.5633 31.1454 26.1301 30.7245C26.6886 30.3098 27.0409 30.2186 27.359 30.2799C27.6772 30.3411 27.9704 30.5566 28.3349 31.1491C28.7049 31.7504 29.0841 32.6318 29.6178 33.8771L35.3768 47.3148L35.3925 47.3515C35.6426 47.9353 35.8524 48.4247 36.0687 48.7764C36.295 49.1441 36.5902 49.4652 37.0536 49.5545C37.5171 49.6437 37.9104 49.4552 38.2571 49.1978C38.5886 48.9517 38.9651 48.5751 39.4142 48.126L39.4424 48.0978L46.8585 40.6817C47.5351 40.0051 48.0078 39.5339 48.4118 39.2257C48.8042 38.9263 49.0724 38.8282 49.3333 38.8282C49.5943 38.8282 49.8625 38.9263 50.2549 39.2257C50.6589 39.5339 51.1315 40.0051 51.8082 40.6817L61.3131 50.1866L62.0202 49.4795L52.5153 39.9746L52.4894 39.9487C51.8448 39.304 51.3251 38.7844 50.8615 38.4307C50.3801 38.0634 49.9008 37.8282 49.3333 37.8282C48.7658 37.8282 48.2865 38.0634 47.8052 38.4307C47.3415 38.7844 46.8219 39.304 46.1773 39.9487L46.1514 39.9746L38.7353 47.3907C38.2505 47.8755 37.926 48.1981 37.6609 48.395C37.4041 48.5857 37.3004 48.5836 37.2428 48.5725C37.1851 48.5614 37.0881 48.5248 36.9205 48.2524C36.7475 47.9712 36.566 47.5511 36.2959 46.9209L30.5369 33.4832L30.5197 33.4431C30.0071 32.2469 29.5999 31.2967 29.1867 30.6251C28.7635 29.9373 28.2721 29.4373 27.5481 29.2979C26.8242 29.1585 26.1823 29.4402 25.5339 29.9217C24.9008 30.3918 24.1698 31.1228 23.2496 32.0431L23.2188 32.0739L11.25 44.0426V45.4568Z" fill="black"/>
<path d="M23.9259 32.781L24.2794 33.1345L23.9259 32.781ZM11.25 45.4568H10.75V46.6639L11.6036 45.8104L11.25 45.4568ZM26.1301 30.7245L26.4282 31.1259L26.1301 30.7245ZM28.3349 31.1491L28.7608 30.8871V30.8871L28.3349 31.1491ZM29.6178 33.8771L30.0773 33.6802L29.6178 33.8771ZM35.3768 47.3148L35.8363 47.1179L35.8363 47.1179L35.3768 47.3148ZM35.3925 47.3515L35.852 47.1545L35.852 47.1545L35.3925 47.3515ZM36.0687 48.7764L36.4946 48.5144V48.5144L36.0687 48.7764ZM37.0536 49.5545L36.9591 50.0455H36.9591L37.0536 49.5545ZM38.2571 49.1978L38.5552 49.5992H38.5552L38.2571 49.1978ZM39.4142 48.126L39.0606 47.7725L39.0606 47.7725L39.4142 48.126ZM39.4424 48.0978L39.0888 47.7442L39.0888 47.7442L39.4424 48.0978ZM46.8585 40.6817L46.5049 40.3282L46.8585 40.6817ZM48.4118 39.2257L48.1085 38.8282L48.4118 39.2257ZM50.2549 39.2257L50.5582 38.8282L50.2549 39.2257ZM61.3131 50.1866L60.9596 50.5402L61.3131 50.8937L61.6667 50.5402L61.3131 50.1866ZM62.0202 49.4795L62.3738 49.8331L62.7273 49.4795L62.3738 49.126L62.0202 49.4795ZM52.5153 39.9746L52.8689 39.6211L52.8689 39.621L52.5153 39.9746ZM52.4894 39.9487L52.1359 40.3023L52.1359 40.3023L52.4894 39.9487ZM50.8615 38.4307L51.1648 38.0331V38.0331L50.8615 38.4307ZM47.8052 38.4307L47.5019 38.0331V38.0331L47.8052 38.4307ZM46.1773 39.9487L46.5308 40.3023L46.5308 40.3022L46.1773 39.9487ZM46.1514 39.9746L45.7978 39.621L45.7978 39.6211L46.1514 39.9746ZM38.7353 47.3907L39.0888 47.7442H39.0888L38.7353 47.3907ZM37.6609 48.395L37.959 48.7964H37.959L37.6609 48.395ZM37.2428 48.5725L37.1482 49.0635L37.1482 49.0635L37.2428 48.5725ZM36.9205 48.2524L36.4946 48.5144L36.9205 48.2524ZM36.2959 46.9209L35.8363 47.1179L36.2959 46.9209ZM30.5369 33.4832L30.9965 33.2862L30.9965 33.2862L30.5369 33.4832ZM30.5197 33.4431L30.0601 33.6401L30.0601 33.6401L30.5197 33.4431ZM29.1867 30.6251L29.6125 30.3631V30.3631L29.1867 30.6251ZM25.5339 29.9217L25.2358 29.5202V29.5202L25.5339 29.9217ZM23.2496 32.0431L23.6031 32.3966L23.6031 32.3966L23.2496 32.0431ZM23.2188 32.0739L23.5723 32.4274L23.2188 32.0739ZM11.25 44.0426L10.8964 43.6891L10.75 43.8355V44.0426H11.25ZM23.5723 32.4274L10.8964 45.1033L11.6036 45.8104L24.2794 33.1345L23.5723 32.4274ZM25.832 30.3231C25.2285 30.7712 24.5186 31.4812 23.5723 32.4274L24.2794 33.1345C25.2492 32.1647 25.8981 31.5195 26.4282 31.1259L25.832 30.3231ZM27.4536 29.7889C26.9332 29.6887 26.4363 29.8744 25.832 30.3231L26.4282 31.1259C26.9409 30.7452 27.1486 30.7485 27.2645 30.7708L27.4536 29.7889ZM28.7608 30.8871C28.3664 30.2461 27.974 29.8891 27.4536 29.7889L27.2645 30.7708C27.3803 30.7931 27.5744 30.8672 27.9091 31.4111L28.7608 30.8871ZM30.0773 33.6802C29.5502 32.4502 29.1547 31.5274 28.7608 30.8871L27.9091 31.4111C28.2551 31.9735 28.6179 32.8135 29.1582 34.0741L30.0773 33.6802ZM35.8363 47.1179L30.0773 33.6802L29.1582 34.0741L34.9172 47.5118L35.8363 47.1179ZM35.852 47.1545L35.8363 47.1179L34.9172 47.5118L34.9329 47.5484L35.852 47.1545ZM36.4946 48.5144C36.3019 48.2013 36.108 47.7517 35.852 47.1545L34.9329 47.5484C35.1773 48.1189 35.4028 48.6482 35.6429 49.0384L36.4946 48.5144ZM37.1482 49.0635C36.8883 49.0134 36.6921 48.8353 36.4946 48.5144L35.6429 49.0384C35.8979 49.453 36.2922 49.917 36.9591 50.0455L37.1482 49.0635ZM37.959 48.7964C37.6565 49.0211 37.4081 49.1136 37.1482 49.0635L36.9591 50.0455C37.626 50.1739 38.1644 49.8894 38.5552 49.5992L37.959 48.7964ZM39.0606 47.7725C38.6012 48.2319 38.2542 48.5772 37.959 48.7964L38.5552 49.5992C38.923 49.3261 39.3289 48.9184 39.7677 48.4795L39.0606 47.7725ZM39.0888 47.7442L39.0606 47.7725L39.7677 48.4795L39.796 48.4513L39.0888 47.7442ZM46.5049 40.3282L39.0888 47.7442L39.7959 48.4513L47.212 41.0353L46.5049 40.3282ZM48.1085 38.8282C47.6715 39.1615 47.1714 39.6617 46.5049 40.3282L47.212 41.0353C47.8989 40.3484 48.3441 39.9062 48.715 39.6232L48.1085 38.8282ZM49.3333 38.3282C48.9193 38.3282 48.5456 38.4946 48.1085 38.8282L48.715 39.6232C49.0627 39.3579 49.2255 39.3282 49.3333 39.3282V38.3282ZM50.5582 38.8282C50.1211 38.4946 49.7473 38.3282 49.3333 38.3282V39.3282C49.4412 39.3282 49.604 39.3579 49.9516 39.6232L50.5582 38.8282ZM52.1618 40.3282C51.4953 39.6617 50.9951 39.1615 50.5582 38.8282L49.9516 39.6232C50.3226 39.9062 50.7678 40.3484 51.4547 41.0353L52.1618 40.3282ZM61.6667 49.8331L52.1618 40.3282L51.4547 41.0353L60.9596 50.5402L61.6667 49.8331ZM61.6667 49.126L60.9596 49.8331L61.6667 50.5402L62.3738 49.8331L61.6667 49.126ZM52.1618 40.3282L61.6667 49.8331L62.3738 49.126L52.8689 39.6211L52.1618 40.3282ZM52.1359 40.3023L52.1618 40.3282L52.8689 39.621L52.843 39.5952L52.1359 40.3023ZM50.5582 38.8282C50.9891 39.1569 51.482 39.6484 52.1359 40.3023L52.843 39.5952C52.2075 38.9597 51.6612 38.4119 51.1648 38.0331L50.5582 38.8282ZM49.3333 38.3282C49.7474 38.3282 50.1212 38.4947 50.5582 38.8282L51.1648 38.0331C50.6391 37.6321 50.0542 37.3282 49.3333 37.3282V38.3282ZM48.1085 38.8282C48.5455 38.4947 48.9193 38.3282 49.3333 38.3282V37.3282C48.6124 37.3282 48.0276 37.6321 47.5019 38.0331L48.1085 38.8282ZM46.5308 40.3022C47.1847 39.6484 47.6776 39.1569 48.1085 38.8282L47.5019 38.0331C47.0055 38.4119 46.4592 38.9597 45.8237 39.5951L46.5308 40.3022ZM46.5049 40.3282L46.5308 40.3023L45.8237 39.5951L45.7978 39.621L46.5049 40.3282ZM39.0888 47.7442L46.5049 40.3282L45.7978 39.6211L38.3817 47.0371L39.0888 47.7442ZM37.959 48.7964C38.2608 48.5723 38.616 48.2171 39.0888 47.7442L38.3817 47.0371C37.8849 47.5339 37.5911 47.824 37.3628 47.9935L37.959 48.7964ZM37.1482 49.0635C37.2542 49.0839 37.3825 49.0851 37.5365 49.0333C37.6706 48.9882 37.8085 48.9082 37.959 48.7964L37.3628 47.9935C37.3114 48.0317 37.2742 48.0554 37.2491 48.0696C37.2239 48.0838 37.2142 48.0867 37.2178 48.0855C37.2225 48.0839 37.2403 48.0786 37.2682 48.0771C37.2819 48.0763 37.2955 48.0766 37.3087 48.0777C37.3217 48.0788 37.3319 48.0805 37.3373 48.0815L37.1482 49.0635ZM36.4946 48.5144C36.5928 48.6741 36.6911 48.7996 36.7989 48.8913C36.9226 48.9965 37.0423 49.0431 37.1482 49.0635L37.3373 48.0815C37.3428 48.0826 37.3528 48.0848 37.3653 48.0886C37.378 48.0924 37.3907 48.0973 37.4031 48.103C37.4285 48.1149 37.443 48.1264 37.4468 48.1296C37.4497 48.132 37.4418 48.1258 37.4237 48.1032C37.4056 48.0807 37.3798 48.0449 37.3463 47.9904L36.4946 48.5144ZM35.8363 47.1179C36.0997 47.7325 36.2976 48.1942 36.4946 48.5144L37.3463 47.9904C37.1973 47.7482 37.0322 47.3697 36.7555 46.7239L35.8363 47.1179ZM30.0773 33.6802L35.8363 47.1179L36.7555 46.7239L30.9965 33.2862L30.0773 33.6802ZM30.0601 33.6401L30.0773 33.6802L30.9965 33.2862L30.9793 33.2461L30.0601 33.6401ZM28.7608 30.8871C29.1502 31.52 29.5414 32.4297 30.0601 33.6401L30.9793 33.2462C30.4727 32.0641 30.0495 31.0734 29.6125 30.3631L28.7608 30.8871ZM27.4536 29.7889C27.9742 29.8891 28.3666 30.2464 28.7608 30.8871L29.6125 30.3631C29.1603 29.6281 28.5699 28.9855 27.6427 28.8069L27.4536 29.7889ZM25.832 30.3231C26.4359 29.8746 26.9329 29.6886 27.4536 29.7889L27.6427 28.8069C26.7155 28.6284 25.9286 29.0057 25.2358 29.5202L25.832 30.3231ZM23.6031 32.3966C24.5343 31.4654 25.2354 30.7661 25.832 30.3231L25.2358 29.5202C24.5662 30.0175 23.8054 30.7801 22.896 31.6895L23.6031 32.3966ZM23.5723 32.4274L23.6031 32.3966L22.896 31.6895L22.8652 31.7203L23.5723 32.4274ZM11.6036 44.3962L23.5723 32.4274L22.8652 31.7203L10.8964 43.6891L11.6036 44.3962ZM10.75 44.0426V45.4568H11.75V44.0426H10.75Z" fill="black"/>
<circle cx="50.875" cy="23.625" r="4.625" stroke="black" stroke-width="2" stroke-linecap="round"/>
</svg>
