<svg width="30" height="30" viewBox="0 0 30 30" fill="none" xmlns="http://www.w3.org/2000/svg">
<path d="M14.62 29.24C22.6944 29.24 29.24 22.6944 29.24 14.62C29.24 6.5456 22.6944 0 14.62 0C6.54559 0 0 6.5456 0 14.62C0 22.6944 6.54559 29.24 14.62 29.24Z" fill="url(#paint0_linear_4947_33336)"/>
<path d="M19.15 9.08984C18.59 9.08984 18.14 9.53984 18.14 10.0998C18.14 10.6598 18.59 11.1098 19.15 11.1098C19.71 11.1098 20.16 10.6598 20.16 10.0998C20.16 9.53984 19.71 9.08984 19.15 9.08984Z" fill="#F1ECE8"/>
<path d="M14.6901 10.3789C12.3601 10.3789 10.4701 12.2689 10.4701 14.5989C10.4701 16.9289 12.3601 18.8189 14.6901 18.8189C17.0201 18.8189 18.9101 16.9289 18.9101 14.5989C18.9101 12.2689 17.0101 10.3789 14.6901 10.3789ZM14.6901 17.3089C13.2001 17.3089 11.9901 16.0989 11.9901 14.6089C11.9901 13.1189 13.2001 11.9089 14.6901 11.9089C16.1801 11.9089 17.3901 13.1189 17.3901 14.6089C17.3901 16.0989 16.1801 17.3089 14.6901 17.3089Z" fill="#F1ECE8"/>
<path d="M18.04 23.1693H11.2C8.36004 23.1693 6.05005 20.8593 6.05005 18.0193V11.1793C6.05005 8.3393 8.36004 6.0293 11.2 6.0293H18.04C20.88 6.0293 23.19 8.3393 23.19 11.1793V18.0193C23.19 20.8593 20.88 23.1693 18.04 23.1693ZM11.19 7.6393C9.24005 7.6393 7.65004 9.2293 7.65004 11.1793V18.0193C7.65004 19.9693 9.24005 21.5593 11.19 21.5593H18.03C19.98 21.5593 21.57 19.9693 21.57 18.0193V11.1793C21.57 9.2293 19.98 7.6393 18.03 7.6393H11.19Z" fill="#F1ECE8"/>
<defs>
<linearGradient id="paint0_linear_4947_33336" x1="29.24" y1="2.98552e-06" x2="-3.56853" y2="4.78812" gradientUnits="userSpaceOnUse">
<stop stop-color="#8F00FF"/>
<stop offset="1" stop-color="#B0A3FF"/>
</linearGradient>
</defs>
</svg>
