<svg width="30" height="30" viewBox="0 0 30 30" fill="none" xmlns="http://www.w3.org/2000/svg">
<path d="M14.62 29.24C22.6944 29.24 29.24 22.6944 29.24 14.62C29.24 6.5456 22.6944 0 14.62 0C6.54559 0 0 6.5456 0 14.62C0 22.6944 6.54559 29.24 14.62 29.24Z" fill="#712E19"/>
<path d="M19.1496 9.08984C18.5896 9.08984 18.1396 9.53984 18.1396 10.0998C18.1396 10.6598 18.5896 11.1098 19.1496 11.1098C19.7096 11.1098 20.1596 10.6598 20.1596 10.0998C20.1596 9.53984 19.7096 9.08984 19.1496 9.08984Z" fill="#F1ECE8"/>
<path d="M14.6897 10.3799C12.3597 10.3799 10.4697 12.2699 10.4697 14.5999C10.4697 16.9299 12.3597 18.8199 14.6897 18.8199C17.0197 18.8199 18.9097 16.9299 18.9097 14.5999C18.9097 12.2699 17.0097 10.3799 14.6897 10.3799ZM14.6897 17.3099C13.1997 17.3099 11.9897 16.0999 11.9897 14.6099C11.9897 13.1199 13.1997 11.9099 14.6897 11.9099C16.1797 11.9099 17.3897 13.1199 17.3897 14.6099C17.3897 16.0999 16.1797 17.3099 14.6897 17.3099Z" fill="#F1ECE8"/>
<path d="M18.0398 23.1698H11.1998C8.3598 23.1698 6.0498 20.8598 6.0498 18.0198V11.1798C6.0498 8.33979 8.3598 6.02979 11.1998 6.02979H18.0398C20.8798 6.02979 23.1898 8.33979 23.1898 11.1798V18.0198C23.1898 20.8598 20.8798 23.1698 18.0398 23.1698ZM11.1898 7.63978C9.2398 7.63978 7.6498 9.22979 7.6498 11.1798V18.0198C7.6498 19.9698 9.2398 21.5598 11.1898 21.5598H18.0298C19.9798 21.5598 21.5698 19.9698 21.5698 18.0198V11.1798C21.5698 9.22979 19.9798 7.63978 18.0298 7.63978H11.1898Z" fill="#F1ECE8"/>
</svg>
