<svg width="23" height="22" viewBox="0 0 23 22" fill="none" xmlns="http://www.w3.org/2000/svg">
<path d="M9.72241 11.0001L9.01531 10.293L8.3082 11.0001L9.01531 11.7072L9.72241 11.0001ZM17.7224 12.0001C18.2747 12.0001 18.7224 11.5524 18.7224 11.0001C18.7224 10.4478 18.2747 10.0001 17.7224 10.0001L17.7224 12.0001ZM13.4598 5.84856L9.01531 10.293L10.4295 11.7072L14.874 7.26277L13.4598 5.84856ZM9.01531 11.7072L13.4597 16.1517L14.874 14.7374L10.4295 10.293L9.01531 11.7072ZM9.72241 12.0001L17.7224 12.0001L17.7224 10.0001L9.72241 10.0001L9.72241 12.0001Z" fill="#504A48"/>
<path d="M7.94458 4.77783L7.05569 4.77783C6.07385 4.77783 5.27791 5.57377 5.27791 6.55561L5.27791 15.4445C5.27791 16.4263 6.07385 17.2223 7.05569 17.2223H7.94458" stroke="#504A48" stroke-width="2"/>
</svg>
