<svg width="519" height="384" viewBox="0 0 519 384" fill="none" xmlns="http://www.w3.org/2000/svg">
<path d="M192.154 266.693H176.799V293.719H139.648V266.693H83.9785V238.976L141.99 154.111H176.811V238.53H192.166L192.154 266.693ZM139.589 238.554V222.291C139.589 219.231 139.706 215.116 139.929 209.922C139.962 207.178 140.138 204.439 140.456 201.714H139.402C137.313 206.501 134.858 211.119 132.058 215.526L116.609 238.542L139.589 238.554Z" fill="#7A52F4"/>
<path d="M302.707 224.097C302.707 248.797 298.573 266.893 290.304 278.383C282.035 289.873 269.381 295.618 252.344 295.618C235.681 295.618 223.121 289.619 214.665 277.621C206.209 265.622 201.98 247.781 201.98 224.097C201.98 199.272 206.115 181.067 214.384 169.483C222.653 157.899 235.306 152.106 252.344 152.106C268.936 152.106 281.48 158.137 289.976 170.198C298.471 182.259 302.715 200.225 302.707 224.097ZM239.46 224.097C239.46 239.886 240.448 250.744 242.423 256.669C244.399 262.593 247.706 265.552 252.344 265.544C257.029 265.544 260.351 262.488 262.311 256.375C264.271 250.263 265.239 239.503 265.216 224.097C265.216 208.636 264.232 197.798 262.264 191.584C260.297 185.37 256.99 182.267 252.344 182.274C247.706 182.274 244.399 185.268 242.423 191.256C240.448 197.243 239.46 208.19 239.46 224.097Z" fill="#7A52F4"/>
<path d="M421.084 266.693H405.729V293.719H368.53V266.693H312.908V238.976L370.908 154.088H405.729V238.507H421.084V266.693ZM368.53 238.554V222.291C368.53 219.231 368.636 215.116 368.858 209.922C368.891 207.178 369.067 204.439 369.385 201.714H368.331C366.255 206.502 363.808 211.12 361.011 215.526L345.562 238.542L368.53 238.554Z" fill="#7A52F4"/>
<path d="M28.0977 185.076H84.4695" stroke="#504A48" stroke-width="2.16" stroke-linecap="round" stroke-linejoin="round"/>
<path d="M98.0098 185.076H110.038" stroke="#504A48" stroke-width="2.16" stroke-linecap="round" stroke-linejoin="round"/>
<path d="M17.8848 169.189H118.811" stroke="#504A48" stroke-width="2.16" stroke-linecap="round" stroke-linejoin="round"/>
<path d="M9.56972 169.189H1.26562" stroke="#504A48" stroke-width="2.16" stroke-linecap="round" stroke-linejoin="round"/>
<path d="M17.8848 154.1H51.394" stroke="#504A48" stroke-width="2.16" stroke-linecap="round" stroke-linejoin="round"/>
<path d="M60.3652 154.1H130.733" stroke="#504A48" stroke-width="2.16" stroke-linecap="round" stroke-linejoin="round"/>
<path d="M426.613 311.107H486.956" stroke="#504A48" stroke-width="2.16" stroke-linecap="round" stroke-linejoin="round"/>
<path d="M496.758 311.107H505.484" stroke="#504A48" stroke-width="2.16" stroke-linecap="round" stroke-linejoin="round"/>
<path d="M438.664 295.219H517.735" stroke="#504A48" stroke-width="2.16" stroke-linecap="round" stroke-linejoin="round"/>
<path d="M432.645 295.219H426.613" stroke="#504A48" stroke-width="2.16" stroke-linecap="round" stroke-linejoin="round"/>
<path d="M426.613 280.129H462.969" stroke="#504A48" stroke-width="2.16" stroke-linecap="round" stroke-linejoin="round"/>
<path d="M469.469 280.129H496.759" stroke="#504A48" stroke-width="2.16" stroke-linecap="round" stroke-linejoin="round"/>
<path d="M199.381 266.154H184.014V293.18H146.816V266.154H91.2051V238.46L149.205 153.572H184.014V237.991H199.381V266.154ZM146.827 238.014V221.752C146.827 218.704 146.937 214.58 147.155 209.382C147.189 206.639 147.365 203.9 147.682 201.175H146.675C144.581 205.94 142.126 210.538 139.331 214.928L123.871 237.944L146.827 238.014Z" stroke="#504A48" stroke-width="3.27" stroke-miterlimit="10"/>
<path d="M309.922 223.57C309.922 248.278 305.791 266.373 297.53 277.856C289.269 289.338 276.612 295.083 259.559 295.091C242.904 295.091 230.344 289.092 221.88 277.093C213.416 265.095 209.188 247.254 209.195 223.57C209.195 198.736 213.33 180.528 221.599 168.944C229.868 157.359 242.521 151.567 259.559 151.567C276.151 151.567 288.695 157.602 297.191 169.671C305.686 181.739 309.93 199.706 309.922 223.57ZM246.675 223.57C246.675 239.359 247.659 250.212 249.627 256.129C251.594 262.047 254.901 265.009 259.547 265.017C264.232 265.017 267.554 261.961 269.514 255.848C271.474 249.736 272.446 238.976 272.431 223.57C272.431 208.101 271.443 197.263 269.467 191.057C267.492 184.85 264.185 181.747 259.547 181.747C254.909 181.747 251.602 184.737 249.627 190.717C247.651 196.696 246.671 207.647 246.687 223.57H246.675Z" stroke="#504A48" stroke-width="3.27" stroke-miterlimit="10"/>
<path d="M428.299 266.154H412.944V293.18H375.745V266.154H320.135V238.46L378.135 153.572H412.944V237.991H428.299V266.154ZM375.745 238.014V221.752C375.745 218.704 375.855 214.58 376.073 209.382C376.107 206.639 376.283 203.9 376.6 201.175H375.558C373.464 205.94 371.009 210.538 368.214 214.928L352.812 237.991L375.745 238.014Z" stroke="#504A48" stroke-width="3.27" stroke-miterlimit="10"/>
<path d="M452.941 181.641V168.697" stroke="#504A48" stroke-width="2.16" stroke-linecap="round" stroke-linejoin="round"/>
<path d="M443.923 185.382L434.775 176.225" stroke="#504A48" stroke-width="2.16" stroke-linecap="round" stroke-linejoin="round"/>
<path d="M440.186 194.41H427.256" stroke="#504A48" stroke-width="2.16" stroke-linecap="round" stroke-linejoin="round"/>
<path d="M443.923 203.449L434.775 212.595" stroke="#504A48" stroke-width="2.16" stroke-linecap="round" stroke-linejoin="round"/>
<path d="M452.941 207.189V220.134" stroke="#504A48" stroke-width="2.16" stroke-linecap="round" stroke-linejoin="round"/>
<path d="M461.973 203.449L471.12 212.595" stroke="#504A48" stroke-width="2.16" stroke-linecap="round" stroke-linejoin="round"/>
<path d="M465.709 194.41H478.639" stroke="#504A48" stroke-width="2.16" stroke-linecap="round" stroke-linejoin="round"/>
<path d="M461.973 185.382L471.12 176.225" stroke="#504A48" stroke-width="2.16" stroke-linecap="round" stroke-linejoin="round"/>
<path d="M47.4355 246.081V236.725" stroke="#504A48" stroke-width="2.16" stroke-linecap="round" stroke-linejoin="round"/>
<path d="M40.9105 248.789L34.293 242.176" stroke="#504A48" stroke-width="2.16" stroke-linecap="round" stroke-linejoin="round"/>
<path d="M38.2059 255.32H28.8594" stroke="#504A48" stroke-width="2.16" stroke-linecap="round" stroke-linejoin="round"/>
<path d="M40.9105 261.852L34.293 268.464" stroke="#504A48" stroke-width="2.16" stroke-linecap="round" stroke-linejoin="round"/>
<path d="M47.4355 264.559V273.915" stroke="#504A48" stroke-width="2.16" stroke-linecap="round" stroke-linejoin="round"/>
<path d="M53.959 261.852L60.5648 268.464" stroke="#504A48" stroke-width="2.16" stroke-linecap="round" stroke-linejoin="round"/>
<path d="M56.6523 255.32H65.9988" stroke="#504A48" stroke-width="2.16" stroke-linecap="round" stroke-linejoin="round"/>
<path d="M53.959 248.789L60.5648 242.176" stroke="#504A48" stroke-width="2.16" stroke-linecap="round" stroke-linejoin="round"/>
<path d="M300.33 52.8437V43.4873" stroke="#504A48" stroke-width="2.16" stroke-linecap="round" stroke-linejoin="round"/>
<path d="M293.805 55.5523L287.199 48.9277" stroke="#504A48" stroke-width="2.16" stroke-linecap="round" stroke-linejoin="round"/>
<path d="M291.1 62.083H281.754" stroke="#504A48" stroke-width="2.16" stroke-linecap="round" stroke-linejoin="round"/>
<path d="M293.805 68.6133L287.199 75.2261" stroke="#504A48" stroke-width="2.16" stroke-linecap="round" stroke-linejoin="round"/>
<path d="M300.33 71.3105V80.667" stroke="#504A48" stroke-width="2.16" stroke-linecap="round" stroke-linejoin="round"/>
<path d="M306.854 68.6133L313.459 75.2261" stroke="#504A48" stroke-width="2.16" stroke-linecap="round" stroke-linejoin="round"/>
<path d="M309.547 62.083H318.893" stroke="#504A48" stroke-width="2.16" stroke-linecap="round" stroke-linejoin="round"/>
<path d="M306.854 55.5523L313.459 48.9277" stroke="#504A48" stroke-width="2.16" stroke-linecap="round" stroke-linejoin="round"/>
<path d="M118.811 131.33V90.8438H329.048V180.808" stroke="#504A48" stroke-width="2.16" stroke-linecap="round" stroke-linejoin="round"/>
<path d="M254.943 62.083V112.769H394.356V135.82" stroke="#504A48" stroke-width="2.16" stroke-linecap="round" stroke-linejoin="round"/>
<path d="M123.823 136.36C123.825 137.356 123.532 138.33 122.981 139.159C122.43 139.988 121.645 140.634 120.726 141.017C119.808 141.399 118.796 141.499 117.821 141.306C116.845 141.112 115.949 140.633 115.245 139.928C114.542 139.224 114.063 138.327 113.869 137.35C113.676 136.373 113.776 135.361 114.158 134.441C114.54 133.522 115.186 132.736 116.014 132.185C116.842 131.633 117.815 131.339 118.81 131.342C120.139 131.342 121.414 131.871 122.354 132.812C123.295 133.753 123.823 135.029 123.823 136.36V136.36Z" stroke="#504A48" stroke-width="2.16" stroke-linecap="round" stroke-linejoin="round"/>
<path d="M254.945 62.0716C257.713 62.0716 259.957 59.8249 259.957 57.0534C259.957 54.2819 257.713 52.0352 254.945 52.0352C252.176 52.0352 249.932 54.2819 249.932 57.0534C249.932 59.8249 252.176 62.0716 254.945 62.0716Z" stroke="#504A48" stroke-width="2.16" stroke-linecap="round" stroke-linejoin="round"/>
<path d="M399.37 141.378C399.372 142.373 399.079 143.347 398.528 144.175C397.978 145.004 397.194 145.651 396.276 146.033C395.358 146.416 394.347 146.517 393.372 146.324C392.396 146.131 391.5 145.653 390.796 144.95C390.092 144.247 389.613 143.351 389.418 142.375C389.223 141.399 389.322 140.387 389.702 139.467C390.082 138.547 390.726 137.761 391.552 137.208C392.379 136.655 393.351 136.359 394.345 136.359C395.676 136.359 396.952 136.888 397.894 137.828C398.836 138.769 399.366 140.046 399.37 141.378Z" stroke="#504A48" stroke-width="2.16" stroke-linecap="round" stroke-linejoin="round"/>
<path d="M334.073 186.659C334.073 187.651 333.779 188.622 333.228 189.447C332.677 190.272 331.894 190.915 330.978 191.295C330.062 191.675 329.054 191.774 328.082 191.581C327.109 191.387 326.216 190.909 325.515 190.207C324.814 189.505 324.337 188.611 324.143 187.638C323.95 186.664 324.049 185.655 324.428 184.738C324.808 183.821 325.45 183.038 326.275 182.486C327.099 181.935 328.068 181.641 329.06 181.641C330.389 181.641 331.664 182.169 332.604 183.11C333.545 184.052 334.073 185.328 334.073 186.659V186.659Z" stroke="#504A48" stroke-width="2.16" stroke-linecap="round" stroke-linejoin="round"/>
<path d="M86.1205 287.234L74.2559 299.112" stroke="#504A48" stroke-width="2.16" stroke-linecap="round" stroke-linejoin="round"/>
<path d="M74.2559 287.234L86.1205 299.112" stroke="#504A48" stroke-width="2.16" stroke-linecap="round" stroke-linejoin="round"/>
<path d="M92.06 114.692L80.1836 126.57" stroke="#504A48" stroke-width="2.16" stroke-linecap="round" stroke-linejoin="round"/>
<path d="M80.1836 114.692L92.06 126.57" stroke="#504A48" stroke-width="2.16" stroke-linecap="round" stroke-linejoin="round"/>
<path d="M477.046 249.375L465.182 261.264" stroke="#504A48" stroke-width="2.16" stroke-linecap="round" stroke-linejoin="round"/>
<path d="M465.182 249.375L477.046 261.264" stroke="#504A48" stroke-width="2.16" stroke-linecap="round" stroke-linejoin="round"/>
<path d="M140.198 46.8756C136.56 46.8707 133.038 48.1541 130.254 50.4986C128.796 46.0919 125.907 42.3002 122.048 39.727C118.188 37.1539 113.579 35.9472 108.956 36.2991C104.332 36.651 99.9582 38.5413 96.5315 41.669C93.1048 44.7967 90.8217 48.982 90.0458 53.5588C88.9372 53.2425 87.7903 53.0807 86.6375 53.078C83.4772 53.0527 80.4269 54.2382 78.1116 56.3917C75.7963 58.5451 74.3914 61.5035 74.1847 64.6604C73.9781 67.8174 74.9853 70.934 77.0001 73.3715C79.0149 75.809 81.8846 77.3828 85.0212 77.7705V77.8761H140.198C144.305 77.8761 148.243 76.243 151.147 73.3361C154.051 70.4293 155.682 66.4867 155.682 62.3758C155.682 58.2649 154.051 54.3224 151.147 51.4155C148.243 48.5087 144.305 46.8756 140.198 46.8756V46.8756Z" stroke="#504A48" stroke-width="2.26" stroke-linecap="round" stroke-linejoin="round"/>
<path d="M427.303 125.737C429.946 125.733 432.505 126.663 434.529 128.364C435.591 125.164 437.691 122.412 440.495 120.545C443.299 118.677 446.646 117.802 450.004 118.058C453.362 118.314 456.538 119.687 459.027 121.958C461.516 124.229 463.175 127.268 463.74 130.592C464.928 130.254 466.173 130.166 467.397 130.331C468.622 130.496 469.798 130.912 470.855 131.553C471.911 132.194 472.825 133.046 473.538 134.055C474.251 135.065 474.749 136.21 475.001 137.421C475.252 138.632 475.252 139.881 475 141.092C474.748 142.302 474.25 143.448 473.536 144.457C472.822 145.466 471.909 146.318 470.852 146.958C469.796 147.598 468.618 148.014 467.394 148.179V148.261H427.303C424.382 148.167 421.612 146.939 419.58 144.837C417.547 142.735 416.41 139.925 416.41 136.999C416.41 134.074 417.547 131.263 419.58 129.161C421.612 127.06 424.382 125.832 427.303 125.737V125.737Z" stroke="#504A48" stroke-width="2.16" stroke-linecap="round" stroke-linejoin="round"/>
<path d="M482.574 338.766C480.357 338.764 478.212 339.55 476.519 340.982C475.63 338.296 473.87 335.985 471.518 334.417C469.166 332.849 466.358 332.113 463.54 332.327C460.722 332.542 458.056 333.694 455.968 335.6C453.88 337.506 452.489 340.057 452.016 342.846C451.344 342.643 450.645 342.541 449.943 342.541C448.02 342.529 446.165 343.253 444.757 344.565C443.349 345.877 442.495 347.678 442.37 349.599C442.244 351.52 442.856 353.417 444.081 354.901C445.306 356.385 447.051 357.345 448.959 357.584V357.655H482.574C485.019 357.568 487.334 356.536 489.033 354.774C490.732 353.012 491.682 350.659 491.682 348.21C491.682 345.762 490.732 343.409 489.033 341.647C487.334 339.885 485.019 338.852 482.574 338.766V338.766Z" stroke="#504A48" stroke-width="2.16" stroke-linecap="round" stroke-linejoin="round"/>
<path d="M26.3301 318.834C28.9744 318.833 31.534 319.767 33.5566 321.472C34.6172 318.273 36.7159 315.52 39.519 313.652C42.3221 311.784 45.6685 310.908 49.0264 311.162C52.3842 311.417 55.5605 312.788 58.0503 315.058C60.5401 317.328 62.2005 320.365 62.7674 323.688C64.1073 323.303 65.5184 323.235 66.8892 323.489C68.2601 323.743 69.5531 324.313 70.6662 325.153C71.7793 325.994 72.6821 327.082 73.3033 328.331C73.9245 329.58 74.247 330.957 74.2455 332.353C74.2442 334.537 73.4499 336.646 72.0105 338.288C70.5712 339.929 68.5849 340.991 66.4216 341.276V341.358H26.3301C23.4093 341.263 20.6396 340.035 18.6069 337.934C16.5741 335.832 15.4375 333.021 15.4375 330.096C15.4375 327.171 16.5741 324.36 18.6069 322.258C20.6396 320.156 23.4093 318.929 26.3301 318.834V318.834Z" stroke="#504A48" stroke-width="2.16" stroke-linecap="round" stroke-linejoin="round"/>
<path d="M155.682 39.4424C155.682 39.4424 226.471 -18.3376 322.654 8.27779C423.697 36.2415 443.912 108.361 443.912 108.361" stroke="#504A48" stroke-width="2.16" stroke-linecap="round" stroke-linejoin="round" stroke-dasharray="3.27 7.62"/>
<path d="M48.7939 207.318C21.3517 211.574 7.5545 269.882 38.4284 293.027" stroke="#504A48" stroke-width="2.02" stroke-linecap="round" stroke-linejoin="round" stroke-dasharray="3.05 7.11"/>
<path d="M394.346 375.606C394.346 375.606 441.359 396.171 461.961 367.469" stroke="#504A48" stroke-width="2.16" stroke-linecap="round" stroke-linejoin="round" stroke-dasharray="3.27 7.62"/>
<path d="M170.709 141.378V111.655" stroke="#504A48" stroke-width="2.16" stroke-linecap="round" stroke-linejoin="round"/>
<path d="M163.541 141.378V126.569" stroke="#504A48" stroke-width="2.16" stroke-linecap="round" stroke-linejoin="round"/>
<path d="M279.82 148.249V126.522" stroke="#504A48" stroke-width="2.16" stroke-linecap="round" stroke-linejoin="round"/>
<path d="M271.67 146.396V137.392" stroke="#504A48" stroke-width="2.16" stroke-linecap="round" stroke-linejoin="round"/>
<path d="M264.455 146.396V131.33" stroke="#504A48" stroke-width="2.16" stroke-linecap="round" stroke-linejoin="round"/>
<path d="M177.596 141.378V126.522" stroke="#504A48" stroke-width="2.16" stroke-linecap="round" stroke-linejoin="round"/>
<path d="M374.363 145.517V138.869" stroke="#504A48" stroke-width="2.16" stroke-linecap="round" stroke-linejoin="round"/>
<path d="M367.195 145.517V129.325" stroke="#504A48" stroke-width="2.16" stroke-linecap="round" stroke-linejoin="round"/>
<path d="M381.25 145.517V133.944" stroke="#504A48" stroke-width="2.16" stroke-linecap="round" stroke-linejoin="round"/>
<path d="M193.489 365V340.885H208.749V345.4H198.599V350.895H207.489V355.34H198.599V360.485H209.064V365H193.489ZM223.28 345.4H218.8V352.19H223.14C224.074 352.19 224.809 351.84 225.345 351.14C225.905 350.44 226.185 349.658 226.185 348.795C226.185 347.955 225.917 347.185 225.38 346.485C224.867 345.762 224.167 345.4 223.28 345.4ZM225.52 356.46L231.505 365H225.345L219.955 356.67H218.8V365H213.655V340.885H223.525C226.092 340.885 228.064 341.667 229.44 343.23C230.84 344.77 231.54 346.625 231.54 348.795C231.54 350.638 231.027 352.272 230 353.695C228.974 355.118 227.48 356.04 225.52 356.46ZM245.565 345.4H241.085V352.19H245.425C246.359 352.19 247.094 351.84 247.63 351.14C248.19 350.44 248.47 349.658 248.47 348.795C248.47 347.955 248.202 347.185 247.665 346.485C247.152 345.762 246.452 345.4 245.565 345.4ZM247.805 356.46L253.79 365H247.63L242.24 356.67H241.085V365H235.94V340.885H245.81C248.377 340.885 250.349 341.667 251.725 343.23C253.125 344.77 253.825 346.625 253.825 348.795C253.825 350.638 253.312 352.272 252.285 353.695C251.259 355.118 249.765 356.04 247.805 356.46ZM264.001 347.815C262.624 349.238 261.936 350.965 261.936 352.995C261.936 355.025 262.624 356.752 264.001 358.175C265.377 359.575 267.057 360.275 269.041 360.275C271.024 360.275 272.704 359.563 274.081 358.14C275.481 356.717 276.181 355.002 276.181 352.995C276.181 350.965 275.481 349.238 274.081 347.815C272.704 346.392 271.024 345.68 269.041 345.68C267.057 345.68 265.377 346.392 264.001 347.815ZM256.826 352.995C256.826 349.565 258.004 346.648 260.361 344.245C262.741 341.818 265.634 340.605 269.041 340.605C272.471 340.605 275.364 341.818 277.721 344.245C280.101 346.648 281.291 349.565 281.291 352.995C281.291 356.402 280.101 359.318 277.721 361.745C275.341 364.148 272.447 365.35 269.041 365.35C265.634 365.35 262.741 364.148 260.361 361.745C258.004 359.318 256.826 356.402 256.826 352.995ZM295.194 345.4H290.714V352.19H295.054C295.988 352.19 296.723 351.84 297.259 351.14C297.819 350.44 298.099 349.658 298.099 348.795C298.099 347.955 297.831 347.185 297.294 346.485C296.781 345.762 296.081 345.4 295.194 345.4ZM297.434 356.46L303.419 365H297.259L291.869 356.67H290.714V365H285.569V340.885H295.439C298.006 340.885 299.978 341.667 301.354 343.23C302.754 344.77 303.454 346.625 303.454 348.795C303.454 350.638 302.941 352.272 301.914 353.695C300.888 355.118 299.394 356.04 297.434 356.46ZM307.75 364.51C307.166 363.95 306.875 363.25 306.875 362.41C306.875 361.57 307.166 360.882 307.75 360.345C308.333 359.785 309.045 359.505 309.885 359.505C310.725 359.505 311.436 359.785 312.02 360.345C312.626 360.905 312.93 361.593 312.93 362.41C312.93 363.25 312.626 363.95 312.02 364.51C311.436 365.07 310.725 365.35 309.885 365.35C309.045 365.35 308.333 365.07 307.75 364.51ZM317.525 364.51C316.942 363.95 316.65 363.25 316.65 362.41C316.65 361.57 316.942 360.882 317.525 360.345C318.108 359.785 318.82 359.505 319.66 359.505C320.5 359.505 321.212 359.785 321.795 360.345C322.402 360.905 322.705 361.593 322.705 362.41C322.705 363.25 322.402 363.95 321.795 364.51C321.212 365.07 320.5 365.35 319.66 365.35C318.82 365.35 318.108 365.07 317.525 364.51ZM327.3 364.51C326.717 363.95 326.425 363.25 326.425 362.41C326.425 361.57 326.717 360.882 327.3 360.345C327.884 359.785 328.595 359.505 329.435 359.505C330.275 359.505 330.987 359.785 331.57 360.345C332.177 360.905 332.48 361.593 332.48 362.41C332.48 363.25 332.177 363.95 331.57 364.51C330.987 365.07 330.275 365.35 329.435 365.35C328.595 365.35 327.884 365.07 327.3 364.51Z" fill="#504A48"/>
</svg>
