<svg width="17" height="16" viewBox="0 0 17 16" fill="none" xmlns="http://www.w3.org/2000/svg">
<path d="M12.043 3.95703L10.25 3.11328L12.043 2.30469L12.8867 0.511719L13.6953 2.30469L15.4883 3.11328L13.6953 3.95703L12.8867 5.75L12.043 3.95703ZM14.9609 8.52734L14.3633 7.26172L13.8008 8.52734L12.5 9.125L13.8008 9.72266L14.3633 10.9883L14.9609 9.72266L16.2617 9.125L14.9609 8.52734ZM11.1641 9.79297L12.6406 10.8828L10.7773 14.1172L9.08984 13.4141C8.92578 13.5312 8.76172 13.625 8.59766 13.6953L8.38672 15.4883H4.625L4.41406 13.6953C4.22656 13.6016 4.0625 13.5078 3.92188 13.4141L2.23438 14.1172L0.371094 10.8828L1.8125 9.75781C1.8125 9.73438 1.8125 9.69922 1.8125 9.65234C1.8125 9.60547 1.8125 9.55859 1.8125 9.51172C1.8125 9.46484 1.8125 9.41797 1.8125 9.37109C1.8125 9.32422 1.8125 9.27734 1.8125 9.23047L0.371094 8.10547L2.23438 4.87109L3.92188 5.57422C4.08594 5.45703 4.25 5.36328 4.41406 5.29297L4.625 3.5H8.38672L8.59766 5.29297C8.76172 5.38672 8.92578 5.48047 9.08984 5.57422L10.7773 4.87109L12.6406 8.14062L11.1641 9.23047C11.1875 9.27734 11.1992 9.32422 11.1992 9.37109C11.1992 9.41797 11.1992 9.46484 11.1992 9.51172C11.1992 9.55859 11.1992 9.60547 11.1992 9.65234C11.1992 9.69922 11.1875 9.74609 11.1641 9.79297ZM8.73828 9.51172C8.73828 9.08984 8.63281 8.71484 8.42188 8.38672C8.23438 8.03516 7.96484 7.76562 7.61328 7.57812C7.28516 7.36719 6.91016 7.26172 6.48828 7.26172C6.08984 7.26172 5.71484 7.36719 5.36328 7.57812C5.03516 7.76562 4.76562 8.03516 4.55469 8.38672C4.34375 8.71484 4.23828 9.08984 4.23828 9.51172C4.23828 9.91016 4.34375 10.2852 4.55469 10.6367C4.76562 10.9648 5.03516 11.2344 5.36328 11.4453C5.71484 11.6562 6.08984 11.7617 6.48828 11.7617C6.91016 11.7617 7.28516 11.6562 7.61328 11.4453C7.96484 11.2344 8.23438 10.9648 8.42188 10.6367C8.63281 10.2852 8.73828 9.91016 8.73828 9.51172Z" fill="black"/>
</svg>
