<svg width="19" height="18" viewBox="0 0 19 18" fill="none" xmlns="http://www.w3.org/2000/svg">
<mask id="path-1-outside-1_756_978" maskUnits="userSpaceOnUse" x="2.5" y="0" width="14" height="18" fill="black">
<rect fill="white" x="2.5" width="14" height="18"/>
<path d="M14.2074 8.79519L5.75877 2.88114C5.22855 2.50998 4.5 2.88931 4.5 3.53652V14.4635C4.5 15.1107 5.22855 15.49 5.75877 15.1189L14.2074 9.20481C14.3496 9.10528 14.3496 8.89472 14.2074 8.79519Z"/>
</mask>
<path d="M5.75877 2.88114L4.61185 4.5196L5.75877 2.88114ZM14.2074 8.79519L13.0605 10.4337H13.0605L14.2074 8.79519ZM14.2074 9.20481L15.3543 10.8433H15.3543L14.2074 9.20481ZM5.75877 15.1189L6.9057 16.7573L6.90569 16.7573L5.75877 15.1189ZM6.90569 1.24268L15.3543 7.15673L13.0605 10.4337L4.61185 4.5196L6.90569 1.24268ZM15.3543 10.8433L6.9057 16.7573L4.61185 13.4804L13.0605 7.56634L15.3543 10.8433ZM6.5 3.53652V14.4635H2.5V3.53652H6.5ZM6.90569 16.7573C5.04992 18.0564 2.5 16.7287 2.5 14.4635H6.5C6.5 13.4926 5.40717 12.9237 4.61185 13.4804L6.90569 16.7573ZM15.3543 7.15673C16.634 8.05246 16.634 9.94755 15.3543 10.8433L13.0605 7.56634C12.0652 8.26302 12.0652 9.73698 13.0605 10.4337L15.3543 7.15673ZM4.61185 4.5196C5.40718 5.07634 6.5 4.50735 6.5 3.53652H2.5C2.5 1.27126 5.04992 -0.0563686 6.90569 1.24268L4.61185 4.5196Z" fill="#F7DBC0" mask="url(#path-1-outside-1_756_978)"/>
</svg>
