<svg width="16" height="16" viewBox="0 0 16 16" fill="none" xmlns="http://www.w3.org/2000/svg">
<path d="M14.0405 3.37373C14.431 2.98321 14.431 2.35004 14.0405 1.95952C13.65 1.56899 13.0168 1.56899 12.6263 1.95952L14.0405 3.37373ZM1.95964 12.6262C1.56912 13.0167 1.56912 13.6499 1.95964 14.0404C2.35017 14.4309 2.98333 14.4309 3.37385 14.0404L1.95964 12.6262ZM3.37385 1.95952C2.98333 1.56899 2.35017 1.56899 1.95964 1.95952C1.56912 2.35004 1.56912 2.98321 1.95964 3.37373L3.37385 1.95952ZM12.6263 14.0404C13.0168 14.4309 13.65 14.4309 14.0405 14.0404C14.431 13.6499 14.431 13.0167 14.0405 12.6262L12.6263 14.0404ZM12.6263 1.95952L7.29297 7.29285L8.70719 8.70707L14.0405 3.37373L12.6263 1.95952ZM7.29297 7.29285L1.95964 12.6262L3.37385 14.0404L8.70719 8.70707L7.29297 7.29285ZM1.95964 3.37373L7.29297 8.70707L8.70719 7.29285L3.37385 1.95952L1.95964 3.37373ZM7.29297 8.70707L12.6263 14.0404L14.0405 12.6262L8.70719 7.29285L7.29297 8.70707Z" fill="#ADA4A0"/>
</svg>
