<svg width="14" height="12" viewBox="0 0 14 12" fill="none" xmlns="http://www.w3.org/2000/svg">
<path d="M7.99951 1.41669V2.72919H-0.000488281V1.41669H1.99951L2.65576 0.729187H5.31201L5.99951 1.41669H7.99951ZM0.655762 10.0729V3.41669H7.31201V10.0729C7.31201 10.4271 7.1766 10.7396 6.90576 11.0104C6.65576 11.2813 6.35368 11.4167 5.99951 11.4167H1.99951C1.64535 11.4167 1.33285 11.2813 1.06201 11.0104C0.791178 10.7396 0.655762 10.4271 0.655762 10.0729ZM8.65576 6.07294H12.6558V7.41669H8.65576V6.07294ZM8.65576 3.41669H13.312V4.72919H8.65576V3.41669ZM8.65576 8.72919H11.312V10.0729H8.65576V8.72919Z" fill="black"/>
</svg>
