<svg width="24" height="24" viewBox="0 0 24 24" fill="none" xmlns="http://www.w3.org/2000/svg">
<path d="M11.5943 16.6699L11.1086 15.7957L11.5943 16.6699ZM11.5943 7.33014L11.1086 8.2043L11.5943 7.33014ZM12.0799 6.45599L18.9122 10.2517L17.9409 12L11.1086 8.2043L12.0799 6.45599ZM18.9122 13.7483L12.0799 17.544L11.1086 15.7957L17.9409 12L18.9122 13.7483ZM12 7.67981V16.3202H10V7.67981H12ZM12.0799 17.544C11.1468 18.0624 10 17.3877 10 16.3202H12C12 15.8627 11.5085 15.5735 11.1086 15.7957L12.0799 17.544ZM18.9122 10.2517C20.2838 11.0137 20.2838 12.9863 18.9122 13.7483L17.9409 12L17.9409 12L18.9122 10.2517ZM11.1086 8.2043C11.5085 8.42648 12 8.1373 12 7.67981H10C10 6.61233 11.1468 5.93757 12.0799 6.45599L11.1086 8.2043Z" fill="#F1ECE8"/>
<path d="M2.59426 16.6699L2.10861 15.7957L2.59426 16.6699ZM2.59426 7.33014L2.10861 8.2043L2.59426 7.33014ZM3.0799 6.45599L9.91216 10.2517L8.94087 12L2.10861 8.2043L3.0799 6.45599ZM9.91216 13.7483L3.0799 17.544L2.10861 15.7957L8.94087 12L9.91216 13.7483ZM3 7.67981V16.3202H1V7.67981H3ZM3.0799 17.544C2.14676 18.0624 1 17.3877 1 16.3202H3C3 15.8627 2.50853 15.5735 2.10861 15.7957L3.0799 17.544ZM9.91216 10.2517C11.2838 11.0137 11.2838 12.9863 9.91216 13.7483L8.94087 12L8.94087 12L9.91216 10.2517ZM2.10861 8.2043C2.50853 8.42648 3 8.1373 3 7.67981H1C1 6.61233 2.14676 5.93757 3.0799 6.45599L2.10861 8.2043Z" fill="#F1ECE8"/>
<path d="M22 17L22 7" stroke="#F1ECE8" stroke-width="2" stroke-linecap="round"/>
</svg>
