<svg width="24" height="24" viewBox="0 0 24 24" fill="none" xmlns="http://www.w3.org/2000/svg">
<path d="M12.4057 16.6699L12.8914 15.7957L12.4057 16.6699ZM12.4057 7.33014L12.8914 8.2043L12.4057 7.33014ZM11.9201 6.45599L5.08784 10.2517L6.05913 12L12.8914 8.2043L11.9201 6.45599ZM5.08784 13.7483L11.9201 17.544L12.8914 15.7957L6.05913 12L5.08784 13.7483ZM12 7.67981V16.3202H14V7.67981H12ZM11.9201 17.544C12.8532 18.0624 14 17.3877 14 16.3202H12C12 15.8627 12.4915 15.5735 12.8914 15.7957L11.9201 17.544ZM5.08784 10.2517C3.71622 11.0137 3.71622 12.9863 5.08784 13.7483L6.05913 12L6.05913 12L5.08784 10.2517ZM12.8914 8.2043C12.4915 8.42648 12 8.1373 12 7.67981H14C14 6.61233 12.8532 5.93757 11.9201 6.45599L12.8914 8.2043Z" fill="#F1ECE8"/>
<path d="M21.4057 16.6699L21.8914 15.7957L21.4057 16.6699ZM21.4057 7.33014L21.8914 8.2043L21.4057 7.33014ZM20.9201 6.45599L14.0878 10.2517L15.0591 12L21.8914 8.2043L20.9201 6.45599ZM14.0878 13.7483L20.9201 17.544L21.8914 15.7957L15.0591 12L14.0878 13.7483ZM21 7.67981V16.3202H23V7.67981H21ZM20.9201 17.544C21.8532 18.0624 23 17.3877 23 16.3202H21C21 15.8627 21.4915 15.5735 21.8914 15.7957L20.9201 17.544ZM14.0878 10.2517C12.7162 11.0137 12.7162 12.9863 14.0878 13.7483L15.0591 12L15.0591 12L14.0878 10.2517ZM21.8914 8.2043C21.4915 8.42648 21 8.1373 21 7.67981H23C23 6.61233 21.8532 5.93757 20.9201 6.45599L21.8914 8.2043Z" fill="#F1ECE8"/>
<path d="M2 17L2 7" stroke="#F1ECE8" stroke-width="2" stroke-linecap="round"/>
</svg>
