<svg width="48" height="48" viewBox="0 0 48 48" fill="none" xmlns="http://www.w3.org/2000/svg">
<rect x="1" y="1" width="46" height="46" rx="23" fill="white" stroke="white" stroke-linecap="square"/>
<path d="M30.3437 21.25C30.3645 21.3333 30.375 21.4687 30.375 21.6562C30.375 23.1562 30.0104 24.6042 29.2812 26C28.5312 27.4791 27.4791 28.6562 26.125 29.5312C24.6458 30.5104 22.9479 31 21.0312 31C19.1979 31 17.5208 30.5104 16 29.5312C16.2292 29.5521 16.4896 29.5625 16.7812 29.5625C18.3021 29.5625 19.6667 29.0937 20.875 28.1562C20.1458 28.1562 19.5052 27.9427 18.9531 27.5156C18.401 27.0885 18.0208 26.5521 17.8125 25.9062C18.0208 25.9271 18.2187 25.9375 18.4062 25.9375C18.6979 25.9375 18.9896 25.9062 19.2812 25.8437C18.5312 25.6771 17.9062 25.2916 17.4062 24.6875C16.9062 24.0833 16.6562 23.3958 16.6562 22.625V22.5625C17.1146 22.8333 17.6042 22.9792 18.125 23C17.6875 22.6875 17.3333 22.2917 17.0625 21.8125C16.7917 21.3333 16.6562 20.8073 16.6562 20.2344C16.6562 19.6615 16.8125 19.1146 17.125 18.5937C17.9375 19.6146 18.9323 20.4271 20.1094 21.0312C21.2864 21.6354 22.5417 21.9687 23.875 22.0312C23.8333 21.7812 23.8125 21.5312 23.8125 21.2812C23.8125 20.6979 23.9583 20.151 24.25 19.6406C24.5416 19.1302 24.9375 18.7292 25.4375 18.4375C25.9375 18.1458 26.4791 18 27.0625 18C27.5416 18 27.9843 18.0937 28.3906 18.2812C28.7968 18.4687 29.1562 18.7187 29.4687 19.0312C30.2187 18.8854 30.9166 18.625 31.5625 18.25C31.3125 19.0208 30.8333 19.625 30.125 20.0625C30.75 19.9792 31.375 19.8021 32 19.5312C31.5416 20.1979 30.9895 20.7708 30.3437 21.25Z" fill="#00A2F3"/>
</svg>
