<svg width="76" height="68" viewBox="0 0 76 68" fill="none" xmlns="http://www.w3.org/2000/svg">
<path d="M44.9769 20.7688L45.8738 20.3266L44.9769 20.7688ZM36.3308 3.23125L37.2277 2.78906L36.3308 3.23125ZM35.0432 1.30165L35.5713 0.452482V0.452482L35.0432 1.30165ZM46.2645 22.6983L46.7926 21.8492V21.8492L46.2645 22.6983ZM74.4142 23.5858L73.7071 24.2929V24.2929L74.4142 23.5858ZM37 49L36.2929 49.7071L37.0889 50.5031L37.7855 49.6189L37 49ZM25.6667 2H50.3333V0H25.6667V2ZM74 25.5786V41.9643H76V25.5786H74ZM50.3333 65.5429H25.6667V67.5429H50.3333V65.5429ZM2 41.9643V25.5786H0V41.9643H2ZM25.6667 65.5429C19.8245 65.5429 15.5431 65.5407 12.2664 65.1018C9.01813 64.6666 6.90746 63.8186 5.31819 62.235L3.90651 63.6518C5.92959 65.6676 8.53209 66.6194 12.0009 67.0841C15.4412 67.545 19.8808 67.5429 25.6667 67.5429V65.5429ZM0 41.9643C0 47.7291 -0.00213873 52.1537 0.460524 55.5827C0.927118 59.0408 1.88293 61.6354 3.90651 63.6518L5.31819 62.235C3.72942 60.6519 2.87906 58.5503 2.44256 55.3153C2.00214 52.0511 2 47.7859 2 41.9643H0ZM74 41.9643C74 47.7859 73.9979 52.0511 73.5574 55.3153C73.1209 58.5503 72.2706 60.6519 70.6818 62.235L72.0935 63.6518C74.1171 61.6354 75.0729 59.0408 75.5395 55.5827C76.0021 52.1537 76 47.7291 76 41.9643H74ZM50.3333 67.5429C56.1192 67.5429 60.5588 67.545 63.9991 67.0841C67.4679 66.6194 70.0704 65.6676 72.0935 63.6518L70.6818 62.235C69.0925 63.8186 66.9819 64.6666 63.7336 65.1018C60.4569 65.5407 56.1755 65.5429 50.3333 65.5429V67.5429ZM50.3333 2C56.1755 2 60.4569 2.00211 63.7336 2.44108C66.9819 2.87624 69.0925 3.72423 70.6818 5.30782L72.0935 3.89108C70.0704 1.87522 67.4679 0.923485 63.9991 0.458786C60.5588 -0.00210881 56.1192 0 50.3333 0V2ZM76 25.5786C76 19.8137 76.0021 15.3891 75.5395 11.9602C75.0729 8.50208 74.1171 5.90743 72.0935 3.89108L70.6818 5.30782C72.2706 6.89092 73.1209 8.9926 73.5574 12.2276C73.9979 15.4917 74 19.757 74 25.5786H76ZM25.6667 0C19.8808 0 15.4412 -0.00210881 12.0009 0.458786C8.53209 0.923485 5.92959 1.87522 3.90651 3.89108L5.31819 5.30782C6.90746 3.72423 9.01813 2.87624 12.2664 2.44108C15.5431 2.00211 19.8245 2 25.6667 2V0ZM2 25.5786C2 19.757 2.00214 15.4917 2.44256 12.2276C2.87906 8.9926 3.72942 6.89092 5.31819 5.30782L3.90651 3.89108C1.88293 5.90743 0.927118 8.50208 0.460524 11.9602C-0.00213873 15.3891 0 19.8137 0 25.5786H2ZM71 22H48.5646V24H71V22ZM45.8738 20.3266L37.2277 2.78906L35.4339 3.67344L44.08 21.2109L45.8738 20.3266ZM32.7431 0H28V2H32.7431V0ZM76 45V27H74V45H76ZM37.2277 2.78906C36.9693 2.26492 36.7431 1.80318 36.5147 1.44013C36.2739 1.05737 35.988 0.711622 35.5713 0.452482L34.5151 2.15083C34.5834 2.19334 34.6737 2.26974 34.8218 2.50504C34.9822 2.76005 35.1572 3.11229 35.4339 3.67344L37.2277 2.78906ZM32.7431 2C33.3687 2 33.7621 2.00124 34.0617 2.03236C34.3382 2.06107 34.4467 2.10831 34.5151 2.15083L35.5713 0.452482C35.1546 0.193342 34.7181 0.0897574 34.2683 0.0430546C33.8417 -0.00124395 33.3275 0 32.7431 0V2ZM48.5646 22C47.939 22 47.5456 21.9988 47.246 21.9676C46.9695 21.9389 46.861 21.8917 46.7926 21.8492L45.7364 23.5475C46.1531 23.8067 46.5896 23.9102 47.0394 23.9569C47.466 24.0012 47.9802 24 48.5646 24V22ZM44.08 21.2109C44.3384 21.7351 44.5646 22.1968 44.793 22.5599C45.0338 22.9426 45.3197 23.2884 45.7364 23.5475L46.7926 21.8492C46.7243 21.8067 46.6339 21.7303 46.4859 21.495C46.3255 21.24 46.1505 20.8877 45.8738 20.3266L44.08 21.2109ZM71 24C71.9711 24 72.5988 24.0021 73.0613 24.0643C73.495 24.1226 73.631 24.2168 73.7071 24.2929L75.1213 22.8787C74.6117 22.369 73.9833 22.1703 73.3278 22.0821C72.701 21.9979 71.9145 22 71 22V24ZM76 27C76 26.0855 76.0021 25.299 75.9179 24.6722C75.8297 24.0167 75.631 23.3883 75.1213 22.8787L73.7071 24.2929C73.7832 24.369 73.8774 24.505 73.9357 24.9387C73.9979 25.4012 74 26.0289 74 27H76ZM27.2929 40.7071L36.2929 49.7071L37.7071 48.2929L28.7071 39.2929L27.2929 40.7071ZM37.7855 49.6189L50.7855 33.1189L49.2145 31.8811L36.2145 48.3811L37.7855 49.6189Z" fill="#000"/>
</svg>
