<svg width="76" height="68" viewBox="0 0 76 68" fill="none" xmlns="http://www.w3.org/2000/svg">
<path d="M1 25.5786C1 13.9921 1 8.1989 4.61235 4.59945C8.2247 1 14.0387 1 25.6667 1H50.3333C61.9613 1 67.7753 1 71.3877 4.59945C75 8.1989 75 13.9921 75 25.5786V41.9643C75 53.5507 75 59.344 71.3877 62.9434C67.7753 66.5429 61.9613 66.5429 50.3333 66.5429H25.6667C14.0387 66.5429 8.2247 66.5429 4.61235 62.9434C1 59.344 1 53.5507 1 41.9643V25.5786Z" stroke="#000" stroke-width="2"/>
<path d="M28 1H32.7431C33.9531 1 34.5581 1 35.0432 1.30165C35.5282 1.60331 35.7957 2.14595 36.3308 3.23125L44.9769 20.7688C45.512 21.854 45.7795 22.3967 46.2645 22.6983C46.7496 23 47.3546 23 48.5646 23H71C72.8856 23 73.8284 23 74.4142 23.5858C75 24.1716 75 25.1144 75 27V45" stroke="#000" stroke-width="2"/>
<path d="M44.949 28.949L37.6054 36.2927L39.0196 37.7069L46.3632 30.3632L44.949 28.949ZM37.6054 36.2927L29.9493 43.9488L31.3635 45.363L39.0196 37.7069L37.6054 36.2927ZM29.9493 30.0507L37.6054 37.7069L39.0196 36.2927L31.3635 28.6365L29.9493 30.0507ZM37.6054 37.7069L44.949 45.0505L46.3632 43.6363L39.0196 36.2927L37.6054 37.7069Z" fill="#000"/>
</svg>
