<svg width="107" height="114" viewBox="0 0 107 114" fill="none" xmlns="http://www.w3.org/2000/svg">
<g clip-path="url(#clip0_136_5474)">
<path d="M49.8869 109.464C49.9825 108.753 50.0918 108.029 50.1601 107.318C50.5973 102.548 50.9798 97.7914 51.4579 93.0347C51.6082 91.6269 52.018 90.2327 52.3595 88.8522C52.4962 88.2781 52.9333 87.9227 53.5617 87.9227C54.1901 87.9227 54.6409 88.2918 54.7912 88.8385C55.1601 90.2874 55.5699 91.7499 55.7202 93.2261C56.212 98.01 56.5945 102.794 57.018 107.578C57.0726 108.22 57.1819 108.863 57.2639 109.505C57.3322 109.505 57.4005 109.505 57.4825 109.505C57.5644 108.849 57.66 108.193 57.7147 107.523C58.1655 102.575 58.589 97.6273 59.0945 92.693C59.2174 91.4765 59.5453 90.2874 59.8322 89.0846C59.9961 88.4285 60.4059 87.9227 61.1573 87.9091C61.895 87.8817 62.3048 88.4011 62.4688 89.0026C62.783 90.1644 63.1108 91.3399 63.2338 92.529C63.7119 97.2856 64.1081 102.056 64.5452 106.813C64.6272 107.728 64.7638 108.644 64.8731 109.56C64.9278 109.56 64.9961 109.56 65.0507 109.56C65.2283 107.988 65.4332 106.43 65.5835 104.858C66.0206 100.347 66.4168 95.8368 66.8676 91.3262C66.9496 90.5608 67.1682 89.809 67.4004 89.0709C67.5917 88.4832 67.9469 87.9501 68.6709 87.8954C69.3813 87.8544 69.8184 88.2918 69.9824 88.8795C70.2966 89.9593 70.6381 91.0665 70.7474 92.1873C71.2119 96.7389 71.5944 101.304 72.0179 105.856C72.1272 107.072 72.2911 108.302 72.4277 109.519C72.4823 109.519 72.5506 109.533 72.6053 109.533C72.7282 108.658 72.8649 107.797 72.9468 106.922C73.3157 102.862 73.6299 98.8028 74.026 94.7433C74.19 93.0894 74.4769 91.4492 74.7637 89.8227C74.832 89.3853 75.037 88.9479 75.2555 88.5652C75.7883 87.6494 76.8812 87.6084 77.3867 88.5515C77.7692 89.2759 78.0561 90.1234 78.1517 90.9298C78.5615 94.3879 78.8757 97.8597 79.2173 101.331C79.4768 103.915 79.7091 106.498 79.955 109.081C79.9686 109.204 79.9959 109.328 80.0233 109.451C80.0779 109.451 80.1326 109.464 80.2009 109.464C80.2965 108.808 80.4194 108.166 80.4741 107.51C80.9522 102.384 81.3894 97.2583 81.9085 92.1326C82.0315 90.9981 82.4003 89.8773 82.7145 88.7702C82.8648 88.2235 83.3019 87.8954 83.8894 87.8954C84.5178 87.8954 84.9959 88.2371 85.1052 88.7975C85.515 90.6838 85.9795 92.57 86.1708 94.4836C86.6762 99.2402 87.0451 104.01 87.4686 108.767C87.4959 109.013 87.5642 109.246 87.7691 109.505C87.8374 109.109 87.9194 108.712 87.9467 108.302C88.3839 103.491 88.78 98.6798 89.2445 93.8822C89.3811 92.488 89.668 91.0938 89.9139 89.7133C89.9822 89.3579 90.1325 89.0162 90.2964 88.7018C90.5286 88.2235 90.9248 87.8134 91.4713 87.9501C91.8811 88.0458 92.4549 88.3465 92.5642 88.6882C92.974 89.932 93.3702 91.2168 93.5204 92.5017C93.9439 96.3698 94.2171 100.265 94.5723 104.134C94.7363 105.938 94.9412 107.742 95.1324 109.56C95.2007 109.56 95.2691 109.574 95.3237 109.574C95.3647 109.314 95.433 109.04 95.4466 108.781C95.8292 104.544 96.157 100.293 96.6078 96.0555C96.8401 93.8002 97.2772 91.5585 97.6461 89.3169C97.7007 89.0162 97.851 88.7018 98.0423 88.4558C98.6024 87.6904 99.6952 87.6767 100.064 88.5242C100.529 89.5903 100.911 90.7521 101.034 91.9003C101.526 96.5885 101.908 101.29 102.332 105.979C102.441 107.154 102.605 108.316 102.742 109.478C102.796 109.478 102.865 109.492 102.919 109.492C102.947 109.287 103.001 109.095 103.015 108.89C103.425 104.38 103.794 99.8553 104.258 95.3584C104.463 93.3765 104.832 91.3945 105.187 89.4263C105.31 88.7155 105.665 88.1004 106.444 87.9227C106.512 87.9911 106.567 88.0184 106.567 88.0594C106.594 89.1939 106.854 90.2874 106.662 91.4765C106.212 94.3469 106.007 97.272 105.706 100.17C105.337 103.764 104.968 107.373 104.572 110.968C104.504 111.569 104.258 112.157 104.039 112.717C103.835 113.237 103.466 113.578 102.865 113.606C102.25 113.619 101.826 113.305 101.662 112.786C101.335 111.706 100.979 110.599 100.856 109.492C100.447 105.801 100.146 102.097 99.8045 98.4064C99.6269 96.4792 99.4357 94.5519 99.2444 92.6247C99.2171 92.406 99.1351 92.201 98.9302 92.0096C98.7936 93.0894 98.6297 94.1829 98.534 95.2627C98.2198 98.8985 97.9876 102.534 97.6051 106.156C97.3865 108.248 96.963 110.325 96.5669 112.403C96.4439 113.059 96.0477 113.565 95.2827 113.606C94.4904 113.647 94.0669 113.127 93.9303 112.485C93.5614 110.831 93.1926 109.15 93.015 107.469C92.5778 103.204 92.2499 98.9395 91.8674 94.675C91.7855 93.7455 91.6352 92.8297 91.3483 91.9003C91.1844 93.3901 90.9795 94.88 90.8429 96.3698C90.4057 100.976 89.9959 105.582 89.5451 110.175C89.4767 110.872 89.2582 111.555 89.0533 112.225C88.78 113.168 88.3292 113.578 87.6598 113.592C86.9768 113.592 86.4303 113.155 86.2254 112.184C85.9112 110.763 85.6243 109.328 85.474 107.892C85.0096 103.272 84.6271 98.6388 84.2036 94.0189C84.1489 93.3491 84.026 92.6794 83.8074 91.9959C83.7527 92.2283 83.6844 92.447 83.6571 92.6794C83.3566 95.9871 83.0834 99.3086 82.7418 102.616C82.4276 105.596 82.0451 108.576 81.6489 111.555C81.5943 111.993 81.3757 112.417 81.1981 112.827C80.9795 113.319 80.597 113.606 80.0233 113.606C79.4085 113.592 79.0124 113.25 78.8348 112.731C78.5479 111.856 78.2473 110.94 78.1517 110.025C77.7282 106.102 77.3867 102.179 77.0042 98.2561C76.8129 96.2878 76.6217 94.3196 76.4167 92.3376C76.4031 92.2283 76.3621 92.1326 76.1845 91.9959C76.1435 92.2146 76.0752 92.4333 76.0479 92.652C75.6381 97.1626 75.2692 101.687 74.8047 106.197C74.5998 108.166 74.231 110.107 73.9168 112.061C73.8758 112.307 73.7392 112.526 73.6299 112.758C73.3976 113.264 73.0288 113.592 72.4277 113.592C71.8266 113.592 71.3895 113.264 71.2528 112.731C70.8977 111.35 70.4878 109.956 70.3376 108.548C69.9141 104.585 69.6135 100.607 69.2583 96.6432C69.149 95.413 69.0261 94.1966 68.8895 92.9664C68.8485 92.6384 68.7665 92.324 68.6982 91.9959C68.6436 91.9959 68.5889 92.0096 68.5343 92.0096C68.466 92.5563 68.3977 93.1167 68.343 93.6635C67.9332 98.2014 67.5507 102.739 67.1135 107.277C66.9633 108.794 66.6627 110.298 66.4032 111.788C66.3485 112.143 66.1982 112.485 66.0206 112.813C65.7747 113.278 65.4059 113.701 64.8458 113.565C64.436 113.455 63.8622 113.182 63.7529 112.84C63.3431 111.665 62.9606 110.448 62.8376 109.232C62.3595 104.639 61.977 100.019 61.5535 95.4267C61.4442 94.2786 61.3076 93.1304 61.1846 91.9959C61.13 91.9959 61.0617 91.9959 61.007 91.9959C60.966 92.201 60.8841 92.4197 60.8704 92.6247C60.5016 96.7936 60.1874 100.976 59.7502 105.145C59.5043 107.51 59.0671 109.861 58.6846 112.225C58.63 112.526 58.4661 112.827 58.2885 113.073C57.6737 113.865 56.6218 113.865 56.2393 112.95C55.7885 111.884 55.4333 110.708 55.3103 109.56C54.7776 104.448 54.3404 99.3086 53.8623 94.1829C53.794 93.4585 53.6847 92.7477 53.589 92.0369C53.5207 92.0369 53.4661 92.0369 53.3978 92.0233C53.2612 93.0484 53.1109 94.0872 53.0153 95.1123C52.5781 99.869 52.182 104.639 51.6902 109.396C51.5672 110.53 51.1984 111.651 50.8705 112.758C50.7066 113.319 50.2421 113.633 49.6 113.606C48.917 113.565 48.5344 113.114 48.3978 112.567C48.0836 111.309 47.7558 110.052 47.6328 108.767C47.1 103.559 46.6355 98.3381 46.1437 93.1304C46.1028 92.734 46.0345 92.3377 45.9662 91.9413C45.9115 91.9413 45.8432 91.9413 45.7886 91.9413C45.6246 93.4995 45.447 95.044 45.2968 96.6022C44.9142 100.73 44.6 104.858 44.1629 108.986C44.0263 110.243 43.6574 111.473 43.3296 112.704C43.1793 113.264 42.7558 113.619 42.1137 113.619C41.4307 113.633 41.0208 113.223 40.8569 112.649C40.529 111.405 40.1602 110.134 40.0372 108.863C39.6411 105.036 39.3542 101.195 38.999 97.3676C38.8487 95.7137 38.6438 94.0599 38.4662 92.406C38.4525 92.3103 38.4116 92.201 38.234 92.0916C38.1793 92.3103 38.111 92.5427 38.0974 92.7614C37.6739 97.477 37.264 102.206 36.8132 106.922C36.622 108.835 36.499 110.776 35.775 112.608C35.5427 113.182 35.2149 113.592 34.5455 113.619C33.8624 113.647 33.4253 113.264 33.2887 112.676C32.9335 111.268 32.5236 109.861 32.387 108.425C31.8952 103.573 31.4991 98.7208 31.0619 93.8685C31.0073 93.2534 30.898 92.6384 30.816 92.0369C30.7477 92.0369 30.6931 92.0506 30.6247 92.0506C30.4745 93.3765 30.2969 94.6886 30.1739 96.0145C29.8187 99.9646 29.5182 103.915 29.122 107.851C28.9718 109.3 28.6439 110.722 28.3707 112.143C28.3024 112.471 28.1521 112.799 27.9608 113.059C27.3734 113.865 26.3625 113.865 25.898 112.991C25.5428 112.321 25.2833 111.555 25.1876 110.804C24.8324 108.166 24.5456 105.514 24.286 102.862C23.9445 99.4862 23.6576 96.1101 23.3434 92.7204C23.3161 92.4607 23.2478 92.201 23.0428 91.9413C22.8652 93.6498 22.674 95.3584 22.5101 97.0669C22.1002 101.4 21.7041 105.733 21.2806 110.052C21.2123 110.79 20.98 111.528 20.7751 112.253C20.5155 113.182 20.0511 113.606 19.368 113.606C18.6576 113.606 18.1522 113.223 17.9746 112.266C17.5647 110.052 17.1822 107.838 16.9363 105.596C16.4718 101.181 16.103 96.7526 15.7068 92.3376C15.6932 92.201 15.6658 92.0643 15.5019 91.9139C15.3926 92.7204 15.2424 93.5405 15.174 94.3469C14.7915 98.5705 14.4637 102.794 14.0538 107.004C13.9036 108.603 13.603 110.202 13.3435 111.802C13.2888 112.13 13.1249 112.444 12.9883 112.758C12.756 113.264 12.4008 113.606 11.7861 113.619C11.1304 113.633 10.7615 113.223 10.5566 112.704C10.297 112.048 10.0511 111.364 9.96917 110.681C9.51835 106.402 9.12218 102.111 8.71235 97.8324C8.52109 95.8914 8.32984 93.9505 8.13858 92.0233C8.08394 92.0096 8.01563 92.0096 7.96099 91.9959C7.90634 92.2146 7.82438 92.4333 7.79705 92.652C7.37356 97.2856 6.97739 101.906 6.54023 106.539C6.3763 108.193 6.10308 109.833 5.84352 111.473C5.77521 111.911 5.58396 112.348 5.40636 112.758C5.18778 113.264 4.8326 113.619 4.21785 113.619C3.57578 113.619 3.13862 113.25 3.00201 112.704C2.63316 111.282 2.22333 109.833 2.07305 108.384C1.6359 104.175 1.33536 99.951 0.925523 95.7274C0.747928 93.8958 0.379079 92.0779 0.215146 90.2464C0.14684 89.5083 0.420062 88.7428 0.543012 87.9364C1.41732 88.1414 1.77251 88.7839 1.8818 89.5083C2.27797 92.0506 2.67414 94.5929 2.94736 97.1353C3.37086 101.14 3.69872 105.159 4.06757 109.177C4.08124 109.287 4.10856 109.396 4.25883 109.519C4.29981 109.3 4.38178 109.068 4.39544 108.849C4.75063 104.899 5.0785 100.949 5.47467 97.0123C5.70691 94.675 6.04843 92.365 6.38996 90.0414C6.45827 89.563 6.64952 89.0709 6.90908 88.6472C7.48285 87.6767 8.6577 87.663 9.10852 88.7018C9.50469 89.604 9.80523 90.6018 9.90086 91.5722C10.379 96.1238 10.7615 100.689 11.1987 105.241C11.3216 106.512 11.4719 107.783 11.6222 109.04C11.6358 109.218 11.7041 109.382 11.909 109.546C12.032 108.562 12.1686 107.578 12.2506 106.58C12.6467 102.179 12.9746 97.7777 13.4254 93.3765C13.5757 91.8729 13.9992 90.3967 14.3544 88.9069C14.491 88.3191 14.9418 87.9227 15.5975 87.9364C16.2806 87.9501 16.7314 88.3738 16.868 88.9889C17.2369 90.6564 17.6604 92.3103 17.838 94.0052C18.3298 98.8302 18.7123 103.669 19.1494 108.494C19.1767 108.835 19.2587 109.163 19.3134 109.492C19.368 109.505 19.4363 109.505 19.491 109.519C19.5456 109.122 19.6276 108.712 19.6685 108.316C20.1467 103.149 20.5838 97.969 21.103 92.8024C21.2396 91.5039 21.6084 90.219 21.9363 88.9479C22.0866 88.3601 22.4964 87.9501 23.1658 87.9364C23.7942 87.9227 24.245 88.2645 24.3816 88.8385C24.7641 90.4651 25.215 92.1053 25.3925 93.7592C25.9253 98.7892 26.3352 103.833 26.786 108.863C26.7996 109.081 26.8679 109.287 27.0592 109.505C27.1002 109.259 27.1548 108.999 27.1821 108.753C27.6603 103.587 28.1111 98.4064 28.6302 93.2398C28.7668 91.9276 29.081 90.6428 29.3543 89.3579C29.4226 89.0436 29.6002 88.7155 29.8051 88.4558C30.4198 87.6767 31.4307 87.7177 31.8542 88.6335C32.2094 89.3989 32.51 90.2464 32.6193 91.0938C33.0154 94.4699 33.316 97.846 33.6438 101.222C33.8897 103.696 34.1083 106.17 34.3542 108.63C34.3815 108.931 34.4635 109.232 34.6958 109.519C34.8324 108.398 34.9826 107.291 35.0783 106.17C35.3925 102.63 35.6384 99.0899 35.9936 95.5497C36.1985 93.5678 36.5263 91.5859 36.8815 89.6176C37.0864 88.4832 37.6739 87.9364 38.3979 87.9501C39.0946 87.9638 39.7094 88.4832 39.8733 89.5903C40.3105 92.5427 40.693 95.4951 41.0072 98.4474C41.3897 102.165 41.6766 105.883 42.0044 109.601C42.0864 109.601 42.1684 109.601 42.2503 109.601C42.3733 108.576 42.5236 107.551 42.6192 106.512C42.947 102.862 43.2203 99.1992 43.5891 95.5497C43.7804 93.6225 44.1082 91.7226 44.3951 89.809C44.4498 89.4536 44.6137 89.1256 44.764 88.7839C45.0099 88.2371 45.406 87.8954 46.0345 87.9364C46.6629 87.9774 47.0727 88.3738 47.2093 88.9205C47.5235 90.0824 47.8514 91.2578 47.988 92.447C48.3568 95.7548 48.6164 99.0625 48.917 102.37C49.1355 104.749 49.3678 107.113 49.6 109.492C49.7093 109.464 49.8049 109.464 49.8869 109.464Z" fill="black"/>
<path d="M53.4934 66.4224C53.3432 66.7368 53.1246 67.0375 53.029 67.3655C52.4142 69.7985 51.8541 72.2315 51.2394 74.6508C50.9252 75.881 50.5836 77.0975 49.764 78.1363C49.0399 79.0657 47.3733 79.1477 46.6492 77.8629C46.1711 77.0018 45.7613 76.0587 45.5154 75.1019C44.9143 72.8193 44.4225 70.4956 43.8624 68.1993C43.7667 67.7756 43.6028 67.3792 43.4252 66.9828C43.3433 66.7915 43.1657 66.6411 43.029 66.4771C42.8788 66.6685 42.6739 66.8188 42.6056 67.0375C42.223 68.2813 41.8815 69.5252 41.54 70.769C40.9662 72.8876 40.4334 75.0335 39.805 77.1385C39.6411 77.6579 39.2039 78.1909 38.7531 78.519C37.7559 79.2434 36.4171 78.7924 35.857 77.4802C35.3242 76.2364 34.9417 74.9105 34.5865 73.5984C33.9991 71.4524 33.4936 69.2791 32.9472 67.1195C32.8789 66.8735 32.7013 66.6548 32.4827 66.2311C32.2231 66.7505 31.9909 67.0785 31.8953 67.4476C31.4581 69.1151 31.0483 70.7963 30.6384 72.4775C30.2149 74.2681 29.9554 76.0997 28.9718 77.7262C28.0565 79.2434 26.3079 79.2161 25.4336 77.6715C24.3953 75.8536 24.1221 73.817 23.6576 71.8215C23.3161 70.3863 22.9609 68.9511 22.5784 67.5159C22.4691 67.1332 22.2505 66.7915 21.991 66.2311C21.7587 66.6274 21.5675 66.8461 21.4992 67.1058C21.062 68.664 20.6385 70.2223 20.256 71.7805C19.7915 73.694 19.5183 75.676 18.603 77.4665C17.9609 78.724 16.7451 79.2434 15.7615 78.56C15.2697 78.2183 14.8052 77.6579 14.6003 77.0975C14.0675 75.5803 13.685 74.0084 13.2615 72.4502C12.7697 70.6323 12.3052 68.8007 11.7998 66.9828C11.7451 66.7915 11.5539 66.6274 11.4309 66.4498C11.2943 66.6138 11.0894 66.7368 11.0348 66.9282C10.6386 68.2813 10.2561 69.6345 9.88723 70.9877C9.34078 73.0106 8.84898 75.0472 8.23423 77.0291C8.05664 77.5895 7.59216 78.1636 7.11402 78.519C6.19873 79.1887 4.94191 78.806 4.36814 77.6579C3.89 76.6874 3.50749 75.6486 3.22061 74.6098C2.57854 72.2178 2.08674 69.7849 1.43101 67.3929C1.19877 66.5591 0.652325 65.8073 0.857241 64.8779C0.870902 64.7959 0.870902 64.7002 0.898224 64.6045C0.911885 64.5635 0.952869 64.5362 0.993852 64.4678C1.74521 64.4815 2.33264 64.8916 2.5922 65.534C3.16597 66.9828 3.68509 68.459 4.10858 69.9625C4.60038 71.7394 4.94191 73.5574 5.39272 75.3342C5.51568 75.8536 5.7889 76.332 5.98015 76.8378C6.04846 76.8514 6.11676 76.8651 6.18507 76.8788C6.33534 76.6327 6.54026 76.4004 6.62222 76.127C6.99107 74.8832 7.35992 73.6394 7.67413 72.3819C8.08396 70.7553 8.38451 69.0878 8.84898 67.4749C9.08122 66.6685 9.47739 65.862 9.98285 65.1649C10.7479 64.0988 12.155 64.1671 12.9473 65.2059C13.9036 66.4498 14.1905 67.967 14.573 69.4431C15.1331 71.6848 15.6932 73.9401 16.267 76.1817C16.3216 76.414 16.5129 76.6191 16.6358 76.8514C16.7041 76.8514 16.7724 76.8514 16.8407 76.8651C17.032 76.4277 17.3052 76.004 17.4145 75.5393C17.9336 73.448 18.3571 71.3157 18.9309 69.2381C19.2587 67.9943 19.6549 66.7368 20.2423 65.6023C21.0893 63.9758 22.9609 63.9894 23.7669 65.6433C24.3817 66.9145 24.7778 68.3087 25.1603 69.6892C25.6795 71.6164 26.0893 73.5847 26.5674 75.5256C26.6904 75.9903 26.9363 76.414 27.1412 76.8651C27.2095 76.8651 27.2915 76.8788 27.3598 76.8788C27.51 76.5781 27.7286 76.2774 27.8106 75.9493C28.4253 73.53 28.9854 71.0834 29.6002 68.664C29.9144 67.4339 30.2149 66.1764 31.0619 65.1786C31.9226 64.1535 33.2614 64.1398 34.0264 65.2333C34.5045 65.9304 34.9144 66.7368 35.1466 67.5432C35.6521 69.3611 35.9799 71.22 36.4444 73.0516C36.7313 74.1998 37.1138 75.3069 37.469 76.4414C37.51 76.5781 37.6329 76.7011 37.8515 77.0565C38.1384 76.3594 38.4389 75.84 38.5755 75.2796C39.081 73.2703 39.4908 71.2337 39.9963 69.2381C40.2832 68.1173 40.652 67.0102 41.0892 65.944C41.4307 65.1103 42.0455 64.4405 43.0154 64.4268C44.0126 64.4132 44.6684 65.0556 45.0236 65.9304C45.4334 66.9418 45.8023 67.967 46.0891 69.0194C46.7039 71.3431 47.2503 73.694 47.8378 76.0313C47.9061 76.3184 48.0973 76.5781 48.2339 76.8514C48.3022 76.8651 48.3705 76.8651 48.4388 76.8788C48.6164 76.5371 48.8487 76.1954 48.9443 75.8263C49.3815 74.1314 49.764 72.4229 50.2148 70.728C50.5973 69.2381 50.9798 67.7209 51.4853 66.2721C51.8268 65.3153 52.4415 64.4132 53.6164 64.4268C54.8186 64.4268 55.4606 65.3153 55.7885 66.3131C56.335 67.9943 56.7448 69.7302 57.1819 71.4387C57.5371 72.8056 57.8377 74.1861 58.2065 75.5393C58.3295 76.004 58.589 76.4277 58.794 76.8788C58.8623 76.8788 58.9306 76.8788 58.9989 76.8788C59.1355 76.6327 59.3131 76.4004 59.3814 76.1407C59.9825 73.8034 60.5426 71.4661 61.13 69.1288C61.4715 67.7619 61.7721 66.3677 62.6737 65.2196C63.5207 64.1398 64.8458 64.1398 65.6928 65.2196C66.7857 66.6138 67.0043 68.336 67.4278 69.9762C67.9605 72.0675 68.4933 74.1588 69.0398 76.25C69.0944 76.4687 69.272 76.6601 69.3813 76.8651C69.4496 76.8651 69.5316 76.8788 69.5999 76.8788C69.8185 76.332 70.1053 75.799 70.2556 75.2249C70.7201 73.366 71.0616 71.4934 71.5671 69.6482C71.9496 68.254 72.3458 66.8188 73.0152 65.5613C73.8895 63.9211 75.6517 64.0441 76.5534 65.6707C77.5916 67.5569 77.8785 69.6755 78.343 71.7394C78.6708 73.1746 79.067 74.6098 79.4632 76.0313C79.5452 76.332 79.7637 76.6054 79.9277 76.8924C80.0233 76.8924 80.1189 76.9061 80.2009 76.9061C80.4878 76.045 80.843 75.1839 81.0615 74.3091C81.6763 71.8898 82.2091 69.4431 82.8511 67.0238C83.0287 66.3404 83.4386 65.6843 83.8757 65.1239C84.6544 64.1535 85.9249 64.1808 86.7036 65.1513C87.0724 65.6297 87.4276 66.1764 87.5779 66.7505C88.138 68.7461 88.5888 70.7553 89.1079 72.7646C89.3948 73.8854 89.709 75.0062 90.0369 76.1133C90.1052 76.373 90.2691 76.5917 90.474 77.0018C90.6926 76.6737 90.8839 76.4961 90.9522 76.2774C91.485 74.2544 91.9904 72.2315 92.5369 70.2086C92.9057 68.8554 93.3019 67.5022 93.7527 66.1627C93.8893 65.7663 94.1489 65.3973 94.4357 65.0829C95.4057 64.0031 96.9767 64.2901 97.6734 65.739C98.1379 66.6958 98.5068 67.7209 98.7663 68.7461C99.2581 70.6186 99.6133 72.5185 100.064 74.4048C100.214 75.0609 100.46 75.7033 100.693 76.3457C100.761 76.5371 100.925 76.7011 101.171 77.0701C101.444 76.4277 101.717 75.9903 101.826 75.4983C102.387 73.2293 102.878 70.933 103.479 68.664C103.753 67.6116 104.176 66.6001 104.613 65.616C104.914 64.9599 105.474 64.5088 106.348 64.5088C106.321 65.3426 106.376 66.067 106.048 66.8872C105.447 68.418 105.105 70.0582 104.709 71.6711C104.231 73.653 103.958 75.7033 102.974 77.5349C102.086 79.2161 100.31 79.3118 99.3264 77.6852C98.3975 76.1407 98.1106 74.3775 97.7144 72.6416C97.3046 70.851 96.8401 69.0604 96.362 67.2835C96.28 66.9828 96.0204 66.7368 95.8428 66.4634C95.6653 66.7231 95.392 66.9692 95.3101 67.2699C94.9685 68.377 94.6543 69.4978 94.3674 70.6186C93.9713 72.2315 93.6844 73.8717 93.2336 75.4709C92.974 76.373 92.5642 77.2752 92.0451 78.0543C91.3074 79.1477 89.9139 79.1204 89.0806 78.1089C88.138 76.9608 87.8511 75.5393 87.4959 74.1588C86.9085 71.8215 86.3347 69.4842 85.7336 67.1469C85.6653 66.8872 85.4741 66.6548 85.2965 66.3131C84.5451 67.2835 84.3539 68.3223 84.108 69.3201C83.6435 71.22 83.2883 73.1473 82.7965 75.0472C82.5506 75.9767 82.1681 76.9061 81.7173 77.7536C80.9249 79.2297 79.0534 79.2434 78.2747 77.7672C77.7692 76.8104 77.3867 75.7716 77.0998 74.7328C76.4987 72.4502 76.0069 70.1266 75.4332 67.8303C75.3102 67.3519 74.9687 66.9282 74.7365 66.4908C74.4906 66.9282 74.1354 67.3245 74.0124 67.8029C73.4523 69.9899 72.9878 72.1905 72.4414 74.3775C72.0999 75.717 71.7993 77.0838 70.8567 78.1773C70.078 79.0794 68.7256 79.1341 68.0152 78.1773C67.5097 77.4939 67.0862 76.6874 66.8677 75.881C66.2119 73.448 65.6791 70.974 65.0781 68.5137C64.9415 67.9396 64.7092 67.3929 64.4906 66.8461C64.436 66.7095 64.2584 66.6138 64.1354 66.4908C64.0398 66.6001 63.8895 66.6958 63.8486 66.8325C63.4661 68.049 63.0699 69.2518 62.742 70.4819C62.1819 72.5732 61.6901 74.6645 61.13 76.7558C61.0344 77.1248 60.8158 77.4665 60.6109 77.7809C59.6819 79.2434 57.8923 79.2297 57.1 77.6852C56.5809 76.6874 56.212 75.5939 55.9251 74.5005C55.324 72.2315 54.8322 69.9489 54.2721 67.6662C54.1628 67.2425 53.9306 66.8461 53.753 66.4361C53.671 66.4361 53.5754 66.4224 53.4934 66.4224Z" fill="black"/>
<path d="M66.6491 21.4258C65.0507 23.8451 62.9469 25.1846 60.1191 25.1983C57.2912 25.212 55.1874 23.8451 53.5891 21.4532C52.0044 23.8315 49.8733 25.1983 47.0454 25.1983C44.2449 25.1846 42.1137 23.8451 40.5291 21.4395C38.958 23.8451 36.8269 25.1983 34.0264 25.1983C31.2259 25.1983 29.0811 23.8861 27.4827 21.4258C25.9117 23.8178 23.7806 25.1846 20.9527 25.1983C18.1249 25.212 16.0211 23.8451 14.45 21.4942C11.5675 25.2667 8.0703 26.3875 3.8217 24.0092C1.73155 22.82 0.201506 19.8129 0.515711 17.79C0.611339 17.7763 0.720628 17.7353 0.829916 17.7353C2.19603 17.6807 2.19603 17.6943 2.46925 19.0202C2.9064 21.1251 4.72333 22.902 7.04571 23.2437C9.24515 23.5718 11.0621 22.779 12.4145 20.9748C13.1112 20.0453 13.4801 18.9792 13.4801 17.7627C14.1222 17.7627 14.6959 17.7627 15.256 17.7627C16.185 21.6308 18.0975 23.4214 21.1576 23.2984C23.6849 23.2027 26.2669 21.3848 26.5811 17.7217C27.0592 17.7217 27.5647 17.6807 28.0428 17.749C28.1931 17.7763 28.398 18.1044 28.4253 18.3094C28.8215 21.3848 31.4308 23.5308 34.4772 23.2847C37.0591 23.066 39.1356 21.0841 39.5455 18.4324C39.5728 18.2274 39.6001 18.0224 39.6274 17.7763C40.2149 17.7763 40.7886 17.7763 41.3214 17.7763C41.5536 18.5554 41.7039 19.3346 42.0181 20.059C42.9607 22.2596 45.3651 23.5718 47.7421 23.2711C50.1875 22.9567 52.1547 21.0841 52.5372 18.7058C52.5918 18.3778 52.6601 17.8447 52.824 17.8037C53.2885 17.667 53.8213 17.708 54.2994 17.7763C54.4087 17.79 54.5317 18.1591 54.5727 18.3778C54.8186 20.2777 55.8022 21.6582 57.4415 22.615C60.1191 24.1868 63.9032 22.984 65.119 20.1137C65.4332 19.3756 65.6108 18.5691 65.8567 17.749C66.3485 17.749 66.9086 17.749 67.3868 17.749C67.701 18.6785 67.8922 19.6079 68.3157 20.4144C69.395 22.492 71.8949 23.6811 74.0397 23.2574C76.6217 22.7517 78.4523 20.8381 78.7118 18.3231C78.7665 17.872 78.8757 17.667 79.3675 17.708C79.7501 17.749 80.1326 17.7217 80.597 17.7217C80.7337 19.6353 81.485 21.2071 83.056 22.3143C84.1626 23.0797 85.3921 23.4487 86.7309 23.2984C88.985 23.0524 91.4849 21.5215 91.8811 17.7763C92.4549 17.7763 93.0286 17.7763 93.6707 17.7763C93.7663 19.5806 94.4767 21.0704 95.9111 22.1776C96.8811 22.9157 97.9876 23.3121 99.2035 23.3121C100.761 23.3257 102.086 22.7517 103.206 21.6855C104.313 20.6194 104.764 19.2662 104.9 17.7627C105.515 17.7627 106.075 17.7627 106.621 17.7627C107.059 19.6489 105.365 22.779 103.302 24.0228C101.471 25.13 99.545 25.4853 97.4685 24.9796C95.433 24.4876 93.9166 23.2301 92.7691 21.4805C89.4768 26.6198 82.6052 26.2098 79.6681 21.4668C78.1107 23.8041 75.9933 25.1983 73.1654 25.1983C70.3786 25.1846 68.2474 23.8588 66.6491 21.4258Z" fill="black"/>
<path d="M0.324341 2.31739C0.338002 2.23538 0.338002 2.22171 0.351663 2.19437C1.36258 0.813859 1.36258 0.813859 2.67405 1.921C4.36802 3.34252 6.062 4.75037 7.74232 6.15822C8.15215 6.5136 8.49368 6.56827 8.95815 6.15822C11.062 4.35399 13.2068 2.60442 15.3242 0.813859C15.7204 0.485817 15.98 0.417475 16.4171 0.800191C18.5209 2.60442 20.6657 4.35399 22.7695 6.15822C23.2886 6.59561 23.6438 6.48626 24.1083 6.10355C26.2121 4.32665 28.3296 2.59076 30.4197 0.800191C30.8159 0.45848 31.0618 0.45848 31.458 0.786522C33.5891 2.59076 35.7476 4.34032 37.8514 6.14455C38.3568 6.58194 38.7257 6.52727 39.1765 6.13088C41.3213 4.31298 43.4934 2.50875 45.6382 0.690843C45.9524 0.417475 46.1983 0.485817 46.4852 0.71818C48.6163 2.49508 50.7338 4.27197 52.8513 6.06254C53.5753 6.67762 53.5753 6.67762 54.313 6.06254C56.4441 4.28564 58.5753 2.52241 60.6927 0.731849C61.0342 0.444812 61.2528 0.485817 61.567 0.745517C63.7118 2.56342 65.8839 4.35399 68.0424 6.17189C68.4659 6.52727 68.7801 6.58194 69.2582 6.17189C71.3894 4.35399 73.5615 2.60442 75.6926 0.800191C76.0751 0.472148 76.2937 0.444812 76.7172 0.800191C78.821 2.60442 80.9794 4.35399 83.0969 6.13088C83.5341 6.49993 83.8756 6.59561 84.3674 6.17189C86.4849 4.35399 88.657 2.60442 90.7881 0.786522C91.1706 0.45848 91.4029 0.444812 91.7717 0.759186C93.8619 2.52241 95.952 4.25831 98.0422 6.00787C98.8345 6.67762 98.8208 6.67762 99.5995 6.02153C101.512 4.40866 103.438 2.82312 105.351 1.22391C105.624 0.991549 105.856 0.936875 106.089 1.26492C106.348 1.60663 106.621 1.93467 106.949 2.33106C106.143 3.01448 105.378 3.68423 104.599 4.32665C102.837 5.78917 101.048 7.23803 99.299 8.71422C98.9301 9.02859 98.7115 9.01492 98.329 8.70055C96.1433 6.85531 93.9302 5.03741 91.7307 3.20584C91.3892 2.9188 91.1979 2.90513 90.8291 3.2195C88.6297 5.07841 86.3756 6.89631 84.1761 8.75522C83.8346 9.04226 83.657 9.02859 83.3292 8.75522C81.1024 6.88265 78.8483 5.05108 76.6216 3.1785C76.3074 2.90513 76.1434 2.90513 75.8292 3.16483C73.6025 5.03741 71.3484 6.86898 69.1216 8.74155C68.7937 9.01492 68.6025 9.04226 68.261 8.75522C66.0479 6.89631 63.8211 5.07841 61.608 3.2195C61.2255 2.89146 61.0069 2.93247 60.6381 3.24684C58.4933 5.06474 56.2938 6.84164 54.1491 8.67321C53.6982 9.0696 53.425 9.00125 53.0152 8.64587C50.7338 6.70496 48.4114 4.80504 46.0617 2.85046C45.2967 3.4792 44.559 4.10795 43.8076 4.72303C42.1683 6.04887 40.5289 7.38838 38.9169 8.75522C38.5891 9.04226 38.3978 9.01492 38.0699 8.74155C35.7749 6.80064 33.4662 4.90072 31.1574 2.98714C31.1028 2.94614 31.0345 2.93247 30.9252 2.87779C29.4771 4.08062 28.0154 5.29711 26.54 6.5136C25.6247 7.26536 24.6957 8.00346 23.8078 8.78256C23.4799 9.0696 23.316 9.01492 23.0154 8.76889C20.816 6.92365 18.5892 5.13309 16.4171 3.27418C15.98 2.90513 15.7204 2.94614 15.3242 3.27418C13.1521 5.10575 10.9527 6.90998 8.78056 8.74155C8.49368 8.98759 8.28876 9.05593 7.96089 8.79623C5.47457 6.69129 2.96093 4.60002 0.447291 2.49508C0.392646 2.45407 0.365324 2.38573 0.324341 2.31739Z" fill="black"/>
<path d="M106.28 49.1864C106.294 49.4871 106.294 49.6785 106.321 49.8835C106.376 50.5532 106.362 51.0726 105.433 51.1957C104.968 51.2503 104.504 51.7424 104.135 52.1251C103.466 52.8632 102.919 53.7107 102.236 54.4351C100.091 56.704 97.0313 56.5537 95.0095 54.0934C94.5723 53.574 94.1625 53.0272 93.7527 52.4805C92.25 50.4986 90.2691 50.5122 88.7254 52.4805C88.0423 53.3553 87.3866 54.2984 86.5396 54.9955C84.4768 56.6767 81.7582 56.2803 80.0096 54.1617C79.4768 53.5193 79.0124 52.8085 78.4386 52.1935C76.8949 50.5259 75.1053 50.6353 73.7255 52.4258C73.2747 53.0136 72.7692 53.5876 72.3321 54.189C70.6244 56.4853 67.0589 56.7587 64.9824 54.1754C64.4633 53.533 63.9715 52.8905 63.4524 52.2618C62.0179 50.5396 60.1327 50.6079 58.7393 52.3711C58.1109 53.1639 57.4688 53.9704 56.7584 54.7084C54.9278 56.5947 51.8678 56.4443 50.1738 54.4351C49.5044 53.6423 48.8896 52.7949 48.1793 52.0294C46.8405 50.5942 45.1738 50.6626 43.876 52.1661C43.152 53.0136 42.4962 53.9293 41.7176 54.7084C39.8323 56.5947 36.9772 56.4853 35.1876 54.4898C34.6001 53.8337 34.04 53.1366 33.4936 52.4532C31.9772 50.5396 30.0646 50.5396 28.5483 52.4668C27.8652 53.3143 27.2368 54.2437 26.4308 54.9408C24.3816 56.7177 21.5674 56.3487 19.7915 54.189C19.286 53.574 18.8352 52.9179 18.3161 52.3165C16.7861 50.5396 14.9418 50.6079 13.5074 52.4532C12.9336 53.1913 12.3872 53.9567 11.7315 54.6128C9.68229 56.6767 6.73149 56.5263 4.84626 54.2984C4.25884 53.6013 3.76704 52.8222 3.12497 52.1935C2.61951 51.7151 1.92279 51.4417 1.33536 51.059C1.15777 50.9496 0.952851 50.7446 0.93919 50.5669C0.802579 49.1317 1.23973 48.8447 2.63317 49.4598C3.79436 49.9792 4.60036 50.895 5.35172 51.8791C5.69325 52.3301 6.03478 52.7949 6.43095 53.2049C7.71509 54.5444 9.45005 54.4898 10.6386 53.0682C11.2397 52.3575 11.7998 51.6057 12.4008 50.895C14.2997 48.667 17.3188 48.544 19.3543 50.6353C20.1057 51.4144 20.7341 52.3301 21.4445 53.1366C22.633 54.4898 24.4226 54.4898 25.5975 53.1366C26.1712 52.4942 26.6767 51.7971 27.2231 51.1273C28.5619 49.4598 30.2696 48.7763 32.3597 49.3231C33.6848 49.6648 34.5318 50.6763 35.3515 51.7014C35.8296 52.3028 36.2941 52.9315 36.8542 53.4509C37.9881 54.4761 39.3815 54.4487 40.4471 53.3416C41.1438 52.6308 41.7176 51.8107 42.3596 51.0316C44.5317 48.3936 48.029 48.4756 50.1328 51.3597C50.529 51.9064 50.9525 52.4532 51.3896 52.9726C52.7011 54.5308 54.5863 54.5171 55.8841 52.9589C56.5672 52.1388 57.1683 51.2367 57.9333 50.4986C60.0371 48.4346 63.1518 48.7217 65.0507 51.2093C65.5972 51.9338 66.1436 52.6719 66.7857 53.3006C68.0835 54.5581 69.6682 54.4487 70.8294 53.0682C71.4168 52.3711 71.9496 51.633 72.5507 50.9633C74.8047 48.4346 77.9195 48.5166 80.0506 51.1547C80.5014 51.7151 80.9796 52.2755 81.403 52.8632C82.6599 54.5991 84.8593 54.6674 86.3893 52.5215C87.127 51.469 87.8921 50.4166 89.0533 49.7331C90.6789 48.79 92.892 48.9677 94.2445 50.2799C95.0915 51.1 95.8018 52.0431 96.5669 52.9452C97.8783 54.5034 99.6406 54.5581 101.007 53.0272C101.854 52.0841 102.619 51.059 103.52 50.1569C104.19 49.4461 105.146 49.1181 106.28 49.1864Z" fill="black"/>
<path d="M106.84 32.3059C106.908 32.6066 106.936 32.7023 106.936 32.7843C107.018 34.2468 107.018 34.2468 105.57 34.3835C103.876 34.5475 102.441 35.3266 101.157 36.3791C98.6434 38.443 95.8428 39.5502 92.5369 39.2631C90.0915 39.0581 88.0424 38.0056 86.2118 36.4885C83.9714 34.6295 81.4167 33.9735 78.5752 34.4108C77.0725 34.6432 75.802 35.3676 74.5998 36.2698C73.343 37.2129 72.1135 38.197 70.5971 38.6891C66.936 39.8509 63.5344 39.4135 60.365 37.1309C59.1628 36.2561 57.9196 35.3266 56.5399 34.8209C53.7667 33.7958 51.0481 34.1375 48.5481 35.8187C47.0864 36.8028 45.652 37.9373 44.04 38.5934C41.1028 39.7825 38.0837 39.6322 35.2695 38.0877C33.8488 37.3086 32.5647 36.2698 31.1849 35.3813C28.8352 33.8641 24.5046 33.8914 21.9363 35.7777C20.5156 36.8165 19.0538 37.9236 17.4418 38.5661C14.0539 39.9056 10.7069 39.5638 7.61949 37.5272C6.59491 36.8575 5.62497 36.1057 4.60039 35.436C3.5075 34.7116 2.278 34.3835 0.980198 34.3562C0.37911 34.3425 0.160532 34.1238 0.228838 33.5497C0.269821 33.2217 0.228838 32.88 0.228838 32.4836C2.01844 32.4153 3.65777 32.7433 5.13317 33.6044C6.25338 34.2468 7.30529 35.0123 8.34353 35.7914C11.2943 37.992 15.7205 38.0193 18.6986 35.846C20.1467 34.7936 21.5128 33.5907 23.2614 33.044C26.4991 32.0325 29.6412 32.1829 32.5783 34.0418C33.6712 34.7389 34.6821 35.559 35.775 36.2424C38.6712 38.033 42.6875 37.828 45.4334 35.805C46.9088 34.7116 48.3159 33.4951 50.1328 32.962C53.3705 32.0325 56.4716 32.2239 59.3677 34.0965C60.7202 34.9713 61.9633 36.0921 63.4251 36.7071C66.4168 37.9783 69.3813 37.7186 72.0999 35.7914C73.6026 34.7389 74.9824 33.4814 76.7993 32.962C80.0916 32.0052 83.2337 32.2376 86.1435 34.1648C87.1407 34.8346 88.0833 35.6 89.0943 36.2287C91.9494 38.0193 96.1161 37.787 98.8073 35.764C100.283 34.6569 101.703 33.4541 103.52 32.9483C104.586 32.6476 105.692 32.5246 106.84 32.3059Z" fill="black"/>
</g>
<defs>
<clipPath id="clip0_136_5474">
<rect width="106.734" height="113.106" fill="white" transform="translate(0.228882 0.513184)"/>
</clipPath>
</defs>
</svg>
