<svg width="74" height="75" viewBox="0 0 74 75" fill="none" xmlns="http://www.w3.org/2000/svg">
<path d="M40.6127 9.75H27.7503C21.9363 9.75 19.0293 9.75 17.2232 11.5562C15.417 13.3623 15.417 16.2693 15.417 22.0833V52.9167C15.417 58.7307 15.417 61.6376 17.2232 63.4438C19.0293 65.25 21.9363 65.25 27.7503 65.25H46.2503C52.0643 65.25 54.9713 65.25 56.7775 63.4438C58.5837 61.6376 58.5837 58.7307 58.5837 52.9167V27.721C58.5837 26.4607 58.5837 25.8305 58.349 25.2639C58.1143 24.6973 57.6687 24.2517 56.7775 23.3605L44.9732 11.5562C44.082 10.665 43.6364 10.2194 43.0698 9.9847C42.5031 9.75 41.873 9.75 40.6127 9.75Z" stroke="black" stroke-width="2"/>
<path d="M42.7206 43.916L32.9075 39.7104C30.466 38.664 27.75 40.4549 27.75 43.1112V50.3888C27.75 53.0451 30.466 54.836 32.9075 53.7897L42.7206 49.584C45.2123 48.5162 45.2123 44.9838 42.7206 43.916Z" stroke="black" stroke-width="2" stroke-linecap="round" stroke-linejoin="round"/>
<path d="M40.083 9.75V22.0833C40.083 24.9903 40.083 26.4438 40.9861 27.3469C41.8892 28.25 43.3427 28.25 46.2497 28.25H58.583" stroke="black" stroke-width="2"/>
</svg>
