<svg width="16" height="16" viewBox="0 0 16 16" fill="none" xmlns="http://www.w3.org/2000/svg">
<path d="M11.7617 15.4883V14.0117H14.0117V11.7617H15.4883V14.3633C15.4883 14.668 15.3711 14.9375 15.1367 15.1719C14.9258 15.3828 14.668 15.4883 14.3633 15.4883H11.7617ZM4.23828 15.4883H1.63672C1.33203 15.4883 1.0625 15.3828 0.828125 15.1719C0.617188 14.9375 0.511719 14.668 0.511719 14.3633V11.7617H1.98828V14.0117H4.23828V15.4883ZM11.7617 0.511719H14.3633C14.668 0.511719 14.9258 0.628906 15.1367 0.863281C15.3711 1.07422 15.4883 1.33203 15.4883 1.63672V4.23828H14.0117V1.98828H11.7617V0.511719ZM4.23828 0.511719V1.98828H1.98828V4.23828H0.511719V1.63672C0.511719 1.33203 0.617188 1.07422 0.828125 0.863281C1.0625 0.628906 1.33203 0.511719 1.63672 0.511719H4.23828ZM8.73828 11.9375L11.7617 10.2148V6.76953L8.73828 8.49219V11.9375ZM8 7.19141L10.9883 5.46875L8 3.71094L5.01172 5.46875L8 7.19141ZM4.23828 10.2148L7.26172 11.9375V8.49219L4.23828 6.76953V10.2148ZM12.6758 4.69531C13.0508 4.92969 13.2383 5.25781 13.2383 5.67969V10.4258C13.2383 10.8477 13.0508 11.1758 12.6758 11.4102L8.5625 13.8008C8.1875 14.0352 7.8125 14.0352 7.4375 13.8008L3.32422 11.4102C2.94922 11.1758 2.76172 10.8477 2.76172 10.4258V5.67969C2.76172 5.25781 2.94922 4.92969 3.32422 4.69531L7.4375 2.30469C7.625 2.21094 7.8125 2.16406 8 2.16406C8.1875 2.16406 8.375 2.21094 8.5625 2.30469L12.6758 4.69531Z" fill="black"/>
</svg>
