<svg width="122" height="114" viewBox="0 0 122 114" fill="none" xmlns="http://www.w3.org/2000/svg">
<g clip-path="url(#clip0_136_5453)">
<path d="M121.405 33.5053C121.354 33.6312 121.287 33.7487 121.27 33.8746C121.169 34.8148 121.119 35.7633 120.968 36.6951C120.867 37.3247 120.623 37.9375 120.422 38.5419C120.22 39.1547 120.036 39.7675 119.775 40.3467C119.464 41.0266 119.128 41.7066 118.7 42.311C117.995 43.2931 117.213 44.2417 116.424 45.1651C115.592 46.1388 114.559 46.8943 113.484 47.5827C112.426 48.2626 111.292 48.7831 110.116 49.228C109.117 49.6141 108.117 49.9163 107.059 50.0255C105.824 50.1514 104.59 50.3109 103.355 50.3109C80.1655 50.3277 56.9674 50.3277 33.7778 50.3109C33.1563 50.3109 32.5011 50.1933 31.9132 49.9835C31.3505 49.782 31.0229 49.2616 30.8465 48.6824C30.7122 48.2458 30.645 47.8177 30.8213 47.3476C31.0565 46.7181 31.3841 46.1892 32.0476 45.9961C32.5263 45.8618 33.0471 45.7611 33.5426 45.7611C56.8582 45.7527 80.1823 45.7527 103.498 45.7443C104.497 45.7443 105.514 45.7107 106.496 45.5344C107.899 45.2826 109.226 44.7706 110.477 44.0654C112.577 42.8818 114.123 41.1693 115.29 39.1043C115.685 38.4076 115.954 37.6353 116.172 36.8714C116.407 36.0488 116.558 35.2009 116.693 34.3615C116.886 33.1275 116.693 31.9187 116.399 30.7183C116.231 30.0132 116.004 29.3248 115.777 28.6365C115.508 27.8222 115.105 27.0583 114.585 26.3784C114.047 25.6817 113.526 24.9513 112.905 24.3469C111.897 23.3648 110.746 22.5673 109.453 21.9797C108.277 21.4509 107.059 21.1403 105.782 20.9472C104.464 20.7457 103.154 20.7625 101.877 21.0395C101.155 21.1906 100.483 21.6439 99.8359 22.0385C98.9288 22.5925 98.3157 23.432 97.879 24.3889C97.5514 25.1024 97.333 25.8579 97.3666 26.6722C97.3918 27.3773 97.1566 28.0153 96.6191 28.519C96.0648 29.0478 95.4432 29.1989 94.6621 29.1066C93.9314 29.0142 93.4779 28.6281 93.1335 28.0741C92.9571 27.7803 92.806 27.4277 92.7808 27.0919C92.6884 25.8747 92.9403 24.7079 93.3183 23.5495C93.9482 21.602 95.0653 20.0154 96.6107 18.7143C97.5514 17.9252 98.6433 17.4048 99.7939 16.9347C101.348 16.2967 102.96 16.2463 104.581 16.2715C105.631 16.2883 106.698 16.389 107.731 16.6073C108.697 16.8088 109.621 17.2201 110.57 17.5391C112.77 18.2862 114.601 19.6041 116.239 21.2074C116.995 21.9545 117.717 22.7688 118.297 23.6586C118.96 24.6911 119.658 25.7236 120.019 26.924C120.237 27.6543 120.623 28.3511 120.766 29.0898C120.993 30.2986 121.085 31.541 121.245 32.7665C121.27 32.9344 121.346 33.0939 121.396 33.2534C121.405 33.3374 121.405 33.4213 121.405 33.5053Z" fill="black"/>
<path d="M72.388 0.0368084C72.5224 0.0871748 72.6568 0.171119 72.7996 0.196302C73.4043 0.297035 74.0174 0.330613 74.6053 0.490107C75.4368 0.708361 76.2767 0.951799 77.0662 1.28758C77.9649 1.66532 78.8216 2.13541 79.6699 2.62229C81.7697 3.83948 83.4411 5.53515 84.8017 7.52462C85.5156 8.57393 86.154 9.68199 86.5487 10.9076C86.7923 11.6631 87.1534 12.3934 87.2878 13.1741C87.5482 14.6515 87.8506 16.1373 87.7246 17.6483C87.649 18.5969 87.523 19.5538 87.3382 20.494C87.1786 21.325 86.9855 22.1645 86.6915 22.9536C86.3555 23.8434 85.944 24.7164 85.4736 25.539C84.6169 27.0332 83.5503 28.368 82.282 29.5432C81.2238 30.5337 80.0647 31.3815 78.788 32.0363C77.713 32.5903 76.5707 33.0436 75.4284 33.4298C74.6893 33.6816 73.8914 33.774 73.1103 33.8999C70.725 34.2776 68.3145 34.0678 65.9124 34.0845C61.1669 34.1181 56.4299 34.1013 51.6845 34.0845C50.601 34.0845 49.7443 33.6648 49.3328 32.5736C48.98 31.6334 49.274 30.4078 50.2147 29.8873C50.7102 29.6103 51.2225 29.476 51.7937 29.476C58.2861 29.4844 64.7785 29.4676 71.2625 29.476C72.1024 29.476 72.9171 29.3333 73.715 29.0815C74.3786 28.8632 75.0757 28.7289 75.7056 28.4435C77.5954 27.5789 79.2416 26.4037 80.5014 24.6996C81.1734 23.793 81.7781 22.8612 82.2064 21.8371C82.5256 21.0564 82.7524 20.2254 82.8784 19.3859C83.0295 18.387 83.0883 17.3629 83.0883 16.3555C83.0967 15.088 82.7608 13.8792 82.324 12.6872C81.9209 11.5791 81.3497 10.5886 80.6778 9.64002C79.8043 8.39764 78.6705 7.43229 77.4274 6.59284C76.4447 5.92969 75.378 5.42602 74.2526 5.09864C72.7912 4.67892 71.2709 4.48585 69.7507 4.67052C68.726 4.79644 67.7854 5.20777 66.8951 5.77019C65.778 6.47532 64.9885 7.44068 64.4258 8.59072C64.1822 9.08599 64.0142 9.64002 63.9134 10.1857C63.7958 10.8488 63.7874 11.5372 63.7202 12.2087C63.6614 12.8047 62.8383 13.9128 62.0068 13.938C61.3181 13.9547 60.621 14.0639 60.0415 13.5182C59.6131 13.1153 59.2604 12.6788 59.2604 12.0492C59.2688 11.2937 59.21 10.5298 59.3024 9.79112C59.3948 9.10277 59.6467 8.43962 59.8315 7.76806C60.1507 6.61803 60.7386 5.6107 61.4525 4.67892C62.4856 3.32742 63.695 2.17738 65.2489 1.43868C65.9544 1.1029 66.6515 0.758728 67.3822 0.490107C67.8273 0.322218 68.3313 0.30543 68.8016 0.196302C68.9276 0.171119 69.0452 0.0787804 69.1712 0.0200195C70.2631 0.0368084 71.3297 0.0368084 72.388 0.0368084Z" fill="black"/>
<path d="M54.221 62.5248C64.5265 62.5248 74.8405 62.5164 85.1461 62.5415C86.1036 62.5415 87.0695 62.785 88.0269 62.9025C89.06 63.0284 90.0511 63.3306 90.9918 63.7503C92.0585 64.2288 93.0999 64.7829 94.1078 65.3872C95.5189 66.2351 96.6863 67.3935 97.7446 68.6359C98.4585 69.4753 99.0296 70.4575 99.6092 71.406C100.18 72.3462 100.558 73.3787 100.886 74.4364C101.163 75.3262 101.323 76.2244 101.491 77.131C101.717 78.3566 101.751 79.5822 101.65 80.7994C101.558 81.8655 101.348 82.9316 101.071 83.9725C100.81 84.9378 100.424 85.8864 100.038 86.8098C99.5504 87.9766 98.8365 89.0091 98.0554 90.0081C97.0139 91.3428 95.8044 92.4928 94.4018 93.4582C93.3939 94.1549 92.3272 94.7425 91.185 95.179C90.5466 95.4225 89.9083 95.6743 89.27 95.9009C88.9592 96.0101 88.6317 96.094 88.3125 96.1444C87.6994 96.2451 87.0779 96.3207 86.4563 96.3962C85.902 96.4634 85.3477 96.5305 84.7933 96.5641C83.8946 96.6145 83.0211 96.455 82.1644 96.2115C81.4421 96.0017 80.6946 95.8422 80.0059 95.5568C79.376 95.2965 78.788 94.9272 78.2169 94.5578C77.2006 93.8863 76.3103 93.0636 75.5628 92.0899C74.8489 91.1581 74.2694 90.1424 73.8662 89.0427C73.6311 88.3879 73.5135 87.6912 73.3959 87.0029C73.2951 86.3901 73.2363 85.7689 73.2195 85.1477C73.1943 84.1068 73.7654 83.4772 74.7145 83.0491C75.924 82.5035 77.6542 83.5276 77.6962 84.8623C77.7046 85.1057 77.8222 85.3492 77.8138 85.5926C77.7886 86.7091 78.1749 87.708 78.7125 88.6398C79.4684 89.9661 80.619 90.9398 82.0133 91.4855C83.2731 91.9808 84.6422 92.1486 85.9944 91.9136C87.0863 91.7205 88.2033 91.5023 89.228 91.0909C90.2695 90.6628 91.2438 90.0332 92.1844 89.4037C93.7215 88.3711 94.8217 86.9189 95.6868 85.2988C96.0816 84.5601 96.3923 83.7542 96.6023 82.9484C96.8627 81.9746 97.0727 80.9673 97.1147 79.9683C97.1567 79.0366 96.9887 78.088 96.8459 77.1562C96.7451 76.4931 96.6107 75.8131 96.342 75.2003C95.9388 74.2518 95.4685 73.32 94.9141 72.4553C94.2422 71.406 93.3435 70.5162 92.3608 69.744C91.2522 68.8709 90.0427 68.2078 88.7157 67.7377C87.2542 67.2172 85.7508 67.0997 84.2138 67.0997C63.8882 67.1081 43.5626 67.1081 23.2371 67.0913C22.6407 67.0913 22.0024 66.9822 21.4733 66.7387C20.7258 66.403 20.3646 65.7146 20.3478 64.8668C20.3226 64.0022 20.6586 63.3558 21.4145 62.8941C21.8848 62.6087 22.372 62.5164 22.9095 62.5164C33.3495 62.5248 43.781 62.5248 54.221 62.5248Z" fill="black"/>
<path d="M45.1417 79.0451C47.0314 79.0451 48.9212 79.0703 50.8026 79.0367C52.1212 79.0115 53.4231 79.1962 54.6913 79.5068C55.7832 79.7754 56.8499 80.1951 57.8913 80.6233C60.4278 81.6726 62.4856 83.3766 64.157 85.5256C64.9717 86.5833 65.694 87.7333 66.2819 88.9337C66.8027 89.983 67.1722 91.1079 67.4074 92.2747C67.6258 93.3576 67.7098 94.4405 67.8274 95.5317C67.9365 96.5223 67.8106 97.4792 67.7182 98.4362C67.6174 99.4351 67.2478 100.409 66.9791 101.391C66.5255 103.045 65.694 104.522 64.7281 105.924C63.905 107.116 62.8887 108.149 61.7801 109.097C60.6042 110.104 59.3192 110.927 57.8913 111.523C57.127 111.842 56.3543 112.153 55.5816 112.446C55.3044 112.556 55.0021 112.614 54.7081 112.673C52.9947 113.042 51.2561 113.278 49.5259 113.068C48.4089 112.933 47.3086 112.631 46.2419 112.169C44.5369 111.431 43.1259 110.331 41.95 108.938C41.1437 107.989 40.539 106.915 40.1107 105.731C39.6235 104.371 39.3044 102.994 39.3631 101.559C39.3967 100.694 40.0267 99.7961 41.0093 99.5946C42.2776 99.3344 43.0335 99.6282 43.6466 100.728C43.8482 101.097 43.9322 101.567 43.9406 101.995C43.991 103.464 44.4865 104.749 45.36 105.907C46.0739 106.839 46.9894 107.553 48.0477 108.006C48.686 108.283 49.4083 108.4 50.1055 108.459C51.2309 108.56 52.3648 108.526 53.4735 108.241C54.4897 107.981 55.506 107.678 56.4467 107.183C57.5806 106.587 58.6388 105.89 59.5375 104.975C60.495 104.002 61.3265 102.919 61.9481 101.685C62.4688 100.661 62.8215 99.5862 63.0819 98.4866C63.3423 97.3701 63.4347 96.2201 63.2835 95.0784C63.1575 94.1383 62.9979 93.1813 62.6956 92.2831C62.3848 91.3597 61.9732 90.4531 61.4609 89.6221C60.9402 88.7826 60.327 87.9684 59.6215 87.28C58.874 86.5497 58.0173 85.8949 57.127 85.3577C56.2871 84.8456 55.338 84.5099 54.4226 84.1237C54.1622 84.0146 53.8682 83.9726 53.5827 83.9307C52.9695 83.8383 52.348 83.6872 51.7265 83.6872C47.3506 83.662 42.9663 83.6704 38.5904 83.662C37.6749 83.662 36.9022 83.385 36.4067 82.5372C35.844 81.597 36.0203 80.0189 37.1542 79.4229C37.6497 79.1626 38.1369 79.0367 38.6912 79.0451C40.833 79.0535 42.9915 79.0451 45.1417 79.0451Z" fill="black"/>
<path d="M17.5342 45.7696C18.962 45.7696 20.3814 45.778 21.8093 45.7696C22.8507 45.7612 23.6234 46.1642 24.0938 47.1379C24.5473 48.0613 24.0182 49.6814 23.0523 50.0256C22.5652 50.2019 22.0276 50.3278 21.5153 50.3278C18.8612 50.3614 16.2071 50.3614 13.553 50.3278C12.7971 50.3194 11.9992 50.2774 11.4281 49.6227C10.7814 48.884 10.5294 47.8934 11.0501 46.9616C11.5373 46.0886 12.268 45.7864 13.1751 45.778C14.6281 45.7529 16.0811 45.7696 17.5342 45.7696Z" fill="black"/>
<path d="M6.95141 62.5247C8.39603 62.5247 9.83226 62.5163 11.2769 62.5247C12.0832 62.5331 12.7383 62.8689 13.1751 63.5404C13.973 64.7576 13.4942 66.3442 12.142 66.915C11.7472 67.0829 11.2685 67.0913 10.8233 67.0913C8.25325 67.1081 5.67476 67.1249 3.10466 67.0829C2.23117 67.0661 1.33247 66.9989 0.744545 66.1259C-0.0197644 64.9843 0.274201 63.1879 1.83641 62.6926C2.14718 62.5919 2.48314 62.5331 2.8023 62.5331C4.17974 62.5163 5.56557 62.5247 6.95141 62.5247Z" fill="black"/>
<path d="M35.928 34.1013C34.5757 34.1013 33.2151 34.1013 31.8628 34.1013C30.855 34.1013 30.0907 33.69 29.5615 32.8086C28.9484 31.7761 29.5699 30.2567 30.477 29.8454C30.981 29.6187 31.4765 29.4844 32.0308 29.4928C34.7269 29.5012 37.4314 29.4844 40.1275 29.5096C41.0178 29.518 41.7737 29.8706 42.2524 30.6932C42.9831 31.944 42.2524 33.6648 40.9338 33.9251C40.3542 34.0426 39.7579 34.0845 39.17 34.1013C38.0781 34.1181 37.003 34.1013 35.928 34.1013Z" fill="black"/>
<path d="M22.204 79.045C23.5058 79.045 24.8077 79.045 26.1011 79.045C27.5458 79.0366 28.4361 79.9348 28.5872 81.236C28.688 82.1006 27.9825 83.3178 26.983 83.4941C26.4707 83.5864 25.9416 83.6452 25.4208 83.6536C23.0439 83.6704 20.667 83.6788 18.2901 83.6452C17.8113 83.6368 17.299 83.4941 16.8706 83.2758C16.1063 82.8729 15.8292 82.1006 15.7788 81.2947C15.7284 80.4469 16.4591 79.5067 17.2906 79.2465C17.6433 79.1374 18.0129 79.0702 18.3741 79.0618C19.6591 79.0367 20.9358 79.045 22.204 79.045Z" fill="black"/>
</g>
<defs>
<clipPath id="clip0_136_5453">
<rect width="121.072" height="113.106" fill="white" transform="translate(0.333008 0.0368652)"/>
</clipPath>
</defs>
</svg>
