<svg width="15" height="15" viewBox="0 0 15 15" fill="none" xmlns="http://www.w3.org/2000/svg">
<path d="M11.2617 8.23828V6.76172H8.23828V3.73828H6.76172V6.76172H3.73828V8.23828H6.76172V11.2617H8.23828V8.23828H11.2617ZM2.19141 2.22656C3.66797 0.75 5.4375 0.0117188 7.5 0.0117188C9.5625 0.0117188 11.3203 0.75 12.7734 2.22656C14.25 3.67969 14.9883 5.4375 14.9883 7.5C14.9883 9.5625 14.25 11.332 12.7734 12.8086C11.3203 14.2617 9.5625 14.9883 7.5 14.9883C5.4375 14.9883 3.66797 14.2617 2.19141 12.8086C0.738281 11.332 0.0117188 9.5625 0.0117188 7.5C0.0117188 5.4375 0.738281 3.67969 2.19141 2.22656Z" fill="black"/>
</svg>
