<svg width="18" height="18" viewBox="0 0 18 18" fill="none" xmlns="http://www.w3.org/2000/svg">
<path d="M0.75 8.09766H8.09766V0.75H0.75V8.09766ZM2.59766 2.59766H6.25V6.25H2.59766V2.59766ZM0.75 17.25H8.09766V9.90234H0.75V17.25ZM2.59766 11.75H6.25V15.4023H2.59766V11.75ZM9.90234 0.75V8.09766H17.25V0.75H9.90234ZM15.4023 6.25H11.75V2.59766H15.4023V6.25ZM15.4023 15.4023H17.25V17.25H15.4023V15.4023ZM9.90234 9.90234H11.75V11.75H9.90234V9.90234ZM11.75 11.75H13.5977V13.5977H11.75V11.75ZM9.90234 13.5977H11.75V15.4023H9.90234V13.5977ZM11.75 15.4023H13.5977V17.25H11.75V15.4023ZM13.5977 13.5977H15.4023V15.4023H13.5977V13.5977ZM13.5977 9.90234H15.4023V11.75H13.5977V9.90234ZM15.4023 11.75H17.25V13.5977H15.4023V11.75Z" fill="#5D5D5B"/>
</svg>
