<svg width="15" height="9" viewBox="0 0 15 9" fill="none" xmlns="http://www.w3.org/2000/svg">
<path d="M11.2617 0.738281C12.293 0.738281 13.1719 1.11328 13.8984 1.86328C14.625 2.58984 14.9883 3.46875 14.9883 4.5C14.9883 5.53125 14.625 6.42188 13.8984 7.17188C13.1719 7.89844 12.293 8.26172 11.2617 8.26172H8.23828V6.82031H11.2617C11.8945 6.82031 12.4336 6.59766 12.8789 6.15234C13.3477 5.68359 13.582 5.13281 13.582 4.5C13.582 3.86719 13.3477 3.32813 12.8789 2.88281C12.4336 2.41406 11.8945 2.17969 11.2617 2.17969H8.23828V0.738281H11.2617ZM4.51172 5.23828V3.76172H10.4883V5.23828H4.51172ZM2.08594 2.88281C1.64062 3.32813 1.41797 3.86719 1.41797 4.5C1.41797 5.13281 1.64062 5.68359 2.08594 6.15234C2.55469 6.59766 3.10547 6.82031 3.73828 6.82031H6.76172V8.26172H3.73828C2.70703 8.26172 1.82812 7.89844 1.10156 7.17188C0.375 6.42188 0.0117188 5.53125 0.0117188 4.5C0.0117188 3.46875 0.375 2.58984 1.10156 1.86328C1.82812 1.11328 2.70703 0.738281 3.73828 0.738281H6.76172V2.17969H3.73828C3.10547 2.17969 2.55469 2.41406 2.08594 2.88281Z" fill="black"/>
</svg>
