<svg width="18" height="14" viewBox="0 0 18 14" fill="none" xmlns="http://www.w3.org/2000/svg">
<path d="M8.47266 12.0273C8.61328 12.168 8.78906 12.2383 9 12.2383C9.21094 12.2383 9.38672 12.168 9.52734 12.0273C9.66797 11.8867 9.73828 11.7109 9.73828 11.5C9.73828 11.2891 9.66797 11.1133 9.52734 10.9727C9.38672 10.832 9.21094 10.7617 9 10.7617C8.78906 10.7617 8.61328 10.832 8.47266 10.9727C8.33203 11.1133 8.26172 11.2891 8.26172 11.5C8.26172 11.7109 8.33203 11.8867 8.47266 12.0273ZM2.98828 1.76172V9.98828H15.0117V1.76172H2.98828ZM15.0117 11.5H18C18 11.8984 17.8477 12.25 17.543 12.5547C17.2383 12.8594 16.8867 13.0117 16.4883 13.0117H1.51172C1.11328 13.0117 0.761719 12.8594 0.457031 12.5547C0.152344 12.25 0 11.8984 0 11.5H2.98828C2.58984 11.5 2.23828 11.3477 1.93359 11.043C1.65234 10.7383 1.51172 10.3867 1.51172 9.98828V1.76172C1.51172 1.36328 1.65234 1.01172 1.93359 0.707031C2.23828 0.402344 2.58984 0.25 2.98828 0.25H15.0117C15.4102 0.25 15.75 0.402344 16.0312 0.707031C16.3359 1.01172 16.4883 1.36328 16.4883 1.76172V9.98828C16.4883 10.3867 16.3359 10.7383 16.0312 11.043C15.75 11.3477 15.4102 11.5 15.0117 11.5Z" fill="black"/>
</svg>
