<svg width="22" height="18" viewBox="0 0 22 18" fill="none" xmlns="http://www.w3.org/2000/svg">
<path d="M19.25 15.4453V2.55469H2.75V15.4453H19.25ZM19.25 0.75C19.737 0.75 20.1667 0.936198 20.5391 1.30859C20.9115 1.68099 21.0977 2.11068 21.0977 2.59766V15.4023C21.0977 15.8893 20.9115 16.319 20.5391 16.6914C20.1667 17.0638 19.737 17.25 19.25 17.25H2.75C2.26302 17.25 1.83333 17.0638 1.46094 16.6914C1.08854 16.319 0.902344 15.8893 0.902344 15.4023V2.59766C0.902344 2.11068 1.08854 1.68099 1.46094 1.30859C1.83333 0.936198 2.26302 0.75 2.75 0.75H19.25ZM6.40234 6.25V9H4.59766V4.40234H9.15234V6.25H6.40234ZM17.4023 9V13.5977H12.8477V11.75H15.5977V9H17.4023Z" fill="black"/>
</svg>
