<svg width="18" height="18" viewBox="0 0 18 18" fill="none" xmlns="http://www.w3.org/2000/svg">
<mask id="mask0_725_4476" style="mask-type:alpha" maskUnits="userSpaceOnUse" x="0" y="0" width="18" height="18">
<path fill-rule="evenodd" clip-rule="evenodd" d="M17.5465 7.40909H9.20349V10.7898H14.0058C13.5581 12.9375 11.686 14.1705 9.20349 14.1705C6.27326 14.1705 3.91279 11.8636 3.91279 9C3.91279 6.13636 6.27326 3.82955 9.20349 3.82955C10.4651 3.82955 11.6047 4.26705 12.5 4.98295L15.1047 2.4375C13.5174 1.08523 11.4826 0.25 9.20349 0.25C4.23837 0.25 0.25 4.14773 0.25 9C0.25 13.8523 4.23837 17.75 9.20349 17.75C13.6802 17.75 17.75 14.5682 17.75 9C17.75 8.48295 17.6686 7.92614 17.5465 7.40909Z" fill="white"/>
</mask>
<g mask="url(#mask0_725_4476)">
<path d="M-0.563965 14.1705V3.82954L6.35464 9L-0.563965 14.1705Z" fill="#FBBC05"/>
</g>
<mask id="mask1_725_4476" style="mask-type:alpha" maskUnits="userSpaceOnUse" x="0" y="0" width="18" height="18">
<path fill-rule="evenodd" clip-rule="evenodd" d="M17.5465 7.40909H9.20349V10.7898H14.0058C13.5581 12.9375 11.686 14.1705 9.20349 14.1705C6.27326 14.1705 3.91279 11.8636 3.91279 9C3.91279 6.13636 6.27326 3.82955 9.20349 3.82955C10.4651 3.82955 11.6047 4.26705 12.5 4.98295L15.1047 2.4375C13.5174 1.08523 11.4826 0.25 9.20349 0.25C4.23837 0.25 0.25 4.14773 0.25 9C0.25 13.8523 4.23837 17.75 9.20349 17.75C13.6802 17.75 17.75 14.5682 17.75 9C17.75 8.48295 17.6686 7.92614 17.5465 7.40909Z" fill="white"/>
</mask>
<g mask="url(#mask1_725_4476)">
<path d="M-0.563965 3.82954L6.35464 9L9.20348 6.57386L18.9709 5.02273V-0.545456H-0.563965V3.82954Z" fill="#EA4335"/>
</g>
<mask id="mask2_725_4476" style="mask-type:alpha" maskUnits="userSpaceOnUse" x="0" y="0" width="18" height="18">
<path fill-rule="evenodd" clip-rule="evenodd" d="M17.5465 7.40909H9.20349V10.7898H14.0058C13.5581 12.9375 11.686 14.1705 9.20349 14.1705C6.27326 14.1705 3.91279 11.8636 3.91279 9C3.91279 6.13636 6.27326 3.82955 9.20349 3.82955C10.4651 3.82955 11.6047 4.26705 12.5 4.98295L15.1047 2.4375C13.5174 1.08523 11.4826 0.25 9.20349 0.25C4.23837 0.25 0.25 4.14773 0.25 9C0.25 13.8523 4.23837 17.75 9.20349 17.75C13.6802 17.75 17.75 14.5682 17.75 9C17.75 8.48295 17.6686 7.92614 17.5465 7.40909Z" fill="white"/>
</mask>
<g mask="url(#mask2_725_4476)">
<path d="M-0.563965 14.1705L11.6453 5.02273L14.8605 5.42045L18.9709 -0.545456V18.5455H-0.563965V14.1705Z" fill="#34A853"/>
</g>
<mask id="mask3_725_4476" style="mask-type:alpha" maskUnits="userSpaceOnUse" x="0" y="0" width="18" height="18">
<path fill-rule="evenodd" clip-rule="evenodd" d="M17.5465 7.40909H9.20349V10.7898H14.0058C13.5581 12.9375 11.686 14.1705 9.20349 14.1705C6.27326 14.1705 3.91279 11.8636 3.91279 9C3.91279 6.13636 6.27326 3.82955 9.20349 3.82955C10.4651 3.82955 11.6047 4.26705 12.5 4.98295L15.1047 2.4375C13.5174 1.08523 11.4826 0.25 9.20349 0.25C4.23837 0.25 0.25 4.14773 0.25 9C0.25 13.8523 4.23837 17.75 9.20349 17.75C13.6802 17.75 17.75 14.5682 17.75 9C17.75 8.48295 17.6686 7.92614 17.5465 7.40909Z" fill="white"/>
</mask>
<g mask="url(#mask3_725_4476)">
<path d="M18.9709 18.5455L6.35459 9L4.72668 7.80682L18.9709 3.82954V18.5455Z" fill="#4285F4"/>
</g>
</svg>
