<svg width="11" height="18" viewBox="0 0 11 18" fill="none" xmlns="http://www.w3.org/2000/svg">
<path d="M8.98828 13.5V2.98828H2.23828V13.5H8.98828ZM4.80469 16.1719C5.03906 16.3828 5.30859 16.4883 5.61328 16.4883C5.91797 16.4883 6.17578 16.3828 6.38672 16.1719C6.62109 15.9375 6.73828 15.668 6.73828 15.3633C6.73828 15.0586 6.62109 14.8008 6.38672 14.5898C6.17578 14.3555 5.91797 14.2383 5.61328 14.2383C5.30859 14.2383 5.03906 14.3555 4.80469 14.5898C4.59375 14.8008 4.48828 15.0586 4.48828 15.3633C4.48828 15.668 4.59375 15.9375 4.80469 16.1719ZM8.63672 0.738281C9.15234 0.738281 9.58594 0.925781 9.9375 1.30078C10.3125 1.67578 10.5 2.12109 10.5 2.63672V15.3633C10.5 15.8789 10.3125 16.3242 9.9375 16.6992C9.58594 17.0742 9.15234 17.2617 8.63672 17.2617H2.625C2.10938 17.2617 1.66406 17.0742 1.28906 16.6992C0.9375 16.3242 0.761719 15.8789 0.761719 15.3633V2.63672C0.761719 2.12109 0.9375 1.67578 1.28906 1.30078C1.66406 0.925781 2.10938 0.738281 2.625 0.738281H8.63672Z" fill="black"/>
</svg>
