<svg width="78" height="78" viewBox="0 0 78 78" fill="none" xmlns="http://www.w3.org/2000/svg">
<path d="M14.375 61.8952L61.7185 14.5518L63.4379 16.2712L16.0945 63.6147L14.375 61.8952Z" fill="black"/>
<path d="M77.8101 17.1988H60.7891V0.177734H77.8101V17.1988ZM63.2206 14.7672H75.3785V2.60931H63.2206V14.7672Z" fill="black"/>
<path d="M17.021 77.988H0V60.967H17.021V77.988ZM2.43158 75.5564H14.5895V63.3986H2.43158V75.5564Z" fill="black"/>
<path d="M14.375 16.2691L16.0945 14.5496L63.4379 61.8931L61.7185 63.6126L14.375 16.2691Z" fill="black"/>
<path d="M17.021 17.1988H0V0.177734H17.021V17.1988ZM2.43158 14.7672H14.5895V2.60931H2.43158V14.7672Z" fill="black"/>
<path d="M77.8101 77.988H60.7891V60.967H77.8101V77.988ZM63.2206 75.5564H75.3785V63.3986H63.2206V75.5564Z" fill="black"/>
</svg>
