<svg width="78" height="78" viewBox="0 0 78 78" fill="none" xmlns="http://www.w3.org/2000/svg">
<path d="M38.9052 77.9882C17.4532 77.9882 0 60.535 0 39.0829C0 17.6309 17.4532 0.177734 38.9052 0.177734C60.3573 0.177734 77.8104 17.6309 77.8104 39.0829C77.8104 60.535 60.3587 77.9882 38.9052 77.9882ZM38.9052 2.60931C18.794 2.60931 2.43158 18.9717 2.43158 39.0829C2.43158 59.1942 18.794 75.5566 38.9052 75.5566C59.0164 75.5566 75.3788 59.1942 75.3788 39.0829C75.3788 18.9717 59.0192 2.60931 38.9052 2.60931Z" fill="black"/>
<path d="M38.9054 68.0648C22.9251 68.0648 9.92383 55.0635 9.92383 39.0832C9.92383 23.1028 22.9251 10.1016 38.9054 10.1016C54.8857 10.1016 67.887 23.1028 67.887 39.0832C67.887 55.0635 54.8878 68.0648 38.9054 68.0648ZM38.9054 12.5331C24.2673 12.5331 12.3554 24.4451 12.3554 39.0832C12.3554 53.7212 24.2673 65.6332 38.9054 65.6332C53.5435 65.6332 65.4555 53.7233 65.4555 39.0832C65.4555 24.443 53.5456 12.5331 38.9054 12.5331Z" fill="black"/>
<path d="M38.9053 57.9492C28.5033 57.9492 20.0391 49.4876 20.0391 39.0829C20.0391 28.6783 28.5034 20.2167 38.9053 20.2167C49.3072 20.2167 57.7716 28.6783 57.7716 39.0829C57.7716 49.4876 49.31 57.9492 38.9053 57.9492ZM38.9053 22.6483C29.8428 22.6483 22.4706 30.0206 22.4706 39.0829C22.4706 48.1452 29.843 55.5176 38.9053 55.5176C47.9676 55.5176 55.34 48.1452 55.34 39.0829C55.34 30.0206 47.9676 22.6483 38.9053 22.6483Z" fill="black"/>
<path d="M38.9053 47.8438C34.0763 47.8438 30.1445 43.9142 30.1445 39.083C30.1445 34.2514 34.0741 30.3223 38.9053 30.3223C43.7369 30.3223 47.666 34.2518 47.666 39.083C47.666 43.9146 43.737 47.8438 38.9053 47.8438ZM38.9053 32.7555C35.4159 32.7555 32.5761 35.5957 32.5761 39.0847C32.5761 42.5741 35.4163 45.4139 38.9053 45.4139C42.3947 45.4139 45.2345 42.5737 45.2345 39.0847C45.2345 35.5957 42.3947 32.7555 38.9053 32.7555Z" fill="black"/>
</svg>
